<?xml version="1.0" encoding="UTF-8"?>
<svg width="338px" height="72px" viewBox="0 0 338 72" version="1.1" xmlns="http://www.w3.org/2000/svg" xmlns:xlink="http://www.w3.org/1999/xlink">
    <!-- Generator: Sketch 50.2 (55047) - http://www.bohemiancoding.com/sketch -->
    <title>The quick brown fox Copy 2</title>
    <desc>Created with Sketch.</desc>
    <defs></defs>
    <g id="Page-1" stroke="none" stroke-width="1" fill="none" fill-rule="evenodd">
        <g id="Desktop-Copy" transform="translate(-607.000000, -51.000000)" fill="#262626">
            <path d="M616.82,53.57 L616.82,71.87 L618.68,74 L613.58,74 L614.81,71.39 L614.81,53.57 L611.15,53.57 L608.42,56.72 L608.42,52.25 L623.24,52.25 L623.24,56.72 L620.51,53.57 L616.82,53.57 Z M628.73,63.77 L628.73,71.9 L630.59,74 L625.4,74 L626.63,71.39 L626.63,54.11 L624.2,51.5 L628.73,51.5 L628.73,61.52 C629.75,59.48 631.61,57.77 634.67,57.77 C637.64,57.77 639.35,59.57 639.35,64.1 L639.35,71.9 L641.21,74 L636.05,74 L637.25,71.45 L637.25,64.13 C637.25,60.65 636.11,59.33 633.65,59.33 C631.64,59.33 629.54,60.92 628.73,63.77 Z M657.71,70.25 C656.27,72.89 653.99,74.36 650.96,74.36 C646.4,74.36 643.43,71.36 643.43,65.84 C643.43,60.68 646.82,57.59 650.87,57.59 C654.95,57.59 657.35,60.29 657.29,66.05 L645.68,66.05 C645.86,70.64 647.99,72.95 651.65,72.95 C653.84,72.95 655.34,72.32 657.47,70.1 L657.71,70.25 Z M650.87,58.88 C647.96,58.88 645.77,60.92 645.65,65 L655.22,65 C655.22,60.74 653.63,58.88 650.87,58.88 Z M683.57,80 L678.41,80 L679.61,77.45 L679.61,71.06 C678.5,73.13 676.55,74.36 674.12,74.36 C670.31,74.36 667.64,71.36 667.64,66.02 L667.64,65.87 C667.64,60.56 670.31,57.59 674.12,57.59 C676.61,57.59 678.56,58.85 679.67,60.98 L679.88,58.1 L681.71,58.1 L681.71,77.9 L683.57,80 Z M674.84,72.68 C676.85,72.68 678.74,71.57 679.61,69.38 L679.61,62.54 C678.74,60.38 676.85,59.27 674.84,59.27 C671.57,59.27 669.83,61.97 669.83,65.87 L669.83,66.02 C669.83,69.95 671.57,72.68 674.84,72.68 Z M697.28,74 L697.28,70.13 C696.35,72.38 694.7,74.36 691.55,74.36 C688.7,74.36 686.72,72.56 686.72,68.9 L686.72,60.2 L684.89,58.1 L688.82,58.1 L688.82,68.84 C688.82,71.48 689.99,72.92 692.09,72.92 C694.46,72.92 696.26,71.18 697.07,68.3 L697.07,60.56 L694.88,58.1 L699.17,58.1 L699.17,71.39 L701.6,74 L697.28,74 Z M704.84,53.3 C704.84,52.49 705.53,51.8 706.31,51.8 C707.12,51.8 707.78,52.49 707.78,53.3 C707.78,54.08 707.12,54.77 706.31,54.77 C705.53,54.77 704.84,54.08 704.84,53.3 Z M709.34,74 L704.18,74 L705.38,71.45 L705.38,60.71 L702.98,58.1 L707.48,58.1 L707.48,71.87 L709.34,74 Z M725.81,70.16 L726.05,70.34 C724.61,72.92 722.39,74.36 719.39,74.36 C714.83,74.36 711.56,71.72 711.56,66.44 C711.56,61.55 714.8,57.59 719.63,57.59 C723.26,57.59 725.66,59.93 725.66,62.12 C725.66,62.99 725.3,63.65 724.46,63.65 C723.65,63.65 723.2,63.26 723.11,62.12 C722.96,60.26 722.03,58.91 719.54,58.91 C715.49,58.91 713.81,62.51 713.81,65.81 C713.81,70.79 716.3,72.98 720.08,72.98 C722.21,72.98 724.13,71.93 725.81,70.16 Z M738.89,74 L739.67,71.9 L734.87,66.47 L732.83,68.33 L732.83,71.96 L734.63,74 L729.5,74 L730.73,71.39 L730.73,54.11 L728.3,51.5 L732.83,51.5 L732.83,66.86 L739.94,60.23 L738.44,58.1 L743.87,58.1 L736.37,65.06 L744.11,74 L738.89,74 Z M769.1,66.02 C769.1,71.36 766.4,74.36 762.59,74.36 C760.1,74.36 758.15,73.1 757.04,70.97 L756.83,74 L755,74 L755,53.6 L753.14,51.5 L757.1,51.5 L757.1,60.86 C758.21,58.82 760.16,57.59 762.59,57.59 C766.4,57.59 769.1,60.56 769.1,65.87 L769.1,66.02 Z M761.87,72.65 C765.14,72.65 766.88,69.95 766.88,66.02 L766.88,65.87 C766.88,61.97 765.14,59.27 761.87,59.27 C759.83,59.27 757.82,60.47 757.1,62.6 L757.1,69.32 C757.91,71.54 759.89,72.65 761.87,72.65 Z M777.17,74 L771.98,74 L773.21,71.39 L773.21,60.71 L770.78,58.1 L775.1,58.1 L775.1,63.5 C775.88,60.14 777.86,58.1 780.23,58.1 C781.1,58.1 781.73,58.49 781.73,59.3 C781.73,60.08 781.01,60.47 780.08,60.47 C779.54,60.47 779.06,60.41 778.52,60.56 C777.35,60.89 776.15,62.12 775.31,65.21 L775.31,71.9 L777.17,74 Z M791.78,74.36 C786.65,74.36 783.83,71.03 783.83,65.69 C783.83,60.8 787.37,57.59 791.78,57.59 C796.7,57.59 799.73,60.53 799.73,65.54 C799.73,70.85 796.91,74.36 791.78,74.36 Z M791.78,73.1 C795.47,73.1 797.48,70.43 797.48,65.69 C797.48,61.37 795.26,58.85 791.78,58.85 C788.27,58.85 786.08,61.37 786.08,65.69 C786.08,70.61 788.03,73.1 791.78,73.1 Z M809.66,74.33 L809.66,74.27 L809.63,74.33 L808.55,74.33 L803.12,60.38 L800.87,58.1 L806.54,58.1 L805.46,60.44 L809.48,71.12 L813.41,61.49 L812.93,60.26 L810.8,58.1 L816.47,58.1 L815.39,60.38 L819.32,71.12 L823.28,60.32 L821.3,58.1 L825.56,58.1 L819.53,74.33 L819.5,74.21 L819.47,74.33 L818.39,74.33 L814.1,63.32 L809.66,74.33 Z M830.54,63.8 L830.54,71.9 L832.4,74 L827.21,74 L828.44,71.39 L828.44,60.71 L826.01,58.1 L830.33,58.1 L830.33,61.97 C831.29,59.75 833.21,57.77 836.48,57.77 C839.45,57.77 841.16,59.57 841.16,64.1 L841.16,71.9 L843.02,74 L837.86,74 L839.06,71.45 L839.06,64.13 C839.06,60.65 837.92,59.33 835.46,59.33 C833.45,59.33 831.35,60.95 830.54,63.8 Z M860.42,59.48 L857.63,59.48 L857.63,71.87 L859.49,74 L854.33,74 L855.53,71.45 L855.53,59.48 L852.65,59.48 L852.65,58.16 L855.35,58.16 C854.81,57.47 854.54,56.54 854.54,55.58 C854.54,52.94 856.46,51.2 858.89,51.2 C860.06,51.2 860.87,51.65 860.87,52.34 C860.87,53.03 860.42,53.45 859.64,53.45 C858.95,53.45 858.56,53.09 857.75,53.09 C856.61,53.09 855.74,53.93 855.74,55.55 C855.74,57.08 856.7,58.16 858.56,58.16 L860.42,58.16 L860.42,59.48 Z M871.16,74.36 C866.03,74.36 863.21,71.03 863.21,65.69 C863.21,60.8 866.75,57.59 871.16,57.59 C876.08,57.59 879.11,60.53 879.11,65.54 C879.11,70.85 876.29,74.36 871.16,74.36 Z M871.16,73.1 C874.85,73.1 876.86,70.43 876.86,65.69 C876.86,61.37 874.64,58.85 871.16,58.85 C867.65,58.85 865.46,61.37 865.46,65.69 C865.46,70.61 867.41,73.1 871.16,73.1 Z M892.01,74 L892.88,72.23 L888.56,67.19 L883.88,72.29 L885.47,74 L880.55,74 L887.69,66.2 L880.73,58.1 L885.8,58.1 L884.96,59.9 L889.25,64.88 L893.9,59.81 L892.31,58.1 L897.23,58.1 L890.09,65.87 L897.08,74 L892.01,74 Z M610.07,94.3 C610.07,93.49 610.76,92.8 611.54,92.8 C612.32,92.8 612.98,93.49 612.98,94.3 C612.98,95.05 612.32,95.74 611.54,95.74 C610.76,95.74 610.07,95.05 610.07,94.3 Z M609.68,121.72 C608.39,121.72 607.49,121.3 607.49,120.43 C607.49,119.71 608.03,119.32 608.72,119.32 C609.53,119.32 610.07,119.86 611.03,119.86 C612.29,119.86 613.19,118.96 613.19,117.73 C613.19,116.2 612.11,114.79 609.56,114.52 L610.58,112.18 L610.58,101.71 L608.18,99.1 L612.68,99.1 L612.68,114.28 C613.64,115 614.45,116.29 614.45,117.79 C614.45,119.98 612.71,121.72 609.68,121.72 Z M628.49,115 L628.49,111.13 C627.56,113.38 625.91,115.36 622.76,115.36 C619.91,115.36 617.93,113.56 617.93,109.9 L617.93,101.2 L616.1,99.1 L620.03,99.1 L620.03,109.84 C620.03,112.48 621.2,113.92 623.3,113.92 C625.67,113.92 627.47,112.18 628.28,109.3 L628.28,101.56 L626.09,99.1 L630.38,99.1 L630.38,112.39 L632.81,115 L628.49,115 Z M638.69,112.96 L640.49,115 L635.36,115 L636.59,112.39 L636.59,101.71 L634.16,99.1 L638.48,99.1 L638.48,102.94 C639.44,100.72 641.06,98.77 644.3,98.77 C646.49,98.77 648.05,99.97 648.53,102.88 C649.52,100.69 651.11,98.77 654.35,98.77 C657.02,98.77 658.76,100.57 658.76,105.1 L658.76,112.9 L660.59,115 L655.49,115 L656.66,112.51 L656.66,105.13 C656.66,101.65 655.49,100.33 653.33,100.33 C651.32,100.33 649.55,101.92 648.71,104.77 L648.71,112.96 L650.51,115 L645.44,115 L646.61,112.51 L646.61,105.13 C646.61,101.65 645.47,100.33 643.31,100.33 C641.3,100.33 639.5,101.92 638.69,104.77 L638.69,112.96 Z M671.15,113.65 C674.39,113.65 676.16,110.95 676.16,107.02 L676.16,106.87 C676.16,102.97 674.39,100.3 671.15,100.3 C669.08,100.3 667.1,101.47 666.35,103.63 L666.35,110.29 C667.19,112.54 669.14,113.65 671.15,113.65 Z M671.84,115.36 C669.41,115.36 667.49,114.13 666.35,112.03 L666.35,118.87 L668.21,121 L663.05,121 L664.25,118.45 L664.25,101.71 L661.85,99.1 L666.14,99.1 L666.14,102.31 C667.22,100 669.26,98.59 671.84,98.59 C675.65,98.59 678.35,101.56 678.35,106.87 L678.35,107.02 C678.35,112.36 675.65,115.36 671.84,115.36 Z M689.27,115.36 C687.2,115.36 685.58,114.7 684.14,113.8 L681.56,115.3 L681.56,111.04 L683.75,112.27 C686.18,113.62 687.8,114.1 689.24,114.1 C691.7,114.1 692.54,113.17 692.54,111.61 C692.54,109.9 691.28,108.97 687.5,107.83 C683.48,106.6 681.53,104.98 681.53,102.58 C681.53,100 683.39,98.59 685.85,98.59 C687.68,98.59 689.3,99.25 690.71,100.21 L693.08,98.98 L693.08,103.36 L691.01,101.8 C689.18,100.45 687.59,99.88 685.88,99.88 C684.2,99.88 683.42,100.75 683.42,102.1 C683.42,103.93 684.74,104.77 688.07,105.7 C692.69,106.99 694.4,108.67 694.4,111.16 C694.4,113.56 692.54,115.36 689.27,115.36 Z M713.3,115.36 C708.17,115.36 705.35,112.03 705.35,106.69 C705.35,101.8 708.89,98.59 713.3,98.59 C718.22,98.59 721.25,101.53 721.25,106.54 C721.25,111.85 718.43,115.36 713.3,115.36 Z M713.3,114.1 C716.99,114.1 719,111.43 719,106.69 C719,102.37 716.78,99.85 713.3,99.85 C709.79,99.85 707.6,102.37 707.6,106.69 C707.6,111.61 709.55,114.1 713.3,114.1 Z M731.9,115.33 L730.76,115.33 L724.73,101.47 L722.39,99.1 L728.12,99.1 L727.04,101.44 L731.69,112.54 L736.55,101.23 L734.66,99.1 L738.89,99.1 L731.9,115.33 Z M754.46,111.25 C753.02,113.89 750.74,115.36 747.71,115.36 C743.15,115.36 740.18,112.36 740.18,106.84 C740.18,101.68 743.57,98.59 747.62,98.59 C751.7,98.59 754.1,101.29 754.04,107.05 L742.43,107.05 C742.61,111.64 744.74,113.95 748.4,113.95 C750.59,113.95 752.09,113.32 754.22,111.1 L754.46,111.25 Z M747.62,99.88 C744.71,99.88 742.52,101.92 742.4,106 L751.97,106 C751.97,101.74 750.38,99.88 747.62,99.88 Z M762.2,115 L757.01,115 L758.24,112.39 L758.24,101.71 L755.81,99.1 L760.13,99.1 L760.13,104.5 C760.91,101.14 762.89,99.1 765.26,99.1 C766.13,99.1 766.76,99.49 766.76,100.3 C766.76,101.08 766.04,101.47 765.11,101.47 C764.57,101.47 764.09,101.41 763.55,101.56 C762.38,101.89 761.18,103.12 760.34,106.21 L760.34,112.9 L762.2,115 Z M784.64,113.35 C784.1,114.58 783.17,115.3 781.73,115.3 C779.6,115.3 778.43,113.86 778.43,111.34 L778.43,100.54 L775.58,100.54 L775.58,99.1 L778.43,99.1 L779.21,94 L780.53,94 L780.53,99.1 L784.28,99.1 L784.28,100.54 L780.53,100.54 L780.53,110.77 C780.53,113.02 781.25,114.01 782.63,114.01 C783.29,114.01 783.89,113.71 784.43,113.17 L784.64,113.35 Z M790.37,104.77 L790.37,112.9 L792.23,115 L787.04,115 L788.27,112.39 L788.27,95.11 L785.84,92.5 L790.37,92.5 L790.37,102.52 C791.39,100.48 793.25,98.77 796.31,98.77 C799.28,98.77 800.99,100.57 800.99,105.1 L800.99,112.9 L802.85,115 L797.69,115 L798.89,112.45 L798.89,105.13 C798.89,101.65 797.75,100.33 795.29,100.33 C793.28,100.33 791.18,101.92 790.37,104.77 Z M819.35,111.25 C817.91,113.89 815.63,115.36 812.6,115.36 C808.04,115.36 805.07,112.36 805.07,106.84 C805.07,101.68 808.46,98.59 812.51,98.59 C816.59,98.59 818.99,101.29 818.93,107.05 L807.32,107.05 C807.5,111.64 809.63,113.95 813.29,113.95 C815.48,113.95 816.98,113.32 819.11,111.1 L819.35,111.25 Z M812.51,99.88 C809.6,99.88 807.41,101.92 807.29,106 L816.86,106 C816.86,101.74 815.27,99.88 812.51,99.88 Z M835.31,115 L830.12,115 L831.35,112.39 L831.35,95.11 L828.92,92.5 L833.45,92.5 L833.45,112.9 L835.31,115 Z M843.29,114.1 C845.15,114.1 846.74,113.23 847.43,111.7 L847.43,106.9 C845.15,106.87 842.75,107.23 841.46,107.86 C840.17,108.49 839.66,109.51 839.66,110.74 C839.66,112.51 840.74,114.1 843.29,114.1 Z M849.47,115 C848.3,115 847.58,114.19 847.43,113.11 C846.5,114.58 844.82,115.36 842.66,115.36 C839.39,115.36 837.59,113.44 837.59,110.98 C837.59,109.18 838.61,107.74 840.83,106.99 C842.54,106.36 845.12,106.12 847.43,106.12 L847.43,104.71 C847.43,101.32 846.05,99.64 843.35,99.64 C841.07,99.64 840.02,100.78 839.93,102.73 C839.9,103.78 839.54,104.26 838.97,104.26 C838.4,104.26 837.95,103.78 837.95,102.76 C837.95,100.51 840.17,98.59 843.53,98.59 C846.98,98.59 849.53,100.6 849.53,104.74 L849.53,111.94 C849.53,112.99 849.92,113.47 850.52,113.47 C850.76,113.47 850.97,113.44 851.15,113.32 L851.27,113.44 C851.15,114.4 850.49,115 849.47,115 Z M853.04,115 L863.96,100.42 L856.97,100.42 L854.36,103.93 L854.36,99.1 L867.44,99.1 L856.61,113.68 L864.32,113.68 L867.2,110.17 L867.2,115 L853.04,115 Z M873.59,122.08 C872.45,122.08 871.4,121.72 871.4,120.7 C871.4,120.07 871.79,119.62 872.72,119.62 C873.41,119.62 874.04,119.86 874.7,119.86 C876.32,119.86 877.46,118.69 877.46,117.13 C877.46,116.05 876.89,114.76 875.75,113.98 L870.62,101.38 L868.37,99.1 L874.1,99.1 L872.99,101.47 L877.64,113.26 L882.56,101.29 L880.64,99.1 L884.87,99.1 L878.36,115.06 C879.29,118.39 877.34,122.08 873.59,122.08 Z M901.07,113.68 C903.08,113.68 904.97,112.57 905.84,110.38 L905.84,103.54 C904.97,101.38 903.08,100.27 901.07,100.27 C897.83,100.27 896.06,102.97 896.06,106.87 L896.06,107.02 C896.06,110.95 897.83,113.68 901.07,113.68 Z M906.08,115 L906.08,111.58 C905,113.95 902.99,115.36 900.38,115.36 C896.57,115.36 893.87,112.36 893.87,107.02 L893.87,106.87 C893.87,101.56 896.57,98.59 900.35,98.59 C902.78,98.59 904.73,99.82 905.84,101.86 L905.84,95.11 L903.44,92.5 L907.97,92.5 L907.97,112.9 L909.8,115 L906.08,115 Z M920.24,115.36 C915.11,115.36 912.29,112.03 912.29,106.69 C912.29,101.8 915.83,98.59 920.24,98.59 C925.16,98.59 928.19,101.53 928.19,106.54 C928.19,111.85 925.37,115.36 920.24,115.36 Z M920.24,114.1 C923.93,114.1 925.94,111.43 925.94,106.69 C925.94,102.37 923.72,99.85 920.24,99.85 C916.73,99.85 914.54,102.37 914.54,106.69 C914.54,111.61 916.49,114.1 920.24,114.1 Z M944.12,116.62 C944.12,120.16 940.85,121.69 936.47,121.69 C931.46,121.69 929.57,119.95 929.57,117.34 C929.57,115.54 930.89,114.16 933.14,113.77 C931.82,113.26 931.28,112.3 931.28,111.25 C931.28,109.99 932.33,109.06 934.13,108.76 C932.06,107.92 930.86,106.03 930.86,103.84 C930.86,100.78 933.17,98.59 936.77,98.59 C937.04,98.59 937.28,98.59 937.52,98.62 C936.59,97.96 936.23,97.18 936.23,96.25 C936.23,94.21 937.82,93.34 940.1,93.34 C941.9,93.34 942.41,93.88 942.41,94.57 C942.41,95.17 941.96,95.5 941.21,95.5 C940.52,95.5 940.1,95.2 939.29,95.2 C938.12,95.2 937.37,95.68 937.37,96.7 C937.37,97.63 938.06,98.38 939.98,99.4 C941.51,100.3 942.47,101.83 942.47,103.69 C942.47,106.81 940.46,109.27 936.77,109.27 C934.01,109.27 932.93,109.81 932.93,110.53 C932.93,111.31 933.47,111.82 935.36,112.03 L939.08,112.42 C942.38,112.78 944.12,114.43 944.12,116.62 Z M936.77,108.25 C939.2,108.25 940.49,106.24 940.49,103.9 C940.49,101.56 939.29,99.67 936.77,99.67 C934.19,99.67 932.84,101.56 932.84,103.93 C932.84,106.15 934.25,108.25 936.77,108.25 Z M936.5,120.52 C939.92,120.52 942.29,119.29 942.29,117.31 C942.29,115.72 941.24,114.82 938.96,114.58 L935.03,114.19 C932.45,114.43 931.31,115.54 931.31,117.25 C931.31,119.26 932.63,120.52 936.5,120.52 Z" id="The-quick-brown-fox-Copy-2"></path>
        </g>
    </g>
</svg>