<?xml version="1.0" encoding="UTF-8"?>
<svg width="332px" height="70px" viewBox="0 0 332 70" version="1.1" xmlns="http://www.w3.org/2000/svg" xmlns:xlink="http://www.w3.org/1999/xlink">
    <!-- Generator: Sketch 51.2 (57519) - http://www.bohemiancoding.com/sketch -->
    <title>The quick brown fox Copy 5</title>
    <desc>Created with Sketch.</desc>
    <defs></defs>
    <g id="Page-1" stroke="none" stroke-width="1" fill="none" fill-rule="evenodd">
        <g id="Desktop-Copy" transform="translate(-113.000000, -59.000000)" fill="#262626">
            <path d="M132.09,63.86 L125.37,63.86 L125.37,81.2 L121.2,81.2 L121.2,63.86 L114.48,63.86 L114.48,59.93 L132.09,59.93 L132.09,63.86 Z M138.9,72.53 L138.9,81.2 L134.91,81.2 L134.91,59.48 L138.9,59.48 L138.9,67.67 C139.86,66.53 141.48,66.05 142.89,66.05 C146.64,66.05 148.38,68.66 148.38,71.9 L148.38,81.2 L144.39,81.2 L144.39,72.59 C144.39,70.94 143.58,69.65 141.66,69.65 C139.98,69.65 138.99,70.91 138.9,72.53 Z M155.46,72.14 L162.06,72.14 C162,70.67 161.04,69.23 158.76,69.23 C156.69,69.23 155.55,70.79 155.46,72.14 Z M162.45,75.98 L165.78,76.97 C165.03,79.52 162.69,81.65 159.06,81.65 C155.01,81.65 151.44,78.74 151.44,73.76 C151.44,69.05 154.92,65.99 158.7,65.99 C163.26,65.99 165.99,68.9 165.99,73.64 C165.99,74.21 165.93,74.81 165.93,74.87 L155.37,74.87 C155.46,76.82 157.11,78.23 159.09,78.23 C160.95,78.23 161.97,77.3 162.45,75.98 Z M190.89,86.9 L186.99,86.9 L186.99,79.73 C186.3,80.84 184.83,81.56 182.88,81.56 C178.68,81.56 175.68,78.23 175.68,73.79 C175.68,69.47 178.47,66.08 182.76,66.08 C185.34,66.08 186.66,67.31 187.08,68.15 L187.08,66.44 L190.89,66.44 L190.89,86.9 Z M179.7,73.79 C179.7,76.43 181.32,77.99 183.36,77.99 C185.4,77.99 187.02,76.43 187.02,73.79 C187.02,71.15 185.4,69.65 183.36,69.65 C181.32,69.65 179.7,71.15 179.7,73.79 Z M204.81,81.2 C204.75,80.9 204.69,80.21 204.69,79.61 C203.88,80.99 202.17,81.59 200.61,81.59 C197.04,81.59 195,78.98 195,75.77 L195,66.44 L198.99,66.44 L198.99,74.96 C198.99,76.61 199.83,77.93 201.69,77.93 C203.46,77.93 204.48,76.73 204.48,75.02 L204.48,66.44 L208.47,66.44 L208.47,78.53 C208.47,79.67 208.56,80.69 208.62,81.2 L204.81,81.2 Z M216.84,81.2 L212.85,81.2 L212.85,66.44 L216.84,66.44 L216.84,81.2 Z M212.37,61.61 C212.37,60.23 213.48,59.12 214.83,59.12 C216.21,59.12 217.29,60.23 217.29,61.61 C217.29,62.93 216.21,64.04 214.83,64.04 C213.48,64.04 212.37,62.93 212.37,61.61 Z M227.85,69.68 C225.81,69.68 224.1,71.15 224.1,73.82 C224.1,76.49 225.84,77.99 227.88,77.99 C229.92,77.99 230.94,76.64 231.27,75.5 L234.78,76.67 C234.12,79.13 231.81,81.65 227.88,81.65 C223.53,81.65 220.11,78.35 220.11,73.82 C220.11,69.26 223.47,65.99 227.76,65.99 C231.78,65.99 234.06,68.48 234.69,70.97 L231.12,72.17 C230.76,70.94 229.83,69.68 227.85,69.68 Z M252.15,66.44 L246.24,72.65 L252.27,81.2 L247.38,81.2 L243.48,75.56 L241.83,77.3 L241.83,81.2 L237.84,81.2 L237.84,59.48 L241.83,59.48 L241.83,71.93 L246.93,66.44 L252.15,66.44 Z M266.13,81.2 L262.26,81.2 L262.26,59.48 L266.19,59.48 L266.19,68.06 C266.85,67.01 268.47,66.05 270.66,66.05 C274.98,66.05 277.47,69.38 277.47,73.76 C277.47,78.23 274.71,81.56 270.51,81.56 C268.47,81.56 266.91,80.66 266.13,79.4 L266.13,81.2 Z M273.48,73.79 C273.48,71.09 271.86,69.62 269.82,69.62 C267.81,69.62 266.13,71.09 266.13,73.79 C266.13,76.46 267.81,77.99 269.82,77.99 C271.86,77.99 273.48,76.49 273.48,73.79 Z M289.74,66.38 L289.74,70.4 C289.29,70.31 288.9,70.28 288.54,70.28 C286.5,70.28 284.73,71.27 284.73,74.45 L284.73,81.2 L280.74,81.2 L280.74,66.44 L284.61,66.44 L284.61,68.63 C285.51,66.68 287.55,66.32 288.81,66.32 C289.14,66.32 289.44,66.35 289.74,66.38 Z M299.16,78.02 C301.11,78.02 302.91,76.61 302.91,73.82 C302.91,71.03 301.11,69.62 299.16,69.62 C297.21,69.62 295.41,71.03 295.41,73.82 C295.41,76.58 297.21,78.02 299.16,78.02 Z M299.16,65.99 C303.57,65.99 306.9,69.26 306.9,73.82 C306.9,78.35 303.57,81.65 299.16,81.65 C294.75,81.65 291.42,78.35 291.42,73.82 C291.42,69.26 294.75,65.99 299.16,65.99 Z M318.15,66.44 L322.35,66.44 L325.53,75.95 L328.26,66.44 L332.22,66.44 L327.6,81.2 L323.61,81.2 L320.16,71.12 L316.77,81.2 L312.72,81.2 L308.01,66.44 L312.21,66.44 L314.94,75.92 L318.15,66.44 Z M338.82,72.71 L338.82,81.2 L334.83,81.2 L334.83,66.44 L338.7,66.44 L338.7,68.27 C339.6,66.74 341.37,66.05 342.96,66.05 C346.62,66.05 348.3,68.66 348.3,71.9 L348.3,81.2 L344.31,81.2 L344.31,72.59 C344.31,70.94 343.5,69.65 341.58,69.65 C339.84,69.65 338.82,71 338.82,72.71 Z M366.84,62.78 C365.94,62.78 364.77,63.17 364.77,64.82 L364.77,66.44 L368.1,66.44 L368.1,69.86 L364.77,69.86 L364.77,81.2 L360.75,81.2 L360.75,69.86 L358.29,69.86 L358.29,66.44 L360.75,66.44 L360.75,64.76 C360.75,61.43 362.85,59.27 366.12,59.27 C366.96,59.27 367.77,59.42 368.1,59.57 L368.1,62.93 C367.89,62.87 367.5,62.78 366.84,62.78 Z M377.1,78.02 C379.05,78.02 380.85,76.61 380.85,73.82 C380.85,71.03 379.05,69.62 377.1,69.62 C375.15,69.62 373.35,71.03 373.35,73.82 C373.35,76.58 375.15,78.02 377.1,78.02 Z M377.1,65.99 C381.51,65.99 384.84,69.26 384.84,73.82 C384.84,78.35 381.51,81.65 377.1,81.65 C372.69,81.65 369.36,78.35 369.36,73.82 C369.36,69.26 372.69,65.99 377.1,65.99 Z M385.77,81.2 L391.02,73.79 L385.77,66.44 L390.51,66.44 C391.02,67.25 392.94,70.01 393.45,70.82 L396.36,66.44 L400.89,66.44 L395.73,73.67 L401.07,81.2 L396.39,81.2 L393.3,76.67 C392.76,77.48 390.78,80.39 390.27,81.2 L385.77,81.2 Z M116.13,123.1 L116.13,107.44 L120.12,107.44 L120.12,123.49 C120.12,126.34 118.35,128.35 115.5,128.35 C114.33,128.35 113.46,128.11 113.25,128.02 L113.25,124.69 C113.52,124.75 113.91,124.84 114.48,124.84 C115.68,124.84 116.13,124.18 116.13,123.1 Z M115.65,102.58 C115.65,101.2 116.76,100.09 118.11,100.09 C119.49,100.09 120.57,101.2 120.57,102.58 C120.57,103.93 119.49,105.01 118.11,105.01 C116.76,105.01 115.65,103.93 115.65,102.58 Z M134.16,122.2 C134.1,121.9 134.04,121.21 134.04,120.61 C133.23,121.99 131.52,122.59 129.96,122.59 C126.39,122.59 124.35,119.98 124.35,116.77 L124.35,107.44 L128.34,107.44 L128.34,115.96 C128.34,117.61 129.18,118.93 131.04,118.93 C132.81,118.93 133.83,117.73 133.83,116.02 L133.83,107.44 L137.82,107.44 L137.82,119.53 C137.82,120.67 137.91,121.69 137.97,122.2 L134.16,122.2 Z M146.19,122.2 L142.2,122.2 L142.2,107.44 L146.01,107.44 L146.01,109.24 C146.82,107.8 148.71,107.02 150.33,107.02 C152.34,107.02 153.96,107.89 154.71,109.48 C155.88,107.68 157.44,107.02 159.39,107.02 C162.12,107.02 164.73,108.67 164.73,112.63 L164.73,122.2 L160.86,122.2 L160.86,113.44 C160.86,111.85 160.08,110.65 158.25,110.65 C156.54,110.65 155.52,111.97 155.52,113.56 L155.52,122.2 L151.56,122.2 L151.56,113.44 C151.56,111.85 150.75,110.65 148.95,110.65 C147.21,110.65 146.19,111.94 146.19,113.56 L146.19,122.2 Z M172.89,127.9 L168.9,127.9 L168.9,107.44 L172.77,107.44 L172.77,109.24 C173.43,108.1 175.08,107.11 177.3,107.11 C181.62,107.11 184.11,110.41 184.11,114.79 C184.11,119.26 181.32,122.56 177.15,122.56 C175.11,122.56 173.61,121.75 172.89,120.76 L172.89,127.9 Z M180.18,114.82 C180.18,112.21 178.56,110.68 176.52,110.68 C174.48,110.68 172.83,112.21 172.83,114.82 C172.83,117.43 174.48,118.99 176.52,118.99 C178.56,118.99 180.18,117.46 180.18,114.82 Z M186.12,118.09 L189.54,117.34 C189.63,118.51 190.5,119.59 192.24,119.59 C193.56,119.59 194.19,118.9 194.19,118.12 C194.19,117.46 193.74,116.92 192.6,116.68 L190.65,116.23 C187.8,115.6 186.51,113.89 186.51,111.82 C186.51,109.18 188.85,106.99 192.03,106.99 C196.23,106.99 197.64,109.66 197.82,111.25 L194.49,112 C194.37,111.13 193.74,110.02 192.06,110.02 C191.01,110.02 190.17,110.65 190.17,111.49 C190.17,112.21 190.71,112.66 191.52,112.81 L193.62,113.26 C196.53,113.86 198,115.63 198,117.79 C198,120.19 196.14,122.65 192.27,122.65 C187.83,122.65 186.3,119.77 186.12,118.09 Z M215.49,119.02 C217.44,119.02 219.24,117.61 219.24,114.82 C219.24,112.03 217.44,110.62 215.49,110.62 C213.54,110.62 211.74,112.03 211.74,114.82 C211.74,117.58 213.54,119.02 215.49,119.02 Z M215.49,106.99 C219.9,106.99 223.23,110.26 223.23,114.82 C223.23,119.35 219.9,122.65 215.49,122.65 C211.08,122.65 207.75,119.35 207.75,114.82 C207.75,110.26 211.08,106.99 215.49,106.99 Z M239.97,107.44 L234.24,122.2 L230.25,122.2 L224.22,107.44 L228.6,107.44 L232.26,117.34 L235.77,107.44 L239.97,107.44 Z M244.98,113.14 L251.58,113.14 C251.52,111.67 250.56,110.23 248.28,110.23 C246.21,110.23 245.07,111.79 244.98,113.14 Z M251.97,116.98 L255.3,117.97 C254.55,120.52 252.21,122.65 248.58,122.65 C244.53,122.65 240.96,119.74 240.96,114.76 C240.96,110.05 244.44,106.99 248.22,106.99 C252.78,106.99 255.51,109.9 255.51,114.64 C255.51,115.21 255.45,115.81 255.45,115.87 L244.89,115.87 C244.98,117.82 246.63,119.23 248.61,119.23 C250.47,119.23 251.49,118.3 251.97,116.98 Z M267.78,107.38 L267.78,111.4 C267.33,111.31 266.94,111.28 266.58,111.28 C264.54,111.28 262.77,112.27 262.77,115.45 L262.77,122.2 L258.78,122.2 L258.78,107.44 L262.65,107.44 L262.65,109.63 C263.55,107.68 265.59,107.32 266.85,107.32 C267.18,107.32 267.48,107.35 267.78,107.38 Z M283.08,103.03 L283.08,107.44 L286.05,107.44 L286.05,110.98 L283.08,110.98 L283.08,117.16 C283.08,118.45 283.68,118.87 284.82,118.87 C285.3,118.87 285.84,118.81 286.05,118.75 L286.05,122.05 C285.69,122.2 284.97,122.41 283.8,122.41 C280.92,122.41 279.12,120.7 279.12,117.85 L279.12,110.98 L276.45,110.98 L276.45,107.44 L277.2,107.44 C278.76,107.44 279.48,106.42 279.48,105.1 L279.48,103.03 L283.08,103.03 Z M292.83,113.53 L292.83,122.2 L288.84,122.2 L288.84,100.48 L292.83,100.48 L292.83,108.67 C293.79,107.53 295.41,107.05 296.82,107.05 C300.57,107.05 302.31,109.66 302.31,112.9 L302.31,122.2 L298.32,122.2 L298.32,113.59 C298.32,111.94 297.51,110.65 295.59,110.65 C293.91,110.65 292.92,111.91 292.83,113.53 Z M309.39,113.14 L315.99,113.14 C315.93,111.67 314.97,110.23 312.69,110.23 C310.62,110.23 309.48,111.79 309.39,113.14 Z M316.38,116.98 L319.71,117.97 C318.96,120.52 316.62,122.65 312.99,122.65 C308.94,122.65 305.37,119.74 305.37,114.76 C305.37,110.05 308.85,106.99 312.63,106.99 C317.19,106.99 319.92,109.9 319.92,114.64 C319.92,115.21 319.86,115.81 319.86,115.87 L309.3,115.87 C309.39,117.82 311.04,119.23 313.02,119.23 C314.88,119.23 315.9,118.3 316.38,116.98 Z M334.71,122.2 L330.72,122.2 L330.72,100.48 L334.71,100.48 L334.71,122.2 Z M338.1,118.18 C338.1,115.54 340.05,114.07 342.51,113.71 L346.14,113.17 C346.98,113.05 347.25,112.63 347.25,112.12 C347.25,111.07 346.44,110.2 344.76,110.2 C343.02,110.2 342.06,111.31 341.94,112.6 L338.4,111.85 C338.64,109.54 340.77,106.99 344.73,106.99 C349.41,106.99 351.15,109.63 351.15,112.6 L351.15,119.86 C351.15,120.64 351.24,121.69 351.33,122.2 L347.67,122.2 C347.58,121.81 347.52,121 347.52,120.43 C346.77,121.6 345.36,122.62 343.17,122.62 C340.02,122.62 338.1,120.49 338.1,118.18 Z M344.01,119.65 C345.69,119.65 347.25,118.84 347.25,116.23 L347.25,115.57 L343.92,116.08 C342.9,116.23 342.09,116.8 342.09,117.94 C342.09,118.81 342.72,119.65 344.01,119.65 Z M366.48,122.2 L354.27,122.2 L354.27,118.69 L361.26,110.89 L354.45,110.89 L354.45,107.44 L366.36,107.44 L366.36,110.77 L359.16,118.72 L366.48,118.72 L366.48,122.2 Z M375.03,128.02 L370.8,128.02 L374.28,120.34 L368.01,107.44 L372.48,107.44 L376.41,116.08 L380.04,107.44 L384.3,107.44 L375.03,128.02 Z M408.45,100.48 L408.45,119.53 C408.45,120.52 408.51,121.6 408.57,122.2 L404.76,122.2 C404.7,121.9 404.61,121.18 404.61,120.49 C403.95,121.66 402.45,122.56 400.47,122.56 C396.27,122.56 393.27,119.26 393.27,114.79 C393.27,110.47 396.18,107.08 400.35,107.08 C402.9,107.08 404.1,108.13 404.52,108.91 L404.52,100.48 L408.45,100.48 Z M397.29,114.79 C397.29,117.43 398.85,118.99 400.95,118.99 C402.99,118.99 404.58,117.43 404.58,114.76 C404.58,112.12 402.99,110.65 400.95,110.65 C398.91,110.65 397.29,112.15 397.29,114.79 Z M419.52,119.02 C421.47,119.02 423.27,117.61 423.27,114.82 C423.27,112.03 421.47,110.62 419.52,110.62 C417.57,110.62 415.77,112.03 415.77,114.82 C415.77,117.58 417.57,119.02 419.52,119.02 Z M419.52,106.99 C423.93,106.99 427.26,110.26 427.26,114.82 C427.26,119.35 423.93,122.65 419.52,122.65 C415.11,122.65 411.78,119.35 411.78,114.82 C411.78,110.26 415.11,106.99 419.52,106.99 Z M429.48,123.01 L433.08,122.05 C433.35,123.67 434.64,124.84 436.53,124.84 C439.05,124.84 440.46,123.58 440.46,120.73 L440.46,119.65 C439.86,120.61 438.48,121.54 436.35,121.54 C432.42,121.54 429.48,118.51 429.48,114.37 C429.48,110.47 432.3,107.17 436.35,107.17 C438.69,107.17 440.04,108.19 440.55,109.18 L440.55,107.44 L444.39,107.44 L444.39,120.61 C444.39,124.66 442.2,128.35 436.65,128.35 C432.6,128.35 429.9,125.83 429.48,123.01 Z M437.04,118.12 C439.08,118.12 440.52,116.65 440.52,114.37 C440.52,112.09 438.96,110.65 437.04,110.65 C435.06,110.65 433.5,112.09 433.5,114.37 C433.5,116.68 434.97,118.12 437.04,118.12 Z" id="The-quick-brown-fox-Copy-5"></path>
        </g>
    </g>
</svg>