<?xml version="1.0" encoding="UTF-8"?>
<svg width="311px" height="67px" viewBox="0 0 311 67" version="1.1" xmlns="http://www.w3.org/2000/svg" xmlns:xlink="http://www.w3.org/1999/xlink">
    <!-- Generator: Sketch 53 (72520) - https://sketchapp.com -->
    <title>Logo1</title>
    <desc>Created with Sketch.</desc>
    <defs>
        <path d="M68.9565873,50.7410989 L42.3163294,18.3748764 C41.2633914,17.0956236 39.3727773,16.9121592 38.0935245,17.9650972 C37.9440276,18.0881463 37.8067944,18.2253795 37.6837452,18.3748764 L11.0434874,50.7410989 C8.91952941,53.3215503 5.02522325,53.75543 2.34564343,51.7100458 C-0.333936392,49.6646615 -0.784483646,45.9144214 1.33965119,43.3339699 L35.1480308,2.25883192 C36.3224254,0.831986057 38.1095785,0 40.0000373,0 C41.890673,0 43.6776492,0.831986057 44.8518669,2.25883192 L78.6604234,43.3339699 C80.7843814,45.9144214 80.334011,49.6646615 77.6544312,51.7100458 C76.5166534,52.5783162 75.1597049,52.9999308 73.8126623,52.9999308 C71.9867696,53.0001011 70.1787431,52.2260338 68.9565873,50.7410989 Z" id="path-1"></path>
    </defs>
    <g id="Page-1" stroke="none" stroke-width="1" fill="none" fill-rule="evenodd">
        <g id="Desktop-Copy" transform="translate(-357.000000, -774.000000)">
            <g id="Logo1" transform="translate(357.000000, 774.000000)">
                <path d="M92.6695968,48.9011213 C88.8898467,45.1219655 87,39.7265046 87,32.714577 L87,5.94189602 L97.9996969,5.94189602 L97.9996969,32.304791 C97.9996969,40.8648066 101.530428,45.1447503 108.591998,45.1447503 C112.032249,45.1447503 114.657665,44.1089128 116.468324,42.0372069 C118.278982,39.965501 119.184298,36.7213948 119.184298,32.304791 L119.184298,5.94189602 L130.048196,5.94189602 L130.048196,32.714577 C130.048196,39.7265046 128.15835,45.1219655 124.3786,48.9011213 C120.598849,52.6802771 115.314069,54.5698267 108.524098,54.5698267 C101.734128,54.5698267 96.449347,52.6802771 92.6695968,48.9011213 Z M171.025462,18.8160041 C173.80935,20.386858 175.993424,22.5951268 177.577751,25.4408767 C179.162077,28.2866265 179.954229,31.5990297 179.954229,35.3781855 C179.954229,39.1573414 179.162077,42.4697445 177.577751,45.3154944 C175.993424,48.1612443 173.80935,50.369513 171.025462,51.940367 C168.241574,53.5112209 165.152184,54.2966361 161.757199,54.2966361 C157.094753,54.2966361 153.428224,52.8168683 150.757502,49.8572885 L150.757502,67 L140.165202,67 L140.165202,17.0061162 L150.282207,17.0061162 L150.282207,21.2405708 C152.907662,18.053331 156.732621,16.459735 161.757199,16.459735 C165.152184,16.459735 168.241574,17.2451501 171.025462,18.8160041 Z M166.612004,42.7884811 C168.354763,40.9444352 169.226129,38.4743614 169.226129,35.3781855 C169.226129,32.2820097 168.354763,29.8119358 166.612004,27.9678899 C164.869245,26.123844 162.639904,25.2018349 159.923916,25.2018349 C157.207928,25.2018349 154.978588,26.123844 153.235829,27.9678899 C151.49307,29.8119358 150.621704,32.2820097 150.621704,35.3781855 C150.621704,38.4743614 151.49307,40.9444352 153.235829,42.7884811 C154.978588,44.6325271 157.207928,45.5545362 159.923916,45.5545362 C162.639904,45.5545362 164.869245,44.6325271 166.612004,42.7884811 Z M187.015762,3.0733945 L197.608063,3.0733945 L197.608063,53.7502548 L187.015762,53.7502548 L187.015762,3.0733945 Z M207.453471,17.0061162 L218.045771,17.0061162 L218.045771,53.7502548 L207.453471,53.7502548 L207.453471,17.0061162 Z M207.996666,10.1763507 C206.774471,9.03805071 206.163383,7.62657995 206.163383,5.94189602 C206.163383,4.2572121 206.774471,2.84574134 207.996666,1.70744139 C209.21886,0.569141437 210.803163,0 212.749621,0 C214.696079,0 216.280382,0.54637578 217.502577,1.63914373 C218.724771,2.73191168 219.335859,4.09785113 219.335859,5.73700306 C219.335859,7.51275098 218.724771,8.98113589 217.502577,10.1422018 C216.280382,11.3032678 214.696079,11.883792 212.749621,11.883792 C210.803163,11.883792 209.21886,11.3146506 207.996666,10.1763507 Z M261.060018,20.5575943 C263.843906,23.2895142 265.235829,27.3418012 265.235829,32.714577 L265.235829,53.7502548 L254.643528,53.7502548 L254.643528,34.3537207 C254.643528,31.4396728 254.009807,29.2655525 252.742346,27.8312946 C251.474885,26.3970367 249.641621,25.6799185 247.242498,25.6799185 C244.571776,25.6799185 242.444284,26.5108649 240.859958,28.1727829 C239.275631,29.8347008 238.48348,32.3047746 238.48348,35.5830785 L238.48348,53.7502548 L227.891179,53.7502548 L227.891179,17.0061162 L238.008184,17.0061162 L238.008184,21.3088685 C239.411445,19.7607806 241.154178,18.5655836 243.236435,17.7232416 C245.318693,16.8808996 247.604615,16.459735 250.094271,16.459735 C254.620918,16.459735 258.27613,17.8256744 261.060018,20.5575943 Z M310.796302,38.3832824 L283.161261,38.3832824 C283.659192,40.6598823 284.836103,42.4583692 286.692028,43.7787971 C288.547953,45.0992251 290.856508,45.7594292 293.617763,45.7594292 C295.518955,45.7594292 297.205105,45.4748584 298.676266,44.9057085 C300.147426,44.3365585 301.516716,43.437315 302.784177,42.2079511 L308.419824,48.3547401 C304.979573,52.3160239 299.95507,54.2966361 293.346166,54.2966361 C289.226917,54.2966361 285.583021,53.4884552 282.414368,51.8720693 C279.245715,50.2556834 276.801363,48.0132661 275.081237,45.1447503 C273.361111,42.2762344 272.501061,39.0207454 272.501061,35.3781855 C272.501061,31.7811577 273.349794,28.5370515 275.047287,25.6457696 C276.74478,22.7544878 279.075968,20.5006877 282.040921,18.8843017 C285.005875,17.2679158 288.321594,16.459735 291.988178,16.459735 C295.564229,16.459735 298.800733,17.2337673 301.697787,18.7818552 C304.594841,20.3299432 306.869447,22.5495948 308.521673,25.4408767 C310.173899,28.3321585 311,31.690093 311,35.5147808 C311,35.6513768 310.932101,36.6075344 310.796302,38.3832824 Z M286.013034,26.567788 C284.383441,27.9337479 283.387594,29.8005318 283.025462,32.1681957 L301.018794,32.1681957 C300.656662,29.8460638 299.660814,27.9906627 298.031222,26.6019368 C296.401629,25.2132109 294.409934,24.5188583 292.056078,24.5188583 C289.656955,24.5188583 287.642627,25.201828 286.013034,26.567788 Z" id="Upline" fill="#0157FF"></path>
                <g id="Oval-2" transform="translate(0.000000, 7.000000)">
                    <path d="M40.821653,40.0241041 L48.6252993,51.2756077 C48.9400509,51.7294247 48.827316,52.3524727 48.3734989,52.6672242 C48.2061217,52.7833111 48.007285,52.8455157 47.8035909,52.8455157 L32.1962982,52.8455157 C31.6440134,52.8455157 31.1962982,52.3978004 31.1962982,51.8455157 C31.1962982,51.6418215 31.2585028,51.4429849 31.3745897,51.2756077 L39.178236,40.0241041 C39.4929876,39.570287 40.1160355,39.4575521 40.5698526,39.7723036 C40.6681748,39.8404965 40.7534602,39.9257819 40.821653,40.0241041 Z" id="Triangle" fill="#0157FF"></path>
                    <mask id="mask-2" fill="white">
                        <use xlink:href="#path-1"></use>
                    </mask>
                    <use id="Mask" fill="#0157FF" xlink:href="#path-1"></use>
                    <ellipse fill="#FFFFFF" opacity="0.2" mask="url(#mask-2)" cx="5" cy="36.1363636" rx="17.5" ry="16.8636364"></ellipse>
                </g>
            </g>
        </g>
    </g>
</svg>