<?xml version="1.0" encoding="UTF-8"?>
<svg width="368px" height="67px" viewBox="0 0 368 67" version="1.1" xmlns="http://www.w3.org/2000/svg" xmlns:xlink="http://www.w3.org/1999/xlink">
    <!-- Generator: Sketch 53 (72520) - https://sketchapp.com -->
    <title>Thequickbrownfoxjumpsoverthelazydog</title>
    <desc>Created with Sketch.</desc>
    <g id="Page-1" stroke="none" stroke-width="1" fill="none" fill-rule="evenodd">
        <g id="Desktop-Copy" transform="translate(-605.000000, -394.000000)" fill="#262626" fill-rule="nonzero">
            <path d="M614.612,400.528 L608.116,400.528 L608.116,396.7 L625.806,396.7 L625.806,400.528 L619.31,400.528 L619.31,417 L614.612,417 L614.612,400.528 Z M637.609,401.166 C639.542343,401.166 641.103494,401.745994 642.2925,402.906 C643.481506,404.066006 644.076,405.786655 644.076,408.068 L644.076,417 L639.552,417 L639.552,408.764 C639.552,407.52666 639.281336,406.603503 638.74,405.9945 C638.198664,405.385497 637.415672,405.081 636.391,405.081 C635.250328,405.081 634.34167,405.43383 633.665,406.1395 C632.98833,406.84517 632.65,407.893993 632.65,409.286 L632.65,417 L628.126,417 L628.126,395.482 L632.65,395.482 L632.65,403.022 C633.249336,402.422664 633.974329,401.963502 634.825,401.6445 C635.675671,401.325498 636.603662,401.166 637.609,401.166 Z M663.738,409.257 C663.738,409.315 663.709,409.720996 663.651,410.475 L651.848,410.475 C652.060668,411.441671 652.563329,412.205331 653.356,412.766 C654.148671,413.326669 655.134661,413.607 656.314,413.607 C657.126004,413.607 657.846164,413.486168 658.4745,413.2445 C659.102836,413.002832 659.687664,412.621003 660.229,412.099 L662.636,414.709 C661.166659,416.391008 659.020681,417.232 656.198,417.232 C654.438658,417.232 652.88234,416.888837 651.529,416.2025 C650.17566,415.516163 649.13167,414.564006 648.397,413.346 C647.66233,412.127994 647.295,410.745674 647.295,409.199 C647.295,407.671659 647.657496,406.294173 648.3825,405.0665 C649.107504,403.838827 650.10316,402.881837 651.3695,402.1955 C652.63584,401.509163 654.051992,401.166 655.618,401.166 C657.145341,401.166 658.52766,401.494663 659.765,402.152 C661.00234,402.809337 661.97383,403.751827 662.6795,404.9795 C663.38517,406.207173 663.738,407.632992 663.738,409.257 Z M655.647,404.588 C654.622328,404.588 653.762003,404.877997 653.066,405.458 C652.369997,406.038003 651.944667,406.830662 651.79,407.836 L659.475,407.836 C659.320333,406.849995 658.895003,406.06217 658.199,405.4725 C657.502997,404.88283 656.652338,404.588 655.647,404.588 Z M691.027,401.398 L691.027,422.626 L686.503,422.626 L686.503,415.347 C685.381661,416.603673 683.825343,417.232 681.834,417.232 C680.364659,417.232 679.035506,416.903337 677.8465,416.246 C676.657494,415.588663 675.72467,414.651006 675.048,413.433 C674.37133,412.214994 674.033,410.803675 674.033,409.199 C674.033,407.594325 674.37133,406.183006 675.048,404.965 C675.72467,403.746994 676.657494,402.809337 677.8465,402.152 C679.035506,401.494663 680.364659,401.166 681.834,401.166 C683.960677,401.166 685.584661,401.84266 686.706,403.196 L686.706,401.398 L691.027,401.398 Z M682.617,413.52 C683.757672,413.52 684.704996,413.128504 685.459,412.3455 C686.213004,411.562496 686.59,410.513673 686.59,409.199 C686.59,407.884327 686.213004,406.835504 685.459,406.0525 C684.704996,405.269496 683.757672,404.878 682.617,404.878 C681.456994,404.878 680.500004,405.269496 679.746,406.0525 C678.991996,406.835504 678.615,407.884327 678.615,409.199 C678.615,410.513673 678.991996,411.562496 679.746,412.3455 C680.500004,413.128504 681.456994,413.52 682.617,413.52 Z M711.037,401.398 L711.037,417 L706.745,417 L706.745,415.144 C706.145664,415.82067 705.430337,416.337832 704.599,416.6955 C703.767662,417.053168 702.868671,417.232 701.902,417.232 C699.852656,417.232 698.228673,416.642339 697.03,415.463 C695.831327,414.283661 695.232,412.534012 695.232,410.214 L695.232,401.398 L699.756,401.398 L699.756,409.547 C699.756,412.060346 700.809656,413.317 702.917,413.317 C703.999672,413.317 704.869663,412.96417 705.527,412.2585 C706.184337,411.55283 706.513,410.504007 706.513,409.112 L706.513,401.398 L711.037,401.398 Z M715.358,401.398 L719.882,401.398 L719.882,417 L715.358,417 L715.358,401.398 Z M717.62,399.223 C716.788662,399.223 716.112003,398.981336 715.59,398.498 C715.067997,398.014664 714.807,397.415337 714.807,396.7 C714.807,395.984663 715.067997,395.385336 715.59,394.902 C716.112003,394.418664 716.788662,394.177 717.62,394.177 C718.451337,394.177 719.127997,394.408998 719.65,394.873 C720.172003,395.337002 720.433,395.916997 720.433,396.613 C720.433,397.367004 720.172003,397.990498 719.65,398.4835 C719.127997,398.976502 718.451337,399.223 717.62,399.223 Z M731.743,417.232 C730.080325,417.232 728.58684,416.888837 727.2625,416.2025 C725.93816,415.516163 724.903837,414.564006 724.1595,413.346 C723.415163,412.127994 723.043,410.745674 723.043,409.199 C723.043,407.652326 723.415163,406.270006 724.1595,405.052 C724.903837,403.833994 725.93816,402.881837 727.2625,402.1955 C728.58684,401.509163 730.080325,401.166 731.743,401.166 C733.386342,401.166 734.821827,401.509163 736.0495,402.1955 C737.277173,402.881837 738.171331,403.862994 738.732,405.139 L735.223,407.024 C734.410996,405.593326 733.241341,404.878 731.714,404.878 C730.534661,404.878 729.558337,405.264663 728.785,406.038 C728.011663,406.811337 727.625,407.864993 727.625,409.199 C727.625,410.533007 728.011663,411.586663 728.785,412.36 C729.558337,413.133337 730.534661,413.52 731.714,413.52 C733.260674,413.52 734.430329,412.804674 735.223,411.374 L738.732,413.288 C738.171331,414.52534 737.277173,415.491997 736.0495,416.188 C734.821827,416.884003 733.386342,417.232 731.743,417.232 Z M748.041,410.881 L745.866,413.027 L745.866,417 L741.342,417 L741.342,395.482 L745.866,395.482 L745.866,407.662 L752.478,401.398 L757.872,401.398 L751.376,408.01 L758.452,417 L752.971,417 L748.041,410.881 Z M778.143,401.166 C779.593007,401.166 780.912494,401.499497 782.1015,402.1665 C783.290506,402.833503 784.22333,403.771161 784.9,404.9795 C785.57667,406.187839 785.915,407.594325 785.915,409.199 C785.915,410.803675 785.57667,412.210161 784.9,413.4185 C784.22333,414.626839 783.290506,415.564497 782.1015,416.2315 C780.912494,416.898503 779.593007,417.232 778.143,417.232 C775.996989,417.232 774.363339,416.55534 773.242,415.202 L773.242,417 L768.921,417 L768.921,395.482 L773.445,395.482 L773.445,403.051 C774.585672,401.794327 776.151657,401.166 778.143,401.166 Z M777.36,413.52 C778.520006,413.52 779.472163,413.128504 780.2165,412.3455 C780.960837,411.562496 781.333,410.513673 781.333,409.199 C781.333,407.884327 780.960837,406.835504 780.2165,406.0525 C779.472163,405.269496 778.520006,404.878 777.36,404.878 C776.199994,404.878 775.247837,405.269496 774.5035,406.0525 C773.759163,406.835504 773.387,407.884327 773.387,409.199 C773.387,410.513673 773.759163,411.562496 774.5035,412.3455 C775.247837,413.128504 776.199994,413.52 777.36,413.52 Z M793.368,403.457 C793.909336,402.702996 794.639162,402.132669 795.5575,401.746 C796.475838,401.359331 797.534327,401.166 798.733,401.166 L798.733,405.342 C798.230331,405.303333 797.892001,405.284 797.718,405.284 C796.42266,405.284 795.40767,405.646496 794.673,406.3715 C793.93833,407.096504 793.571,408.183993 793.571,409.634 L793.571,417 L789.047,417 L789.047,401.398 L793.368,401.398 L793.368,403.457 Z M808.825,417.232 C807.181658,417.232 805.707506,416.888837 804.4025,416.2025 C803.097493,415.516163 802.07767,414.564006 801.343,413.346 C800.60833,412.127994 800.241,410.745674 800.241,409.199 C800.241,407.652326 800.60833,406.270006 801.343,405.052 C802.07767,403.833994 803.097493,402.881837 804.4025,402.1955 C805.707506,401.509163 807.181658,401.166 808.825,401.166 C810.468342,401.166 811.93766,401.509163 813.233,402.1955 C814.52834,402.881837 815.54333,403.833994 816.278,405.052 C817.01267,406.270006 817.38,407.652326 817.38,409.199 C817.38,410.745674 817.01267,412.127994 816.278,413.346 C815.54333,414.564006 814.52834,415.516163 813.233,416.2025 C811.93766,416.888837 810.468342,417.232 808.825,417.232 Z M808.825,413.52 C809.985006,413.52 810.937163,413.128504 811.6815,412.3455 C812.425837,411.562496 812.798,410.513673 812.798,409.199 C812.798,407.884327 812.425837,406.835504 811.6815,406.0525 C810.937163,405.269496 809.985006,404.878 808.825,404.878 C807.664994,404.878 806.708004,405.269496 805.954,406.0525 C805.199996,406.835504 804.823,407.884327 804.823,409.199 C804.823,410.513673 805.199996,411.562496 805.954,412.3455 C806.708004,413.128504 807.664994,413.52 808.825,413.52 Z M845.133,401.398 L839.478,417 L835.128,417 L831.619,407.314 L827.994,417 L823.644,417 L818.018,401.398 L822.281,401.398 L825.964,411.954 L829.792,401.398 L833.62,401.398 L837.332,411.954 L841.131,401.398 L845.133,401.398 Z M856.849,401.166 C858.782343,401.166 860.343494,401.745994 861.5325,402.906 C862.721506,404.066006 863.316,405.786655 863.316,408.068 L863.316,417 L858.792,417 L858.792,408.764 C858.792,407.52666 858.521336,406.603503 857.98,405.9945 C857.438664,405.385497 856.655672,405.081 855.631,405.081 C854.490328,405.081 853.58167,405.43383 852.905,406.1395 C852.22833,406.84517 851.89,407.893993 851.89,409.286 L851.89,417 L847.366,417 L847.366,401.398 L851.687,401.398 L851.687,403.225 C852.286336,402.567663 853.030662,402.060168 853.92,401.7025 C854.809338,401.344832 855.785661,401.166 856.849,401.166 Z M880.803,401.746 L884.805,401.746 L884.805,405.226 L880.919,405.226 L880.919,417 L876.395,417 L876.395,405.226 L873.988,405.226 L873.988,401.746 L876.395,401.746 L876.395,401.05 C876.395,399.271324 876.921828,397.860005 877.9755,396.816 C879.029172,395.771995 880.51299,395.25 882.427,395.25 C883.10367,395.25 883.746497,395.322499 884.3555,395.4675 C884.964503,395.612501 885.471998,395.820332 885.878,396.091 L884.689,399.368 C884.166997,399.000665 883.558003,398.817 882.862,398.817 C881.489326,398.817 880.803,399.570992 880.803,401.079 L880.803,401.746 Z M894.404,417.232 C892.760658,417.232 891.286506,416.888837 889.9815,416.2025 C888.676493,415.516163 887.65667,414.564006 886.922,413.346 C886.18733,412.127994 885.82,410.745674 885.82,409.199 C885.82,407.652326 886.18733,406.270006 886.922,405.052 C887.65667,403.833994 888.676493,402.881837 889.9815,402.1955 C891.286506,401.509163 892.760658,401.166 894.404,401.166 C896.047341,401.166 897.51666,401.509163 898.812,402.1955 C900.10734,402.881837 901.12233,403.833994 901.857,405.052 C902.59167,406.270006 902.959,407.652326 902.959,409.199 C902.959,410.745674 902.59167,412.127994 901.857,413.346 C901.12233,414.564006 900.10734,415.516163 898.812,416.2025 C897.51666,416.888837 896.047341,417.232 894.404,417.232 Z M894.404,413.52 C895.564006,413.52 896.516163,413.128504 897.2605,412.3455 C898.004837,411.562496 898.377,410.513673 898.377,409.199 C898.377,407.884327 898.004837,406.835504 897.2605,406.0525 C896.516163,405.269496 895.564006,404.878 894.404,404.878 C893.243994,404.878 892.287004,405.269496 891.533,406.0525 C890.778996,406.835504 890.402,407.884327 890.402,409.199 C890.402,410.513673 890.778996,411.562496 891.533,412.3455 C892.287004,413.128504 893.243994,413.52 894.404,413.52 Z M915.516,417 L912.094,412.215 L908.556,417 L903.626,417 L909.629,409.141 L903.829,401.398 L908.904,401.398 L912.21,405.951 L915.603,401.398 L920.417,401.398 L914.617,409.025 L920.649,417 L915.516,417 Z M608.928,460.858 C607.342659,460.858 606.134337,460.568003 605.303,459.988 L606.521,456.711 C607.043003,457.078335 607.680996,457.262 608.435,457.262 C609.015003,457.262 609.469332,457.073502 609.798,456.6965 C610.126668,456.319498 610.291,455.754004 610.291,455 L610.291,439.398 L614.815,439.398 L614.815,454.971 C614.815,456.788342 614.297839,458.223828 613.2635,459.2775 C612.229161,460.331172 610.784009,460.858 608.928,460.858 Z M612.553,437.223 C611.721663,437.223 611.045003,436.981336 610.523,436.498 C610.000997,436.014664 609.74,435.415337 609.74,434.7 C609.74,433.984663 610.000997,433.385336 610.523,432.902 C611.045003,432.418664 611.721663,432.177 612.553,432.177 C613.384337,432.177 614.060997,432.408998 614.583,432.873 C615.105003,433.337002 615.366,433.916997 615.366,434.613 C615.366,435.367004 615.105003,435.990498 614.583,436.4835 C614.060997,436.976502 613.384337,437.223 612.553,437.223 Z M634.825,439.398 L634.825,455 L630.533,455 L630.533,453.144 C629.933664,453.82067 629.218337,454.337832 628.387,454.6955 C627.555663,455.053168 626.656671,455.232 625.69,455.232 C623.640656,455.232 622.016673,454.642339 620.818,453.463 C619.619327,452.283661 619.02,450.534012 619.02,448.214 L619.02,439.398 L623.544,439.398 L623.544,447.547 C623.544,450.060346 624.597656,451.317 626.705,451.317 C627.787672,451.317 628.657663,450.96417 629.315,450.2585 C629.972337,449.55283 630.301,448.504007 630.301,447.112 L630.301,439.398 L634.825,439.398 Z M659.127,439.166 C661.079676,439.166 662.631161,439.741161 663.7815,440.8915 C664.931839,442.041839 665.507,443.767322 665.507,446.068 L665.507,455 L660.983,455 L660.983,446.764 C660.983,445.52666 660.726836,444.603503 660.2145,443.9945 C659.702164,443.385497 658.972338,443.081 658.025,443.081 C656.961661,443.081 656.12067,443.424163 655.502,444.1105 C654.88333,444.796837 654.574,445.81666 654.574,447.17 L654.574,455 L650.05,455 L650.05,446.764 C650.05,444.308654 649.06401,443.081 647.092,443.081 C646.047995,443.081 645.21667,443.424163 644.598,444.1105 C643.97933,444.796837 643.67,445.81666 643.67,447.17 L643.67,455 L639.146,455 L639.146,439.398 L643.467,439.398 L643.467,441.196 C644.047003,440.538663 644.757496,440.036002 645.5985,439.688 C646.439504,439.339998 647.362662,439.166 648.368,439.166 C649.470006,439.166 650.465662,439.383498 651.355,439.8185 C652.244338,440.253502 652.959664,440.886663 653.501,441.718 C654.139003,440.905996 654.946162,440.277669 655.9225,439.833 C656.898838,439.388331 657.966994,439.166 659.127,439.166 Z M678.905,439.166 C680.355007,439.166 681.674494,439.499497 682.8635,440.1665 C684.052506,440.833503 684.98533,441.771161 685.662,442.9795 C686.33867,444.187839 686.677,445.594325 686.677,447.199 C686.677,448.803675 686.33867,450.210161 685.662,451.4185 C684.98533,452.626839 684.052506,453.564497 682.8635,454.2315 C681.674494,454.898503 680.355007,455.232 678.905,455.232 C676.913657,455.232 675.347672,454.603673 674.207,453.347 L674.207,460.626 L669.683,460.626 L669.683,439.398 L674.004,439.398 L674.004,441.196 C675.125339,439.84266 676.758989,439.166 678.905,439.166 Z M678.122,451.52 C679.282006,451.52 680.234163,451.128504 680.9785,450.3455 C681.722837,449.562496 682.095,448.513673 682.095,447.199 C682.095,445.884327 681.722837,444.835504 680.9785,444.0525 C680.234163,443.269496 679.282006,442.878 678.122,442.878 C676.961994,442.878 676.009837,443.269496 675.2655,444.0525 C674.521163,444.835504 674.149,445.884327 674.149,447.199 C674.149,448.513673 674.521163,449.562496 675.2655,450.3455 C676.009837,451.128504 676.961994,451.52 678.122,451.52 Z M695.058,455.232 C693.76266,455.232 692.49634,455.072502 691.259,454.7535 C690.02166,454.434498 689.03567,454.033336 688.301,453.55 L689.809,450.302 C690.505003,450.746669 691.345995,451.109165 692.332,451.3895 C693.318005,451.669835 694.284662,451.81 695.232,451.81 C697.14601,451.81 698.103,451.336338 698.103,450.389 C698.103,449.944331 697.842003,449.625334 697.32,449.432 C696.797997,449.238666 695.995672,449.074334 694.913,448.939 C693.636994,448.745666 692.583337,448.523335 691.752,448.272 C690.920662,448.020665 690.200503,447.576003 689.5915,446.938 C688.982497,446.299997 688.678,445.391339 688.678,444.212 C688.678,443.225995 688.963164,442.35117 689.5335,441.5875 C690.103836,440.82383 690.935161,440.229335 692.0275,439.804 C693.119839,439.378665 694.410326,439.166 695.899,439.166 C697.001005,439.166 698.098161,439.286832 699.1905,439.5285 C700.282839,439.770168 701.186663,440.103665 701.902,440.529 L700.394,443.748 C699.021326,442.974663 697.523008,442.588 695.899,442.588 C694.932328,442.588 694.207336,442.723332 693.724,442.994 C693.240664,443.264668 692.999,443.612665 692.999,444.038 C692.999,444.521336 693.259997,444.859666 693.782,445.053 C694.304003,445.246334 695.135328,445.429999 696.276,445.604 C697.552006,445.816668 698.595996,446.043832 699.408,446.2855 C700.220004,446.527168 700.925664,446.966997 701.525,447.605 C702.124336,448.243003 702.424,449.132328 702.424,450.273 C702.424,451.239671 702.134003,452.099996 701.554,452.854 C700.973997,453.608004 700.128172,454.192831 699.0165,454.6085 C697.904828,455.024169 696.585341,455.232 695.058,455.232 Z M721.071,455.232 C719.427658,455.232 717.953507,454.888837 716.6485,454.2025 C715.343493,453.516163 714.32367,452.564006 713.589,451.346 C712.85433,450.127994 712.487,448.745674 712.487,447.199 C712.487,445.652326 712.85433,444.270006 713.589,443.052 C714.32367,441.833994 715.343493,440.881837 716.6485,440.1955 C717.953507,439.509163 719.427658,439.166 721.071,439.166 C722.714342,439.166 724.18366,439.509163 725.479,440.1955 C726.77434,440.881837 727.78933,441.833994 728.524,443.052 C729.25867,444.270006 729.626,445.652326 729.626,447.199 C729.626,448.745674 729.25867,450.127994 728.524,451.346 C727.78933,452.564006 726.77434,453.516163 725.479,454.2025 C724.18366,454.888837 722.714342,455.232 721.071,455.232 Z M721.071,451.52 C722.231006,451.52 723.183163,451.128504 723.9275,450.3455 C724.671837,449.562496 725.044,448.513673 725.044,447.199 C725.044,445.884327 724.671837,444.835504 723.9275,444.0525 C723.183163,443.269496 722.231006,442.878 721.071,442.878 C719.910994,442.878 718.954004,443.269496 718.2,444.0525 C717.445996,444.835504 717.069,445.884327 717.069,447.199 C717.069,448.513673 717.445996,449.562496 718.2,450.3455 C718.954004,451.128504 719.910994,451.52 721.071,451.52 Z M747.809,439.398 L741.226,455 L736.557,455 L730.003,439.398 L734.672,439.398 L738.993,450.012 L743.459,439.398 L747.809,439.398 Z M764.629,447.257 C764.629,447.315 764.6,447.720996 764.542,448.475 L752.739,448.475 C752.951668,449.441671 753.454329,450.205331 754.247,450.766 C755.039671,451.326669 756.025661,451.607 757.205,451.607 C758.017004,451.607 758.737163,451.486168 759.3655,451.2445 C759.993836,451.002832 760.578664,450.621003 761.12,450.099 L763.527,452.709 C762.057659,454.391008 759.911681,455.232 757.089,455.232 C755.329658,455.232 753.77334,454.888837 752.42,454.2025 C751.06666,453.516163 750.02267,452.564006 749.288,451.346 C748.55333,450.127994 748.186,448.745674 748.186,447.199 C748.186,445.671659 748.548496,444.294173 749.2735,443.0665 C749.998504,441.838827 750.99416,440.881837 752.2605,440.1955 C753.52684,439.509163 754.942992,439.166 756.509,439.166 C758.036341,439.166 759.41866,439.494663 760.656,440.152 C761.893339,440.809337 762.86483,441.751827 763.5705,442.9795 C764.27617,444.207173 764.629,445.632992 764.629,447.257 Z M756.538,442.588 C755.513328,442.588 754.653003,442.877997 753.957,443.458 C753.260996,444.038003 752.835667,444.830662 752.681,445.836 L760.366,445.836 C760.211333,444.849995 759.786003,444.06217 759.09,443.4725 C758.393996,442.88283 757.543338,442.588 756.538,442.588 Z M772.082,441.457 C772.623336,440.702996 773.353162,440.132669 774.2715,439.746 C775.189838,439.359331 776.248327,439.166 777.447,439.166 L777.447,443.342 C776.944331,443.303333 776.606001,443.284 776.432,443.284 C775.13666,443.284 774.12167,443.646496 773.387,444.3715 C772.65233,445.096504 772.285,446.183993 772.285,447.634 L772.285,455 L767.761,455 L767.761,439.398 L772.082,439.398 L772.082,441.457 Z M798.762,454.246 C798.317331,454.574668 797.77117,454.821166 797.1235,454.9855 C796.47583,455.149834 795.794337,455.232 795.079,455.232 C793.222991,455.232 791.787505,454.758338 790.7725,453.811 C789.757495,452.863662 789.25,451.471676 789.25,449.635 L789.25,443.226 L786.843,443.226 L786.843,439.746 L789.25,439.746 L789.25,435.947 L793.774,435.947 L793.774,439.746 L797.66,439.746 L797.66,443.226 L793.774,443.226 L793.774,449.577 C793.774,450.234337 793.943165,450.741832 794.2815,451.0995 C794.619835,451.457168 795.09833,451.636 795.717,451.636 C796.432337,451.636 797.041331,451.442669 797.544,451.056 L798.762,454.246 Z M810.913,439.166 C812.846343,439.166 814.407494,439.745994 815.5965,440.906 C816.785506,442.066006 817.38,443.786655 817.38,446.068 L817.38,455 L812.856,455 L812.856,446.764 C812.856,445.52666 812.585336,444.603503 812.044,443.9945 C811.502664,443.385497 810.719672,443.081 809.695,443.081 C808.554328,443.081 807.64567,443.43383 806.969,444.1395 C806.29233,444.84517 805.954,445.893993 805.954,447.286 L805.954,455 L801.43,455 L801.43,433.482 L805.954,433.482 L805.954,441.022 C806.553336,440.422664 807.278329,439.963502 808.129,439.6445 C808.979671,439.325498 809.907662,439.166 810.913,439.166 Z M837.042,447.257 C837.042,447.315 837.013,447.720996 836.955,448.475 L825.152,448.475 C825.364668,449.441671 825.867329,450.205331 826.66,450.766 C827.452671,451.326669 828.438661,451.607 829.618,451.607 C830.430004,451.607 831.150163,451.486168 831.7785,451.2445 C832.406836,451.002832 832.991664,450.621003 833.533,450.099 L835.94,452.709 C834.470659,454.391008 832.324681,455.232 829.502,455.232 C827.742658,455.232 826.18634,454.888837 824.833,454.2025 C823.47966,453.516163 822.43567,452.564006 821.701,451.346 C820.96633,450.127994 820.599,448.745674 820.599,447.199 C820.599,445.671659 820.961496,444.294173 821.6865,443.0665 C822.411504,441.838827 823.40716,440.881837 824.6735,440.1955 C825.93984,439.509163 827.355992,439.166 828.922,439.166 C830.449341,439.166 831.83166,439.494663 833.069,440.152 C834.306339,440.809337 835.27783,441.751827 835.9835,442.9795 C836.68917,444.207173 837.042,445.632992 837.042,447.257 Z M828.951,442.588 C827.926328,442.588 827.066003,442.877997 826.37,443.458 C825.673996,444.038003 825.248667,444.830662 825.094,445.836 L832.779,445.836 C832.624333,444.849995 832.199003,444.06217 831.503,443.4725 C830.806996,442.88283 829.956338,442.588 828.951,442.588 Z M848.497,433.482 L853.021,433.482 L853.021,455 L848.497,455 L848.497,433.482 Z M863.635,439.166 C866.051679,439.166 867.90766,439.741161 869.203,440.8915 C870.49834,442.041839 871.146,443.776988 871.146,446.097 L871.146,455 L866.912,455 L866.912,453.057 C866.061329,454.507007 864.476012,455.232 862.156,455.232 C860.957327,455.232 859.918171,455.029002 859.0385,454.623 C858.158829,454.216998 857.487002,453.656337 857.023,452.941 C856.558998,452.225663 856.327,451.413671 856.327,450.505 C856.327,449.054993 856.873161,447.914337 857.9655,447.083 C859.057839,446.251663 860.744655,445.836 863.026,445.836 L866.622,445.836 C866.622,444.849995 866.322336,444.091169 865.723,443.5595 C865.123664,443.027831 864.224673,442.762 863.026,442.762 C862.194662,442.762 861.377837,442.892499 860.5755,443.1535 C859.773163,443.414501 859.091669,443.767331 858.531,444.212 L856.907,441.051 C857.757671,440.451664 858.777494,439.987668 859.9665,439.659 C861.155506,439.330332 862.378327,439.166 863.635,439.166 Z M863.287,452.187 C864.060337,452.187 864.746664,452.008168 865.346,451.6505 C865.945336,451.292832 866.370665,450.766003 866.622,450.07 L866.622,448.475 L863.519,448.475 C861.662991,448.475 860.735,449.083994 860.735,450.302 C860.735,450.882003 860.962164,451.341165 861.4165,451.6795 C861.870836,452.017835 862.494329,452.187 863.287,452.187 Z M888.198,451.52 L888.198,455 L874.278,455 L874.278,452.274 L882.224,442.878 L874.481,442.878 L874.481,439.398 L887.937,439.398 L887.937,442.124 L879.991,451.52 L888.198,451.52 Z M906.41,439.398 L899.363,455.957 C898.647663,457.755009 897.763172,459.02133 896.7095,459.756 C895.655828,460.49067 894.384674,460.858 892.896,460.858 C892.083996,460.858 891.281671,460.732335 890.489,460.481 C889.696329,460.229665 889.048669,459.881669 888.546,459.437 L890.199,456.218 C890.547002,456.527335 890.948164,456.768999 891.4025,456.943 C891.856836,457.117001 892.306331,457.204 892.751,457.204 C893.36967,457.204 893.872331,457.054168 894.259,456.7545 C894.645669,456.454832 894.993665,455.957003 895.303,455.261 L895.361,455.116 L888.604,439.398 L893.273,439.398 L897.652,449.983 L902.06,439.398 L906.41,439.398 Z M932.597,433.482 L932.597,455 L928.276,455 L928.276,453.202 C927.154661,454.55534 925.530677,455.232 923.404,455.232 C921.934659,455.232 920.605506,454.903337 919.4165,454.246 C918.227494,453.588663 917.29467,452.651006 916.618,451.433 C915.94133,450.214994 915.603,448.803675 915.603,447.199 C915.603,445.594325 915.94133,444.183006 916.618,442.965 C917.29467,441.746994 918.227494,440.809337 919.4165,440.152 C920.605506,439.494663 921.934659,439.166 923.404,439.166 C925.395343,439.166 926.951661,439.794327 928.073,441.051 L928.073,433.482 L932.597,433.482 Z M924.187,451.52 C925.327672,451.52 926.274996,451.128504 927.029,450.3455 C927.783004,449.562496 928.16,448.513673 928.16,447.199 C928.16,445.884327 927.783004,444.835504 927.029,444.0525 C926.274996,443.269496 925.327672,442.878 924.187,442.878 C923.026994,442.878 922.070004,443.269496 921.316,444.0525 C920.561996,444.835504 920.185,445.884327 920.185,447.199 C920.185,448.513673 920.561996,449.562496 921.316,450.3455 C922.070004,451.128504 923.026994,451.52 924.187,451.52 Z M944.313,455.232 C942.669658,455.232 941.195506,454.888837 939.8905,454.2025 C938.585493,453.516163 937.56567,452.564006 936.831,451.346 C936.09633,450.127994 935.729,448.745674 935.729,447.199 C935.729,445.652326 936.09633,444.270006 936.831,443.052 C937.56567,441.833994 938.585493,440.881837 939.8905,440.1955 C941.195506,439.509163 942.669658,439.166 944.313,439.166 C945.956341,439.166 947.42566,439.509163 948.721,440.1955 C950.01634,440.881837 951.03133,441.833994 951.766,443.052 C952.50067,444.270006 952.868,445.652326 952.868,447.199 C952.868,448.745674 952.50067,450.127994 951.766,451.346 C951.03133,452.564006 950.01634,453.516163 948.721,454.2025 C947.42566,454.888837 945.956341,455.232 944.313,455.232 Z M944.313,451.52 C945.473006,451.52 946.425163,451.128504 947.1695,450.3455 C947.913837,449.562496 948.286,448.513673 948.286,447.199 C948.286,445.884327 947.913837,444.835504 947.1695,444.0525 C946.425163,443.269496 945.473006,442.878 944.313,442.878 C943.152994,442.878 942.196004,443.269496 941.442,444.0525 C940.687996,444.835504 940.311,445.884327 940.311,447.199 C940.311,448.513673 940.687996,449.562496 941.442,450.3455 C942.196004,451.128504 943.152994,451.52 944.313,451.52 Z M972.095,439.398 L972.095,452.39 C972.095,455.251348 971.350674,457.377993 969.862,458.77 C968.373326,460.162007 966.198348,460.858 963.337,460.858 C961.828992,460.858 960.39834,460.674335 959.045,460.307 C957.69166,459.939665 956.570338,459.408003 955.681,458.712 L957.479,455.464 C958.136337,456.005336 958.967662,456.435498 959.973,456.7545 C960.978338,457.073502 961.983662,457.233 962.989,457.233 C964.555008,457.233 965.710163,456.88017 966.4545,456.1745 C967.198837,455.46883 967.571,454.400674 967.571,452.97 L967.571,452.303 C966.391661,453.59834 964.748344,454.246 962.641,454.246 C961.210326,454.246 959.900506,453.931836 958.7115,453.3035 C957.522494,452.675164 956.580003,451.790672 955.884,450.65 C955.187996,449.509328 954.84,448.194674 954.84,446.706 C954.84,445.217326 955.187996,443.902672 955.884,442.762 C956.580003,441.621328 957.522494,440.736836 958.7115,440.1085 C959.900506,439.480164 961.210326,439.166 962.641,439.166 C964.903011,439.166 966.623661,439.910326 967.803,441.399 L967.803,439.398 L972.095,439.398 Z M963.54,450.534 C964.738673,450.534 965.719829,450.18117 966.4835,449.4755 C967.24717,448.76983 967.629,447.846672 967.629,446.706 C967.629,445.565328 967.24717,444.64217 966.4835,443.9365 C965.719829,443.23083 964.738673,442.878 963.54,442.878 C962.341327,442.878 961.355337,443.23083 960.582,443.9365 C959.808663,444.64217 959.422,445.565328 959.422,446.706 C959.422,447.846672 959.808663,448.76983 960.582,449.4755 C961.355337,450.18117 962.341327,450.534 963.54,450.534 Z" id="Thequickbrownfoxjumpsoverthelazydog"></path>
        </g>
    </g>
</svg>