<?xml version="1.0" encoding="UTF-8"?>
<svg width="346px" height="67px" viewBox="0 0 346 67" version="1.1" xmlns="http://www.w3.org/2000/svg" xmlns:xlink="http://www.w3.org/1999/xlink">
    <!-- Generator: Sketch 53 (72520) - https://sketchapp.com -->
    <title>Thequickbrownfoxjumpsoverthelazydog</title>
    <desc>Created with Sketch.</desc>
    <g id="Page-1" stroke="none" stroke-width="1" fill="none" fill-rule="evenodd">
        <g id="Desktop-Copy" transform="translate(-665.000000, -300.000000)" fill="#262626" fill-rule="nonzero">
            <path d="M684.588,305.035 L677.918,305.035 L677.918,322 L675.598,322 L675.598,305.035 L668.928,305.035 L668.928,302.86 L684.588,302.86 L684.588,305.035 Z M694.796,307.21 C696.439342,307.21 697.792661,307.683662 698.856,308.631 C699.919339,309.578338 700.451,310.941324 700.451,312.72 L700.451,322 L698.131,322 L698.131,313.532 C698.131,312.023992 697.80717,310.93167 697.1595,310.255 C696.51183,309.57833 695.646672,309.24 694.564,309.24 C693.809996,309.24 693.089837,309.413998 692.4035,309.762 C691.717163,310.110002 691.156502,310.66583 690.7215,311.4295 C690.286498,312.19317 690.069,313.154994 690.069,314.315 L690.069,322 L687.749,322 L687.749,300.83 L690.069,300.83 L690.069,309.675 C690.552336,308.843663 691.204829,308.225002 692.0265,307.819 C692.848171,307.412998 693.771328,307.21 694.796,307.21 Z M718.257,313.996 C718.257,314.537336 718.218334,315.078664 718.141,315.62 L707.208,315.62 C707.343334,317.089341 707.831496,318.229996 708.6725,319.042 C709.513504,319.854004 710.600993,320.26 711.935,320.26 C712.998339,320.26 713.88283,320.076335 714.5885,319.709 C715.29417,319.341665 715.772665,318.810003 716.024,318.114 L717.967,319.129 C717.386997,320.153672 716.613672,320.936664 715.647,321.478 C714.680328,322.019336 713.443008,322.29 711.935,322.29 C709.750322,322.29 708.034506,321.623007 706.7875,320.289 C705.540494,318.954993 704.917,317.108678 704.917,314.75 C704.917,312.391322 705.511494,310.545007 706.7005,309.211 C707.889506,307.876993 709.576322,307.21 711.761,307.21 C713.11434,307.21 714.283995,307.509664 715.27,308.109 C716.256005,308.708336 717.000331,309.520328 717.503,310.545 C718.005669,311.569672 718.257,312.719994 718.257,313.996 Z M711.761,309.24 C710.484994,309.24 709.455504,309.616996 708.6725,310.371 C707.889496,311.125004 707.411001,312.188326 707.237,313.561 L716.024,313.561 C715.869333,312.20766 715.42467,311.14917 714.69,310.3855 C713.95533,309.62183 712.979006,309.24 711.761,309.24 Z M745.691,307.5 L745.691,328.09 L743.371,328.09 L743.371,319.738 C742.906998,320.511337 742.254504,321.129998 741.4135,321.594 C740.572496,322.058002 739.620339,322.29 738.557,322.29 C736.52699,322.29 734.917506,321.618173 733.7285,320.2745 C732.539494,318.930827 731.945,317.089345 731.945,314.75 C731.945,312.410655 732.539494,310.569173 733.7285,309.2255 C734.917506,307.881827 736.52699,307.21 738.557,307.21 C739.678339,307.21 740.678829,307.466164 741.5585,307.9785 C742.438171,308.490836 743.090665,309.172329 743.516,310.023 L743.661,307.5 L745.691,307.5 Z M738.818,320.26 C740.210007,320.26 741.316829,319.776672 742.1385,318.81 C742.960171,317.843328 743.371,316.548008 743.371,314.924 L743.371,314.576 C743.371,312.951992 742.960171,311.656672 742.1385,310.69 C741.316829,309.723328 740.210007,309.24 738.818,309.24 C737.40666,309.24 736.295004,309.737828 735.483,310.7335 C734.670996,311.729172 734.265,313.067992 734.265,314.75 C734.265,316.432008 734.670996,317.770828 735.483,318.7665 C736.295004,319.762172 737.40666,320.26 738.818,320.26 Z M763.758,307.5 L763.758,322 L761.728,322 L761.583,319.796 C760.616329,321.458675 758.886012,322.29 756.392,322.29 C754.825992,322.29 753.545172,321.855004 752.5495,320.985 C751.553828,320.114996 751.056,318.781009 751.056,316.983 L751.056,307.5 L753.376,307.5 L753.376,316.374 C753.376,317.78534 753.665997,318.78583 754.246,319.3755 C754.826003,319.96517 755.676661,320.26 756.798,320.26 C758.132007,320.26 759.238829,319.854004 760.1185,319.042 C760.998171,318.229996 761.438,317.012008 761.438,315.388 L761.438,307.5 L763.758,307.5 Z M770.428,304.716 C769.905997,304.716 769.485502,304.556502 769.1665,304.2375 C768.847498,303.918498 768.688,303.498003 768.688,302.976 C768.688,302.453997 768.847498,302.033502 769.1665,301.7145 C769.485502,301.395498 769.905997,301.236 770.428,301.236 C770.950003,301.236 771.370498,301.395498 771.6895,301.7145 C772.008502,302.033502 772.168,302.453997 772.168,302.976 C772.168,303.498003 772.008502,303.918498 771.6895,304.2375 C771.370498,304.556502 770.950003,304.716 770.428,304.716 Z M771.588,322 L769.268,322 L769.268,307.5 L771.588,307.5 L771.588,322 Z M783.217,307.21 C784.667007,307.21 785.889828,307.543497 786.8855,308.2105 C787.881172,308.877503 788.659331,309.82966 789.22,311.067 L787.016,312.111 C786.39733,310.19699 785.111676,309.24 783.159,309.24 C781.708993,309.24 780.573171,309.728162 779.7515,310.7045 C778.929829,311.680838 778.519,313.029325 778.519,314.75 C778.519,316.470675 778.929829,317.819162 779.7515,318.7955 C780.573171,319.771838 781.708993,320.26 783.159,320.26 C784.280339,320.26 785.184163,320.003836 785.8705,319.4915 C786.556837,318.979164 787.006332,318.239671 787.219,317.273 L789.365,318.027 C788.862331,319.38034 788.089005,320.429163 787.045,321.1735 C786.000995,321.917837 784.725008,322.29 783.217,322.29 C781.032322,322.29 779.316506,321.623007 778.0695,320.289 C776.822494,318.954993 776.199,317.108678 776.199,314.75 C776.199,312.391322 776.822494,310.545007 778.0695,309.211 C779.316506,307.876993 781.032322,307.21 783.217,307.21 Z M798.964,314.837 L795.89,317.911 L795.89,322 L793.57,322 L793.57,300.83 L795.89,300.83 L795.89,315.011 L803.401,307.5 L806.301,307.5 L800.646,313.155 L806.649,322 L803.836,322 L798.964,314.837 Z M826.63,307.21 C828.66001,307.21 830.269494,307.881827 831.4585,309.2255 C832.647506,310.569173 833.242,312.410655 833.242,314.75 C833.242,317.089345 832.647506,318.930827 831.4585,320.2745 C830.269494,321.618173 828.66001,322.29 826.63,322.29 C825.508661,322.29 824.508171,322.033836 823.6285,321.5215 C822.748829,321.009164 822.096335,320.327671 821.671,319.477 L821.526,322 L819.496,322 L819.496,300.83 L821.816,300.83 L821.816,309.762 C822.280002,308.988663 822.932496,308.370002 823.7735,307.906 C824.614504,307.441998 825.566661,307.21 826.63,307.21 Z M826.369,320.26 C827.78034,320.26 828.891996,319.762172 829.704,318.7665 C830.516004,317.770828 830.922,316.432008 830.922,314.75 C830.922,313.067992 830.516004,311.729172 829.704,310.7335 C828.891996,309.737828 827.78034,309.24 826.369,309.24 C824.976993,309.24 823.870171,309.723328 823.0485,310.69 C822.226829,311.656672 821.816,312.951992 821.816,314.576 L821.816,314.924 C821.816,316.548008 822.226829,317.843328 823.0485,318.81 C823.870171,319.776672 824.976993,320.26 826.369,320.26 Z M844.726,307.21 C845.422003,307.21 845.953665,307.306666 846.321,307.5 L845.857,309.762 C845.392998,309.510665 844.784004,309.385 844.03,309.385 C843.41133,309.385 842.80717,309.563832 842.2175,309.9215 C841.62783,310.279168 841.144502,310.820496 840.7675,311.5455 C840.390498,312.270504 840.202,313.145328 840.202,314.17 L840.202,322 L837.882,322 L837.882,307.5 L839.767,307.5 L840.086,309.878 C840.898004,308.099324 842.444655,307.21 844.726,307.21 Z M855.485,307.21 C857.669678,307.21 859.385494,307.876993 860.6325,309.211 C861.879506,310.545007 862.503,312.391322 862.503,314.75 C862.503,317.108678 861.879506,318.954993 860.6325,320.289 C859.385494,321.623007 857.669678,322.29 855.485,322.29 C853.300322,322.29 851.584506,321.623007 850.3375,320.289 C849.090494,318.954993 848.467,317.108678 848.467,314.75 C848.467,312.391322 849.090494,310.545007 850.3375,309.211 C851.584506,307.876993 853.300322,307.21 855.485,307.21 Z M855.485,309.211 C854.015659,309.211 852.865337,309.703995 852.034,310.69 C851.202663,311.676005 850.787,313.029325 850.787,314.75 C850.787,316.470675 851.202663,317.823995 852.034,318.81 C852.865337,319.796005 854.015659,320.289 855.485,320.289 C856.954341,320.289 858.104663,319.796005 858.936,318.81 C859.767337,317.823995 860.183,316.470675 860.183,314.75 C860.183,313.029325 859.767337,311.676005 858.936,310.69 C858.104663,309.703995 856.954341,309.211 855.485,309.211 Z M887.704,307.5 L882.658,322 L880.338,322 L876.249,310.458 L872.392,322 L870.072,322 L865.026,307.5 L867.607,307.5 L871.261,319.303 L875.205,307.5 L877.525,307.5 L881.469,319.303 L885.123,307.5 L887.704,307.5 Z M898.637,307.21 C900.280342,307.21 901.633661,307.683662 902.697,308.631 C903.760339,309.578338 904.292,310.941324 904.292,312.72 L904.292,322 L901.972,322 L901.972,313.532 C901.972,312.023992 901.64817,310.93167 901.0005,310.255 C900.35283,309.57833 899.487672,309.24 898.405,309.24 C897.631663,309.24 896.90667,309.409165 896.23,309.7475 C895.55333,310.085835 894.997502,310.63683 894.5625,311.4005 C894.127498,312.16417 893.91,313.125994 893.91,314.286 L893.91,322 L891.59,322 L891.59,307.5 L893.62,307.5 L893.765,309.762 C894.248336,308.891996 894.915329,308.249169 895.766,307.8335 C896.616671,307.417831 897.573661,307.21 898.637,307.21 Z M922.562,307.5 L927.405,307.5 L927.405,309.501 L922.562,309.501 L922.562,322 L920.242,322 L920.242,309.501 L917.342,309.501 L917.342,307.5 L920.242,307.5 L920.242,305.064 C920.242,303.729993 920.647996,302.666671 921.46,301.874 C922.272004,301.081329 923.451326,300.685 924.998,300.685 C925.520003,300.685 925.998498,300.742999 926.4335,300.859 C926.868502,300.975001 927.211665,301.139332 927.463,301.352 L926.854,303.237 C926.389998,302.946999 925.839003,302.802 925.201,302.802 C923.441658,302.802 922.562,303.633325 922.562,305.296 L922.562,307.5 Z M936.337,307.21 C938.521678,307.21 940.237494,307.876993 941.4845,309.211 C942.731506,310.545007 943.355,312.391322 943.355,314.75 C943.355,317.108678 942.731506,318.954993 941.4845,320.289 C940.237494,321.623007 938.521678,322.29 936.337,322.29 C934.152322,322.29 932.436506,321.623007 931.1895,320.289 C929.942494,318.954993 929.319,317.108678 929.319,314.75 C929.319,312.391322 929.942494,310.545007 931.1895,309.211 C932.436506,307.876993 934.152322,307.21 936.337,307.21 Z M936.337,309.211 C934.867659,309.211 933.717337,309.703995 932.886,310.69 C932.054663,311.676005 931.639,313.029325 931.639,314.75 C931.639,316.470675 932.054663,317.823995 932.886,318.81 C933.717337,319.796005 934.867659,320.289 936.337,320.289 C937.806341,320.289 938.956663,319.796005 939.788,318.81 C940.619337,317.823995 941.035,316.470675 941.035,314.75 C941.035,313.029325 940.619337,311.676005 939.788,310.69 C938.956663,309.703995 937.806341,309.211 936.337,309.211 Z M956.318,322 L952.316,316.403 L948.198,322 L945.501,322 L951.069,314.692 L945.849,307.5 L948.749,307.5 L952.577,312.865 L956.347,307.5 L959.073,307.5 L953.824,314.605 L959.16,322 L956.318,322 Z M671.857,339.236 C672.340336,339.236 672.751165,339.405165 673.0895,339.7435 C673.427835,340.081835 673.597,340.492664 673.597,340.976 C673.597,341.459336 673.427835,341.870165 673.0895,342.2085 C672.751165,342.546835 672.340336,342.716 671.857,342.716 C671.373664,342.716 670.962835,342.546835 670.6245,342.2085 C670.286165,341.870165 670.117,341.459336 670.117,340.976 C670.117,340.492664 670.286165,340.081835 670.6245,339.7435 C670.962835,339.405165 671.373664,339.236 671.857,339.236 Z M673.017,361.479 C673.017,363.122342 672.577171,364.32583 671.6975,365.0895 C670.817829,365.85317 669.788339,366.235 668.609,366.235 C668.028997,366.235 667.487669,366.148001 666.985,365.974 C666.482331,365.799999 666.057002,365.568001 665.709,365.278 L666.202,363.074 C666.87867,363.673336 667.671329,363.973 668.58,363.973 C669.99134,363.973 670.697,363.064342 670.697,361.247 L670.697,345.5 L673.017,345.5 L673.017,361.479 Z M691.084,345.5 L691.084,360 L689.054,360 L688.909,357.796 C687.942329,359.458675 686.212012,360.29 683.718,360.29 C682.151992,360.29 680.871172,359.855004 679.8755,358.985 C678.879828,358.114996 678.382,356.781009 678.382,354.983 L678.382,345.5 L680.702,345.5 L680.702,354.374 C680.702,355.78534 680.991997,356.78583 681.572,357.3755 C682.152003,357.96517 683.002661,358.26 684.124,358.26 C685.458007,358.26 686.564829,357.854004 687.4445,357.042 C688.324171,356.229996 688.764,355.012008 688.764,353.388 L688.764,345.5 L691.084,345.5 Z M713.443,345.21 C714.409672,345.21 715.313496,345.408165 716.1545,345.8045 C716.995504,346.200835 717.676997,346.814663 718.199,347.646 C718.721003,348.477337 718.982,349.501994 718.982,350.72 L718.982,360 L716.662,360 L716.662,350.952 C716.662,349.695327 716.347836,348.762503 715.7195,348.1535 C715.091164,347.544497 714.264672,347.24 713.24,347.24 C712.466663,347.24 711.75617,347.428498 711.1085,347.8055 C710.46083,348.182502 709.938835,348.733496 709.5425,349.4585 C709.146165,350.183504 708.948,351.048662 708.948,352.054 L708.948,360 L706.628,360 L706.628,350.952 C706.628,349.695327 706.313836,348.762503 705.6855,348.1535 C705.057164,347.544497 704.230672,347.24 703.206,347.24 C702.509997,347.24 701.833337,347.418832 701.176,347.7765 C700.518663,348.134168 699.977335,348.689996 699.552,349.444 C699.126665,350.198004 698.914,351.135661 698.914,352.257 L698.914,360 L696.594,360 L696.594,345.5 L698.624,345.5 L698.769,347.762 C699.271669,346.911329 699.933829,346.273335 700.7555,345.848 C701.577171,345.422665 702.461662,345.21 703.409,345.21 C704.472339,345.21 705.453496,345.451664 706.3525,345.935 C707.251504,346.418336 707.932998,347.123995 708.397,348.052 C708.822335,347.123995 709.518329,346.418336 710.485,345.935 C711.451671,345.451664 712.437662,345.21 713.443,345.21 Z M731.481,345.21 C733.51101,345.21 735.120494,345.881827 736.3095,347.2255 C737.498506,348.569173 738.093,350.410655 738.093,352.75 C738.093,355.089345 737.498506,356.930827 736.3095,358.2745 C735.120494,359.618173 733.51101,360.29 731.481,360.29 C730.417661,360.29 729.465504,360.058002 728.6245,359.594 C727.783496,359.129998 727.131002,358.511337 726.667,357.738 L726.667,366.09 L724.347,366.09 L724.347,345.5 L726.377,345.5 L726.522,348.023 C726.947335,347.172329 727.599829,346.490836 728.4795,345.9785 C729.359171,345.466164 730.359661,345.21 731.481,345.21 Z M731.22,358.26 C732.63134,358.26 733.742996,357.762172 734.555,356.7665 C735.367004,355.770828 735.773,354.432008 735.773,352.75 C735.773,351.067992 735.367004,349.729172 734.555,348.7335 C733.742996,347.737828 732.63134,347.24 731.22,347.24 C729.827993,347.24 728.721171,347.723328 727.8995,348.69 C727.077829,349.656672 726.667,350.951992 726.667,352.576 L726.667,352.924 C726.667,354.548008 727.077829,355.843328 727.8995,356.81 C728.721171,357.776672 729.827993,358.26 731.22,358.26 Z M747.663,360.29 C746.270993,360.29 745.014339,360.014503 743.893,359.4635 C742.771661,358.912497 741.950003,358.095672 741.428,357.013 L743.313,355.708 C743.641668,356.558671 744.211996,357.196665 745.024,357.622 C745.836004,358.047335 746.792994,358.26 747.895,358.26 C749.035672,358.26 749.905664,358.057002 750.505,357.651 C751.104336,357.244998 751.404,356.73267 751.404,356.114 C751.404,355.553331 751.123669,355.103835 750.563,354.7655 C750.002331,354.427165 749.01634,354.132335 747.605,353.881 C746.212993,353.629665 745.111004,353.325168 744.299,352.9675 C743.486996,352.609832 742.897335,352.155503 742.53,351.6045 C742.162665,351.053497 741.979,350.372004 741.979,349.56 C741.979,348.767329 742.210998,348.042337 742.675,347.385 C743.139002,346.727663 743.805996,346.200835 744.676,345.8045 C745.546004,345.408165 746.551328,345.21 747.692,345.21 C749.238674,345.21 750.480829,345.495164 751.4185,346.0655 C752.356171,346.635836 753.027998,347.510661 753.434,348.69 L751.462,349.85 C751.152665,348.921995 750.683836,348.255002 750.0555,347.849 C749.427164,347.442998 748.639338,347.24 747.692,347.24 C746.744662,347.24 745.942337,347.452665 745.285,347.878 C744.627663,348.303335 744.299,348.796331 744.299,349.357 C744.299,349.995003 744.584164,350.487998 745.1545,350.836 C745.724836,351.184002 746.744659,351.483665 748.214,351.735 C750.224677,352.063668 751.645663,352.556663 752.477,353.214 C753.308337,353.871337 753.724,354.799327 753.724,355.998 C753.724,356.829337 753.477502,357.56883 752.9845,358.2165 C752.491498,358.86417 751.785838,359.371665 750.8675,359.739 C749.949162,360.106335 748.881006,360.29 747.663,360.29 Z M774.256,345.21 C776.440678,345.21 778.156494,345.876993 779.4035,347.211 C780.650506,348.545007 781.274,350.391322 781.274,352.75 C781.274,355.108678 780.650506,356.954993 779.4035,358.289 C778.156494,359.623007 776.440678,360.29 774.256,360.29 C772.071322,360.29 770.355506,359.623007 769.1085,358.289 C767.861494,356.954993 767.238,355.108678 767.238,352.75 C767.238,350.391322 767.861494,348.545007 769.1085,347.211 C770.355506,345.876993 772.071322,345.21 774.256,345.21 Z M774.256,347.211 C772.786659,347.211 771.636337,347.703995 770.805,348.69 C769.973663,349.676005 769.558,351.029325 769.558,352.75 C769.558,354.470675 769.973663,355.823995 770.805,356.81 C771.636337,357.796005 772.786659,358.289 774.256,358.289 C775.725341,358.289 776.875663,357.796005 777.707,356.81 C778.538337,355.823995 778.954,354.470675 778.954,352.75 C778.954,351.029325 778.538337,349.676005 777.707,348.69 C776.875663,347.703995 775.725341,347.211 774.256,347.211 Z M797.92,345.5 L791.888,360 L789.568,360 L783.536,345.5 L786.175,345.5 L790.757,357.651 L795.484,345.5 L797.92,345.5 Z M813.522,351.996 C813.522,352.537336 813.483334,353.078664 813.406,353.62 L802.473,353.62 C802.608334,355.089341 803.096496,356.229996 803.9375,357.042 C804.778504,357.854004 805.865993,358.26 807.2,358.26 C808.263339,358.26 809.14783,358.076335 809.8535,357.709 C810.55917,357.341665 811.037665,356.810003 811.289,356.114 L813.232,357.129 C812.651997,358.153672 811.878671,358.936664 810.912,359.478 C809.945328,360.019336 808.708008,360.29 807.2,360.29 C805.015322,360.29 803.299506,359.623007 802.0525,358.289 C800.805494,356.954993 800.182,355.108678 800.182,352.75 C800.182,350.391322 800.776494,348.545007 801.9655,347.211 C803.154506,345.876993 804.841322,345.21 807.026,345.21 C808.37934,345.21 809.548995,345.509664 810.535,346.109 C811.521005,346.708336 812.265331,347.520328 812.768,348.545 C813.270669,349.569672 813.522,350.719994 813.522,351.996 Z M807.026,347.24 C805.749994,347.24 804.720504,347.616996 803.9375,348.371 C803.154496,349.125004 802.676001,350.188326 802.502,351.561 L811.289,351.561 C811.134333,350.20766 810.68967,349.14917 809.955,348.3855 C809.22033,347.62183 808.244006,347.24 807.026,347.24 Z M824.89,345.21 C825.586003,345.21 826.117665,345.306666 826.485,345.5 L826.021,347.762 C825.556998,347.510665 824.948004,347.385 824.194,347.385 C823.57533,347.385 822.97117,347.563832 822.3815,347.9215 C821.79183,348.279168 821.308502,348.820496 820.9315,349.5455 C820.554498,350.270504 820.366,351.145328 820.366,352.17 L820.366,360 L818.046,360 L818.046,345.5 L819.931,345.5 L820.25,347.878 C821.062004,346.099324 822.608655,345.21 824.89,345.21 Z M847.626,358.985 C846.659329,359.855004 845.412341,360.29 843.885,360.29 C842.705661,360.29 841.743837,359.971003 840.9995,359.333 C840.255163,358.694997 839.873333,357.718673 839.854,356.404 L839.854,347.501 L836.954,347.501 L836.954,345.5 L839.854,345.5 L839.854,342.02 L842.174,341.382 L842.174,345.5 L847.539,345.5 L847.539,347.501 L842.174,347.501 L842.174,355.998 C842.174,356.694003 842.372165,357.220832 842.7685,357.5785 C843.164835,357.936168 843.691663,358.115 844.349,358.115 C845.277005,358.115 846.098663,357.757337 846.814,357.042 L847.626,358.985 Z M858.066,345.21 C859.709342,345.21 861.062661,345.683662 862.126,346.631 C863.189339,347.578338 863.721,348.941324 863.721,350.72 L863.721,360 L861.401,360 L861.401,351.532 C861.401,350.023992 861.07717,348.93167 860.4295,348.255 C859.78183,347.57833 858.916672,347.24 857.834,347.24 C857.079996,347.24 856.359837,347.413998 855.6735,347.762 C854.987163,348.110002 854.426502,348.66583 853.9915,349.4295 C853.556498,350.19317 853.339,351.154994 853.339,352.315 L853.339,360 L851.019,360 L851.019,338.83 L853.339,338.83 L853.339,347.675 C853.822336,346.843663 854.474829,346.225002 855.2965,345.819 C856.118171,345.412998 857.041328,345.21 858.066,345.21 Z M881.527,351.996 C881.527,352.537336 881.488334,353.078664 881.411,353.62 L870.478,353.62 C870.613334,355.089341 871.101496,356.229996 871.9425,357.042 C872.783504,357.854004 873.870993,358.26 875.205,358.26 C876.268339,358.26 877.15283,358.076335 877.8585,357.709 C878.56417,357.341665 879.042665,356.810003 879.294,356.114 L881.237,357.129 C880.656997,358.153672 879.883671,358.936664 878.917,359.478 C877.950329,360.019336 876.713008,360.29 875.205,360.29 C873.020322,360.29 871.304506,359.623007 870.0575,358.289 C868.810494,356.954993 868.187,355.108678 868.187,352.75 C868.187,350.391322 868.781494,348.545007 869.9705,347.211 C871.159506,345.876993 872.846322,345.21 875.031,345.21 C876.38434,345.21 877.553995,345.509664 878.54,346.109 C879.526005,346.708336 880.270331,347.520328 880.773,348.545 C881.275669,349.569672 881.527,350.719994 881.527,351.996 Z M875.031,347.24 C873.754994,347.24 872.725504,347.616996 871.9425,348.371 C871.159496,349.125004 870.681001,350.188326 870.507,351.561 L879.294,351.561 C879.139333,350.20766 878.69467,349.14917 877.96,348.3855 C877.22533,347.62183 876.249006,347.24 875.031,347.24 Z M898.26,356.114 C898.26,356.84867 898.371166,357.356165 898.5935,357.6365 C898.815834,357.916835 899.226664,358.057 899.826,358.057 C900.232002,358.057 900.584832,358.028 900.8845,357.97 C901.184168,357.912 901.536998,357.805667 901.943,357.651 L901.566,359.884 C900.927997,360.154668 900.212671,360.29 899.42,360.29 C898.240661,360.29 897.365836,359.971003 896.7955,359.333 C896.225164,358.694997 895.94,357.718673 895.94,356.404 L895.94,338.83 L898.26,338.83 L898.26,356.114 Z M916.936,358.318 C917.322669,358.318 917.709331,358.269667 918.096,358.173 L917.951,360 C917.409664,360.193334 916.82967,360.29 916.211,360.29 C915.456996,360.29 914.862502,360.125668 914.4275,359.797 C913.992498,359.468332 913.717001,358.917337 913.601,358.144 C913.156331,358.82067 912.503838,359.347498 911.6435,359.7245 C910.783162,360.101502 909.879338,360.29 908.932,360.29 C907.501326,360.29 906.322005,359.956503 905.394,359.2895 C904.465995,358.622497 904.002,357.660673 904.002,356.404 C904.002,355.301994 904.485329,354.349837 905.452,353.5475 C906.418672,352.745163 907.820324,352.189335 909.657,351.88 L913.514,351.242 L913.514,350.43 C913.514,349.463328 913.214336,348.690003 912.615,348.11 C912.015664,347.529997 911.184339,347.24 910.121,347.24 C909.154329,347.24 908.31817,347.471998 907.6125,347.936 C906.90683,348.400002 906.360669,349.086329 905.974,349.995 L904.263,348.748 C904.649669,347.665328 905.369828,346.805003 906.4235,346.167 C907.477172,345.528997 908.70966,345.21 910.121,345.21 C911.841675,345.21 913.223995,345.625663 914.268,346.457 C915.312005,347.288337 915.834,348.515992 915.834,350.14 L915.834,357.274 C915.834,357.622002 915.920999,357.882999 916.095,358.057 C916.269001,358.231001 916.549331,358.318 916.936,358.318 Z M909.048,358.26 C910.266006,358.26 911.314829,357.970003 912.1945,357.39 C913.074171,356.809997 913.514,356.056005 913.514,355.128 L913.514,353.127 L910.266,353.736 C908.97066,353.968001 908.004003,354.301498 907.366,354.7365 C906.727997,355.171502 906.409,355.72733 906.409,356.404 C906.409,357.003336 906.640998,357.462498 907.105,357.7815 C907.569002,358.100502 908.216663,358.26 909.048,358.26 Z M920.532,358.231 L928.13,349.328 L929.957,347.443 L927.376,347.501 L920.619,347.501 L920.619,345.5 L932.538,345.5 L932.538,347.269 L924.94,356.172 L923.142,358.057 L925.955,357.999 L932.77,357.999 L932.77,360 L920.532,360 L920.532,358.231 Z M942.688,362.436 C942.127331,363.828007 941.499003,364.809164 940.803,365.3795 C940.106997,365.949836 939.208006,366.235 938.106,366.235 C937.37133,366.235 936.757502,366.138334 936.2645,365.945 C935.771498,365.751666 935.322002,365.442335 934.916,365.017 L935.728,363.045 C936.288669,363.818337 937.071662,364.205 938.077,364.205 C938.637669,364.205 939.135498,364.035835 939.5705,363.6975 C940.005502,363.359165 940.387332,362.745338 940.716,361.856 L941.47,359.971 L935.409,345.5 L938.048,345.5 L941.673,354.954 L942.572,357.535 L943.616,354.664 L947.009,345.5 L949.503,345.5 L942.688,362.436 Z M974.965,338.83 L974.965,360 L972.935,360 L972.79,357.477 C972.364665,358.327671 971.712171,359.009164 970.8325,359.5215 C969.952829,360.033836 968.952339,360.29 967.831,360.29 C965.80099,360.29 964.191506,359.618173 963.0025,358.2745 C961.813494,356.930827 961.219,355.089345 961.219,352.75 C961.219,350.410655 961.813494,348.569173 963.0025,347.2255 C964.191506,345.881827 965.80099,345.21 967.831,345.21 C968.894339,345.21 969.846496,345.441998 970.6875,345.906 C971.528504,346.370002 972.180998,346.988663 972.645,347.762 L972.645,338.83 L974.965,338.83 Z M968.092,358.26 C969.484007,358.26 970.590829,357.776672 971.4125,356.81 C972.234171,355.843328 972.645,354.548008 972.645,352.924 L972.645,352.576 C972.645,350.951992 972.234171,349.656672 971.4125,348.69 C970.590829,347.723328 969.484007,347.24 968.092,347.24 C966.68066,347.24 965.569004,347.737828 964.757,348.7335 C963.944996,349.729172 963.539,351.067992 963.539,352.75 C963.539,354.432008 963.944996,355.770828 964.757,356.7665 C965.569004,357.762172 966.68066,358.26 968.092,358.26 Z M986.594,345.21 C988.778678,345.21 990.494494,345.876993 991.7415,347.211 C992.988506,348.545007 993.612,350.391322 993.612,352.75 C993.612,355.108678 992.988506,356.954993 991.7415,358.289 C990.494494,359.623007 988.778678,360.29 986.594,360.29 C984.409322,360.29 982.693506,359.623007 981.4465,358.289 C980.199494,356.954993 979.576,355.108678 979.576,352.75 C979.576,350.391322 980.199494,348.545007 981.4465,347.211 C982.693506,345.876993 984.409322,345.21 986.594,345.21 Z M986.594,347.211 C985.124659,347.211 983.974337,347.703995 983.143,348.69 C982.311663,349.676005 981.896,351.029325 981.896,352.75 C981.896,354.470675 982.311663,355.823995 983.143,356.81 C983.974337,357.796005 985.124659,358.289 986.594,358.289 C988.063341,358.289 989.213663,357.796005 990.045,356.81 C990.876337,355.823995 991.292,354.470675 991.292,352.75 C991.292,351.029325 990.876337,349.676005 990.045,348.69 C989.213663,347.703995 988.063341,347.211 986.594,347.211 Z M1006.314,358.144 C1007.68667,358.144 1008.75966,358.45333 1009.533,359.072 C1010.30634,359.69067 1010.693,360.531661 1010.693,361.595 C1010.693,362.523005 1010.374,363.33983 1009.736,364.0455 C1009.098,364.75117 1008.23284,365.292498 1007.1405,365.6695 C1006.04816,366.046502 1004.84467,366.235 1003.53,366.235 C1001.32599,366.235 999.663339,365.88217 998.542,365.1765 C997.420661,364.47083 996.86,363.547672 996.86,362.407 C996.86,361.749663 997.087164,361.169669 997.5415,360.667 C997.995836,360.164331 998.619329,359.806668 999.412,359.594 C998.812664,359.303999 998.334168,358.936669 997.9765,358.492 C997.618832,358.047331 997.44,357.525336 997.44,356.926 C997.44,356.210663 997.633331,355.616169 998.02,355.1425 C998.406669,354.668831 998.93833,354.316001 999.615,354.084 C998.918997,353.658665 998.392168,353.102837 998.0345,352.4165 C997.676832,351.730163 997.498,350.961671 997.498,350.111 C997.498,349.163662 997.749331,348.317837 998.252,347.5735 C998.754669,346.829163 999.460329,346.249169 1000.369,345.8335 C1001.27767,345.417831 1002.30233,345.21 1003.443,345.21 C1004.52567,345.21 1005.51166,345.403331 1006.401,345.79 C1006.94234,343.81799 1008.30532,342.832 1010.49,342.832 L1011.012,344.862 C1009.11732,344.862 1007.967,345.393661 1007.561,346.457 C1008.141,346.901669 1008.5905,347.43333 1008.9095,348.052 C1009.2285,348.67067 1009.388,349.356996 1009.388,350.111 C1009.388,351.058338 1009.13667,351.904163 1008.634,352.6485 C1008.13133,353.392837 1007.42567,353.972831 1006.517,354.3885 C1005.60833,354.804169 1004.58367,355.012 1003.443,355.012 C1002.59233,355.012 1001.848,354.925001 1001.21,354.751 C1000.63,354.886334 1000.21433,355.098999 999.963,355.389 C999.711665,355.679001 999.586,356.075331 999.586,356.578 C999.586,357.080669 999.759998,357.467332 1000.108,357.738 C1000.456,358.008668 1000.92,358.144 1001.5,358.144 L1006.314,358.144 Z M1003.443,347.095 C1002.43766,347.095 1001.59667,347.375331 1000.92,347.936 C1000.24333,348.496669 999.905,349.221662 999.905,350.111 C999.905,351.000338 1000.24333,351.725331 1000.92,352.286 C1001.59667,352.846669 1002.43766,353.127 1003.443,353.127 C1004.44834,353.127 1005.28933,352.846669 1005.966,352.286 C1006.64267,351.725331 1006.981,351.000338 1006.981,350.111 C1006.981,349.221662 1006.64267,348.496669 1005.966,347.936 C1005.28933,347.375331 1004.44834,347.095 1003.443,347.095 Z M1003.791,364.292 C1005.26034,364.292 1006.42033,364.055169 1007.271,363.5815 C1008.12167,363.107831 1008.547,362.53267 1008.547,361.856 C1008.547,361.295331 1008.3295,360.870001 1007.8945,360.58 C1007.4595,360.289999 1006.72001,360.145 1005.676,360.145 L1001.79,360.145 C1000.90066,360.145 1000.21434,360.304498 999.731,360.6235 C999.247664,360.942502 999.006,361.382331 999.006,361.943 C999.006,362.67767 999.411996,363.252831 1000.224,363.6685 C1001.036,364.084169 1002.22499,364.292 1003.791,364.292 Z" id="Thequickbrownfoxjumpsoverthelazydog"></path>
        </g>
    </g>
</svg>