<?xml version="1.0" encoding="UTF-8"?>
<svg width="294px" height="69px" viewBox="0 0 294 69" version="1.1" xmlns="http://www.w3.org/2000/svg" xmlns:xlink="http://www.w3.org/1999/xlink">
    <!-- Generator: Sketch 50.2 (55047) - http://www.bohemiancoding.com/sketch -->
    <title>The quick brown fox Copy 3</title>
    <desc>Created with Sketch.</desc>
    <defs></defs>
    <g id="Page-1" stroke="none" stroke-width="1" fill="none" fill-rule="evenodd">
        <g id="Desktop-Copy" transform="translate(-426.000000, -1196.000000)" fill="#262626">
            <path d="M446.358398,1197.13672 L446.578125,1201.79492 L446.021484,1201.79492 C445.914062,1200.97461 445.767579,1200.38867 445.582031,1200.03711 C445.279295,1199.4707 444.876467,1199.05322 444.373535,1198.78467 C443.870603,1198.51611 443.208988,1198.38184 442.388672,1198.38184 L439.59082,1198.38184 L439.59082,1213.55762 C439.59082,1214.77833 439.722655,1215.54004 439.986328,1215.84277 C440.357424,1216.25293 440.928707,1216.45801 441.700195,1216.45801 L442.388672,1216.45801 L442.388672,1217 L433.96582,1217 L433.96582,1216.45801 L434.668945,1216.45801 C435.508793,1216.45801 436.10449,1216.2041 436.456055,1215.69629 C436.6709,1215.38379 436.77832,1214.6709 436.77832,1213.55762 L436.77832,1198.38184 L434.390625,1198.38184 C433.462886,1198.38184 432.803713,1198.45019 432.413086,1198.58691 C431.905271,1198.77246 431.470705,1199.1289 431.109375,1199.65625 C430.748045,1200.1836 430.533203,1200.89648 430.464844,1201.79492 L429.908203,1201.79492 L430.142578,1197.13672 L446.358398,1197.13672 Z M452.323125,1196.16992 L452.323125,1205.98438 C453.407115,1204.79296 454.266481,1204.02881 454.90125,1203.69189 C455.536019,1203.35498 456.170778,1203.18652 456.805547,1203.18652 C457.567269,1203.18652 458.22156,1203.39648 458.768437,1203.81641 C459.315315,1204.23633 459.720585,1204.8955 459.984258,1205.79395 C460.169806,1206.41895 460.262578,1207.56152 460.262578,1209.22168 L460.262578,1213.96777 C460.262578,1214.81739 460.330937,1215.39844 460.467656,1215.71094 C460.565313,1215.94531 460.731327,1216.13086 460.965703,1216.26758 C461.200079,1216.4043 461.629762,1216.47266 462.254766,1216.47266 L462.254766,1217 L455.662969,1217 L455.662969,1216.47266 L455.970586,1216.47266 C456.595589,1216.47266 457.030155,1216.37744 457.274297,1216.18701 C457.518439,1215.99658 457.689335,1215.71582 457.786992,1215.34473 C457.816289,1215.18848 457.830937,1214.7295 457.830937,1213.96777 L457.830937,1209.22168 C457.830937,1207.75683 457.755255,1206.79492 457.603887,1206.33594 C457.452519,1205.87695 457.210822,1205.53272 456.878789,1205.30322 C456.546756,1205.07373 456.14637,1204.95898 455.677617,1204.95898 C455.199099,1204.95898 454.701057,1205.08594 454.183477,1205.33984 C453.665896,1205.59375 453.045785,1206.10644 452.323125,1206.87793 L452.323125,1213.96777 C452.323125,1214.88575 452.374394,1215.45703 452.476934,1215.68164 C452.579473,1215.90625 452.769901,1216.09424 453.048223,1216.24561 C453.326544,1216.39697 453.807497,1216.47266 454.491094,1216.47266 L454.491094,1217 L447.840703,1217 L447.840703,1216.47266 C448.436409,1216.47266 448.905155,1216.37988 449.246953,1216.19434 C449.442267,1216.09668 449.598515,1215.91113 449.715703,1215.6377 C449.832891,1215.36426 449.891484,1214.80762 449.891484,1213.96777 L449.891484,1201.82422 C449.891484,1200.29101 449.854864,1199.34863 449.781621,1198.99707 C449.708379,1198.64551 449.596075,1198.40625 449.444707,1198.2793 C449.293339,1198.15234 449.090704,1198.08887 448.836797,1198.08887 C448.631718,1198.08887 448.29969,1198.16699 447.840703,1198.32324 L447.635625,1197.81055 L451.649297,1196.16992 L452.323125,1196.16992 Z M465.758555,1208.63574 C465.748789,1210.62794 466.232183,1212.19042 467.20875,1213.32324 C468.185317,1214.45606 469.332767,1215.02246 470.651133,1215.02246 C471.530043,1215.02246 472.294196,1214.78076 472.943613,1214.29736 C473.593031,1213.81396 474.137459,1212.98633 474.576914,1211.81445 L475.031016,1212.10742 C474.825936,1213.44532 474.230239,1214.66357 473.243906,1215.76221 C472.257573,1216.86085 471.022234,1217.41016 469.537852,1217.41016 C467.926515,1217.41016 466.547135,1216.78272 465.399668,1215.52783 C464.252201,1214.27294 463.678477,1212.58595 463.678477,1210.4668 C463.678477,1208.17186 464.26685,1206.38233 465.443613,1205.09814 C466.620377,1203.81396 468.097413,1203.17188 469.874766,1203.17188 C471.378679,1203.17188 472.614019,1203.66748 473.58082,1204.65869 C474.547622,1205.64991 475.031016,1206.97558 475.031016,1208.63574 L465.758555,1208.63574 Z M465.758555,1207.78613 L471.969492,1207.78613 C471.920664,1206.92675 471.818126,1206.32129 471.661875,1205.96973 C471.417733,1205.42285 471.053967,1204.99317 470.570566,1204.68066 C470.087166,1204.36816 469.5818,1204.21191 469.054453,1204.21191 C468.243902,1204.21191 467.518812,1204.52685 466.87916,1205.15674 C466.239509,1205.78662 465.865977,1206.66308 465.758555,1207.78613 Z M496.438008,1203.18652 L496.438008,1220.44238 C496.438008,1221.30176 496.496601,1221.85351 496.613789,1222.09766 C496.730977,1222.3418 496.914081,1222.53223 497.163105,1222.66895 C497.41213,1222.80566 497.897965,1222.87402 498.620625,1222.87402 L498.620625,1223.41602 L491.853047,1223.41602 L491.853047,1222.87402 L492.131367,1222.87402 C492.678245,1222.87402 493.09328,1222.7959 493.376484,1222.63965 C493.571798,1222.53223 493.728046,1222.33936 493.845234,1222.06104 C493.962422,1221.78271 494.021016,1221.24317 494.021016,1220.44238 L494.021016,1214.6709 C493.132339,1215.72559 492.35598,1216.4458 491.691914,1216.83154 C491.027848,1217.21729 490.339379,1217.41016 489.626484,1217.41016 C488.32765,1217.41016 487.167993,1216.81934 486.14748,1215.6377 C485.126968,1214.45605 484.616719,1212.87403 484.616719,1210.8916 C484.616719,1208.6162 485.29054,1206.76319 486.638203,1205.33252 C487.985866,1203.90185 489.611826,1203.18652 491.516133,1203.18652 C492.072776,1203.18652 492.585466,1203.26465 493.054219,1203.4209 C493.522971,1203.57715 493.942889,1203.81152 494.313984,1204.12402 C494.880393,1203.85058 495.42238,1203.53809 495.939961,1203.18652 L496.438008,1203.18652 Z M494.021016,1213.74805 L494.021016,1207.44922 C494.021016,1206.71679 493.925802,1206.14063 493.735371,1205.7207 C493.54494,1205.30078 493.205588,1204.94434 492.717305,1204.65137 C492.229021,1204.3584 491.677269,1204.21191 491.062031,1204.21191 C489.968276,1204.21191 489.030785,1204.67578 488.249531,1205.60352 C487.468277,1206.53125 487.077656,1207.93749 487.077656,1209.82227 C487.077656,1211.62892 487.475601,1213.00097 488.271504,1213.93848 C489.067406,1214.87598 490.026869,1215.34473 491.149922,1215.34473 C491.726097,1215.34473 492.238787,1215.22022 492.688008,1214.97119 C493.137229,1214.72217 493.58156,1214.31446 494.021016,1213.74805 Z M511.44082,1203.58203 L511.44082,1211.71191 C511.44082,1213.26466 511.477441,1214.21435 511.550684,1214.56104 C511.623926,1214.90772 511.741112,1215.14941 511.902246,1215.28613 C512.06338,1215.42285 512.251366,1215.49121 512.466211,1215.49121 C512.768947,1215.49121 513.11074,1215.4082 513.491602,1215.24219 L513.69668,1215.75488 L509.683008,1217.41016 L509.023828,1217.41016 L509.023828,1214.56836 C507.871479,1215.81837 506.992581,1216.60449 506.387109,1216.92676 C505.781638,1217.24903 505.141996,1217.41016 504.468164,1217.41016 C503.716207,1217.41016 503.064358,1217.19287 502.512598,1216.7583 C501.960837,1216.32373 501.57754,1215.76465 501.362695,1215.08105 C501.14785,1214.39746 501.04043,1213.43067 501.04043,1212.18066 L501.04043,1206.18945 C501.04043,1205.55468 500.972071,1205.11524 500.835352,1204.87109 C500.698632,1204.62695 500.495997,1204.43897 500.227441,1204.30713 C499.958885,1204.17529 499.47305,1204.11426 498.769922,1204.12402 L498.769922,1203.58203 L503.47207,1203.58203 L503.47207,1212.56152 C503.47207,1213.81153 503.689353,1214.63183 504.123926,1215.02246 C504.558498,1215.41309 505.083395,1215.6084 505.698633,1215.6084 C506.118557,1215.6084 506.594626,1215.47656 507.126855,1215.21289 C507.659085,1214.94922 508.291403,1214.44629 509.023828,1213.7041 L509.023828,1206.10156 C509.023828,1205.33984 508.884669,1204.82471 508.606348,1204.55615 C508.328026,1204.2876 507.749418,1204.14355 506.870508,1204.12402 L506.870508,1203.58203 L511.44082,1203.58203 Z M518.211211,1196.16992 C518.621369,1196.16992 518.970487,1196.31396 519.258574,1196.60205 C519.546662,1196.89014 519.690703,1197.23926 519.690703,1197.64941 C519.690703,1198.05957 519.546662,1198.41113 519.258574,1198.7041 C518.970487,1198.99707 518.621369,1199.14355 518.211211,1199.14355 C517.801053,1199.14355 517.449494,1198.99707 517.156523,1198.7041 C516.863553,1198.41113 516.71707,1198.05957 516.71707,1197.64941 C516.71707,1197.23926 516.861112,1196.89014 517.149199,1196.60205 C517.437287,1196.31396 517.791287,1196.16992 518.211211,1196.16992 Z M519.427031,1203.18652 L519.427031,1213.96777 C519.427031,1214.80762 519.488066,1215.3667 519.610137,1215.64502 C519.732208,1215.92334 519.91287,1216.13086 520.152129,1216.26758 C520.391388,1216.4043 520.828395,1216.47266 521.463164,1216.47266 L521.463164,1217 L514.944609,1217 L514.944609,1216.47266 C515.59891,1216.47266 516.038358,1216.40918 516.262969,1216.28223 C516.487579,1216.15527 516.6658,1215.94531 516.797637,1215.65234 C516.929473,1215.35937 516.995391,1214.79786 516.995391,1213.96777 L516.995391,1208.79688 C516.995391,1207.34179 516.951446,1206.39942 516.863555,1205.96973 C516.795195,1205.65722 516.687774,1205.43994 516.541289,1205.31787 C516.394804,1205.1958 516.194611,1205.13477 515.940703,1205.13477 C515.667264,1205.13477 515.335236,1205.20801 514.944609,1205.35449 L514.739531,1204.82715 L518.7825,1203.18652 L519.427031,1203.18652 Z M534.64957,1211.90234 C534.28824,1213.66993 533.58024,1215.02978 532.525547,1215.98193 C531.470854,1216.93409 530.303874,1217.41016 529.02457,1217.41016 C527.501125,1217.41016 526.173013,1216.77051 525.040195,1215.49121 C523.907377,1214.21191 523.340977,1212.48341 523.340977,1210.30566 C523.340977,1208.19628 523.968412,1206.48243 525.223301,1205.16406 C526.47819,1203.8457 527.984522,1203.18652 529.742344,1203.18652 C531.06071,1203.18652 532.144683,1203.53564 532.994297,1204.23389 C533.84391,1204.93213 534.268711,1205.65722 534.268711,1206.40918 C534.268711,1206.78028 534.149083,1207.08057 533.909824,1207.31006 C533.670565,1207.53955 533.336096,1207.6543 532.906406,1207.6543 C532.330231,1207.6543 531.895666,1207.46875 531.602695,1207.09766 C531.436679,1206.89258 531.326817,1206.50196 531.273105,1205.92578 C531.219394,1205.34961 531.021642,1204.91016 530.679844,1204.60742 C530.338045,1204.31445 529.864417,1204.16797 529.258945,1204.16797 C528.282378,1204.16797 527.496253,1204.52929 526.900547,1205.25195 C526.109527,1206.20899 525.714023,1207.47362 525.714023,1209.0459 C525.714023,1210.64747 526.107086,1212.06103 526.893223,1213.28662 C527.679359,1214.51221 528.74136,1215.125 530.079258,1215.125 C531.036294,1215.125 531.89566,1214.79785 532.657383,1214.14355 C533.194495,1213.69433 533.716951,1212.87891 534.224766,1211.69727 L534.64957,1211.90234 Z M540.658242,1196.16992 L540.658242,1209.5293 L544.071328,1206.40918 C544.793988,1205.74511 545.213906,1205.3252 545.331094,1205.14941 C545.409219,1205.03223 545.448281,1204.91504 545.448281,1204.79785 C545.448281,1204.60254 545.367716,1204.43408 545.206582,1204.29248 C545.045448,1204.15088 544.779338,1204.07031 544.408242,1204.05078 L544.408242,1203.58203 L550.23832,1203.58203 L550.23832,1204.05078 C549.437535,1204.07031 548.771038,1204.19238 548.238809,1204.41699 C547.706579,1204.6416 547.123089,1205.04199 546.48832,1205.61816 L543.045937,1208.79688 L546.48832,1213.14746 C547.445356,1214.34864 548.089881,1215.11035 548.421914,1215.43262 C548.890666,1215.8916 549.300819,1216.18945 549.652383,1216.32617 C549.896525,1216.42383 550.321325,1216.47266 550.926797,1216.47266 L550.926797,1217 L544.408242,1217 L544.408242,1216.47266 C544.779338,1216.46289 545.0308,1216.40674 545.162637,1216.3042 C545.294473,1216.20166 545.360391,1216.05762 545.360391,1215.87207 C545.360391,1215.64746 545.16508,1215.28614 544.774453,1214.78809 L540.658242,1209.5293 L540.658242,1213.98242 C540.658242,1214.85157 540.719277,1215.42285 540.841348,1215.69629 C540.963419,1215.96973 541.136757,1216.16504 541.361367,1216.28223 C541.585978,1216.39941 542.074254,1216.46289 542.826211,1216.47266 L542.826211,1217 L536.000039,1217 L536.000039,1216.47266 C536.683636,1216.47266 537.196326,1216.38965 537.538125,1216.22363 C537.743204,1216.11621 537.899453,1215.9502 538.006875,1215.72559 C538.15336,1215.40332 538.226602,1214.84668 538.226602,1214.05566 L538.226602,1201.83887 C538.226602,1200.28613 538.192422,1199.33643 538.124062,1198.98975 C538.055703,1198.64306 537.943399,1198.40381 537.787148,1198.27197 C537.630898,1198.14014 537.425822,1198.07422 537.171914,1198.07422 C536.966835,1198.07422 536.659221,1198.15723 536.249062,1198.32324 L536.000039,1197.81055 L539.984414,1196.16992 L540.658242,1196.16992 Z M563.105273,1205.89648 C564.404108,1204.08983 565.805461,1203.18652 567.309375,1203.18652 C568.686335,1203.18652 569.887495,1203.7749 570.912891,1204.95166 C571.938286,1206.12842 572.450977,1207.73729 572.450977,1209.77832 C572.450977,1212.16114 571.659969,1214.08007 570.07793,1215.53516 C568.720501,1216.78516 567.206844,1217.41016 565.536914,1217.41016 C564.75566,1217.41016 563.962211,1217.26856 563.156543,1216.98535 C562.350875,1216.70215 561.528129,1216.27735 560.688281,1215.71094 L560.688281,1201.80957 C560.688281,1200.28613 560.65166,1199.34863 560.578418,1198.99707 C560.505175,1198.64551 560.39043,1198.40625 560.23418,1198.2793 C560.077929,1198.15234 559.882618,1198.08887 559.648242,1198.08887 C559.374803,1198.08887 559.03301,1198.16699 558.622852,1198.32324 L558.417773,1197.81055 L562.446094,1196.16992 L563.105273,1196.16992 L563.105273,1205.89648 Z M563.105273,1206.83398 L563.105273,1214.86133 C563.603323,1215.34961 564.118454,1215.71826 564.650684,1215.96729 C565.182913,1216.21631 565.727341,1216.34082 566.283984,1216.34082 C567.172661,1216.34082 568.000289,1215.85254 568.766895,1214.87598 C569.5335,1213.89941 569.916797,1212.47852 569.916797,1210.61328 C569.916797,1208.89452 569.5335,1207.57374 568.766895,1206.65088 C568.000289,1205.72802 567.128716,1205.2666 566.152148,1205.2666 C565.634568,1205.2666 565.116995,1205.39844 564.599414,1205.66211 C564.208787,1205.85742 563.710745,1206.24804 563.105273,1206.83398 Z M578.474297,1203.18652 L578.474297,1206.2041 C579.597349,1204.19237 580.749682,1203.18652 581.931328,1203.18652 C582.46844,1203.18652 582.912772,1203.3501 583.264336,1203.67725 C583.6159,1204.0044 583.79168,1204.38281 583.79168,1204.8125 C583.79168,1205.19336 583.664728,1205.51562 583.41082,1205.7793 C583.156913,1206.04297 582.854181,1206.1748 582.502617,1206.1748 C582.160819,1206.1748 581.777522,1206.00635 581.352715,1205.66943 C580.927908,1205.33252 580.61297,1205.16406 580.407891,1205.16406 C580.232108,1205.16406 580.041681,1205.26172 579.836602,1205.45703 C579.397146,1205.85742 578.943049,1206.5166 578.474297,1207.43457 L578.474297,1213.86523 C578.474297,1214.60743 578.567069,1215.16894 578.752617,1215.5498 C578.879571,1215.81348 579.104178,1216.0332 579.426445,1216.20898 C579.748713,1216.38477 580.212575,1216.47266 580.818047,1216.47266 L580.818047,1217 L573.94793,1217 L573.94793,1216.47266 C574.631527,1216.47266 575.139334,1216.36524 575.471367,1216.15039 C575.715509,1215.99414 575.886406,1215.74512 575.984062,1215.40332 C576.032891,1215.2373 576.057305,1214.76368 576.057305,1213.98242 L576.057305,1208.78223 C576.057305,1207.21972 576.025567,1206.28955 575.96209,1205.9917 C575.898613,1205.69385 575.781427,1205.47656 575.610527,1205.33984 C575.439628,1205.20312 575.227228,1205.13477 574.97332,1205.13477 C574.670584,1205.13477 574.328791,1205.20801 573.94793,1205.35449 L573.801445,1204.82715 L577.859062,1203.18652 L578.474297,1203.18652 Z M591.22125,1203.18652 C593.25251,1203.18652 594.883353,1203.958 596.113828,1205.50098 C597.158755,1206.81934 597.681211,1208.333 597.681211,1210.04199 C597.681211,1211.24317 597.393128,1212.45898 596.816953,1213.68945 C596.240778,1214.91993 595.447329,1215.84765 594.436582,1216.47266 C593.425835,1217.09766 592.300358,1217.41016 591.060117,1217.41016 C589.038623,1217.41016 587.432193,1216.6045 586.240781,1214.99316 C585.234917,1213.63574 584.731992,1212.11231 584.731992,1210.42285 C584.731992,1209.19238 585.037165,1207.96924 585.647519,1206.75342 C586.257874,1205.53759 587.061089,1204.63916 588.057187,1204.05811 C589.053286,1203.47705 590.107963,1203.18652 591.22125,1203.18652 Z M590.767148,1204.13867 C590.249568,1204.13867 589.729553,1204.29248 589.20709,1204.6001 C588.684626,1204.90772 588.262267,1205.44726 587.94,1206.21875 C587.617733,1206.99024 587.456602,1207.98144 587.456602,1209.19238 C587.456602,1211.14552 587.844781,1212.83007 588.621152,1214.24609 C589.397523,1215.66212 590.420462,1216.37012 591.69,1216.37012 C592.63727,1216.37012 593.418513,1215.9795 594.03375,1215.19824 C594.648987,1214.41699 594.956602,1213.07423 594.956602,1211.16992 C594.956602,1208.7871 594.443911,1206.91212 593.418516,1205.54492 C592.725153,1204.60742 591.841373,1204.13867 590.767148,1204.13867 Z M599.03168,1203.58203 L604.65668,1203.58203 L604.65668,1204.12402 C604.139099,1204.16309 603.799747,1204.25586 603.638613,1204.40234 C603.47748,1204.54883 603.396914,1204.75879 603.396914,1205.03223 C603.396914,1205.33496 603.479921,1205.70117 603.645937,1206.13086 L606.517031,1213.85059 L609.402773,1207.56641 L608.641055,1205.58887 C608.406678,1205.00293 608.099064,1204.59766 607.718203,1204.37305 C607.503358,1204.23633 607.102972,1204.15332 606.517031,1204.12402 L606.517031,1203.58203 L612.90375,1203.58203 L612.90375,1204.12402 C612.200621,1204.15332 611.70258,1204.28027 611.409609,1204.50488 C611.214296,1204.66113 611.116641,1204.91015 611.116641,1205.25195 C611.116641,1205.44727 611.155703,1205.64746 611.233828,1205.85254 L614.280703,1213.55762 L617.107852,1206.13086 C617.303165,1205.60351 617.40082,1205.1836 617.40082,1204.87109 C617.40082,1204.68555 617.305606,1204.51953 617.115176,1204.37305 C616.924745,1204.22656 616.551214,1204.14355 615.99457,1204.12402 L615.99457,1203.58203 L620.227969,1203.58203 L620.227969,1204.12402 C619.378355,1204.25098 618.753361,1204.82714 618.352969,1205.85254 L613.870547,1217.41016 L613.269961,1217.41016 L609.915469,1208.84082 L606.004336,1217.41016 L605.462344,1217.41016 L601.155703,1206.13086 C600.872499,1205.41797 600.594181,1204.93701 600.320742,1204.68799 C600.047303,1204.43896 599.61762,1204.25098 599.03168,1204.12402 L599.03168,1203.58203 Z M625.474922,1206.02832 C627.047195,1204.13378 628.546204,1203.18652 629.971992,1203.18652 C630.704418,1203.18652 631.334294,1203.36963 631.861641,1203.73584 C632.388987,1204.10205 632.808905,1204.70507 633.121406,1205.54492 C633.336251,1206.13086 633.443672,1207.02929 633.443672,1208.24023 L633.443672,1213.96777 C633.443672,1214.81739 633.512031,1215.39355 633.64875,1215.69629 C633.756172,1215.94043 633.92951,1216.13086 634.168769,1216.26758 C634.408029,1216.4043 634.849919,1216.47266 635.494453,1216.47266 L635.494453,1217 L628.858711,1217 L628.858711,1216.47266 L629.137031,1216.47266 C629.762034,1216.47266 630.199042,1216.37744 630.448066,1216.18701 C630.697091,1215.99658 630.870429,1215.71582 630.968086,1215.34473 C631.007149,1215.19824 631.02668,1214.73926 631.02668,1213.96777 L631.02668,1208.47461 C631.02668,1207.2539 630.86799,1206.36768 630.550605,1205.81592 C630.233221,1205.26416 629.698558,1204.98828 628.946602,1204.98828 C627.784486,1204.98828 626.627271,1205.62304 625.474922,1206.89258 L625.474922,1213.96777 C625.474922,1214.87598 625.528632,1215.4375 625.636055,1215.65234 C625.772774,1215.93555 625.96076,1216.14307 626.200019,1216.2749 C626.439279,1216.40674 626.925113,1216.47266 627.657539,1216.47266 L627.657539,1217 L621.021797,1217 L621.021797,1216.47266 L621.314766,1216.47266 C621.998363,1216.47266 622.459784,1216.29932 622.699043,1215.95264 C622.938302,1215.60596 623.05793,1214.94434 623.05793,1213.96777 L623.05793,1208.9873 C623.05793,1207.37597 623.021309,1206.39453 622.948066,1206.04297 C622.874824,1205.6914 622.76252,1205.45215 622.611152,1205.3252 C622.459784,1205.19824 622.25715,1205.13477 622.003242,1205.13477 C621.729803,1205.13477 621.402658,1205.20801 621.021797,1205.35449 L620.80207,1204.82715 L624.845039,1203.18652 L625.474922,1203.18652 L625.474922,1206.02832 Z M649.54793,1204.63672 L649.54793,1213.45508 C649.54793,1214.70508 649.684647,1215.49609 649.958086,1215.82812 C650.319416,1216.25781 650.802809,1216.47266 651.408281,1216.47266 L652.624102,1216.47266 L652.624102,1217 L644.611406,1217 L644.611406,1216.47266 L645.211992,1216.47266 C645.602619,1216.47266 645.959061,1216.375 646.281328,1216.17969 C646.603595,1215.98437 646.825761,1215.7207 646.947832,1215.38867 C647.069903,1215.05664 647.130937,1214.41211 647.130937,1213.45508 L647.130937,1204.63672 L644.523516,1204.63672 L644.523516,1203.58203 L647.130937,1203.58203 L647.130937,1202.70312 C647.130937,1201.36523 647.345779,1200.23243 647.775469,1199.30469 C648.205158,1198.37695 648.86189,1197.62744 649.745684,1197.05615 C650.629477,1196.48486 651.623119,1196.19922 652.726641,1196.19922 C653.752036,1196.19922 654.69441,1196.53125 655.553789,1197.19531 C656.120198,1197.63477 656.403398,1198.12793 656.403398,1198.6748 C656.403398,1198.96777 656.276447,1199.24365 656.022539,1199.50244 C655.768632,1199.76123 655.495197,1199.89062 655.202227,1199.89062 C654.977616,1199.89062 654.740802,1199.81006 654.491777,1199.64893 C654.242753,1199.48779 653.93758,1199.14112 653.57625,1198.60889 C653.21492,1198.07666 652.882892,1197.71777 652.580156,1197.53223 C652.27742,1197.34668 651.94051,1197.25391 651.569414,1197.25391 C651.120193,1197.25391 650.739337,1197.37353 650.426836,1197.61279 C650.114334,1197.85205 649.889727,1198.22314 649.753008,1198.72607 C649.616288,1199.22901 649.54793,1200.52538 649.54793,1202.61523 L649.54793,1203.58203 L653.004961,1203.58203 L653.004961,1204.63672 L649.54793,1204.63672 Z M660.976523,1203.18652 C663.007784,1203.18652 664.638627,1203.958 665.869102,1205.50098 C666.914029,1206.81934 667.436484,1208.333 667.436484,1210.04199 C667.436484,1211.24317 667.148401,1212.45898 666.572227,1213.68945 C665.996052,1214.91993 665.202603,1215.84765 664.191855,1216.47266 C663.181108,1217.09766 662.055631,1217.41016 660.815391,1217.41016 C658.793896,1217.41016 657.187467,1216.6045 655.996055,1214.99316 C654.99019,1213.63574 654.487266,1212.11231 654.487266,1210.42285 C654.487266,1209.19238 654.792438,1207.96924 655.402793,1206.75342 C656.013148,1205.53759 656.816362,1204.63916 657.812461,1204.05811 C658.80856,1203.47705 659.863237,1203.18652 660.976523,1203.18652 Z M660.522422,1204.13867 C660.004841,1204.13867 659.484827,1204.29248 658.962363,1204.6001 C658.4399,1204.90772 658.017541,1205.44726 657.695273,1206.21875 C657.373006,1206.99024 657.211875,1207.98144 657.211875,1209.19238 C657.211875,1211.14552 657.600055,1212.83007 658.376426,1214.24609 C659.152797,1215.66212 660.175736,1216.37012 661.445273,1216.37012 C662.392544,1216.37012 663.173786,1215.9795 663.789023,1215.19824 C664.404261,1214.41699 664.711875,1213.07423 664.711875,1211.16992 C664.711875,1208.7871 664.199185,1206.91212 663.173789,1205.54492 C662.480426,1204.60742 661.596646,1204.13867 660.522422,1204.13867 Z M668.992031,1203.58203 L675.305508,1203.58203 L675.305508,1204.12402 C674.905115,1204.12402 674.624356,1204.19238 674.463223,1204.3291 C674.302089,1204.46582 674.221523,1204.64648 674.221523,1204.87109 C674.221523,1205.10547 674.39242,1205.46679 674.734219,1205.95508 C674.841641,1206.11133 675.002772,1206.35547 675.217617,1206.6875 L676.169766,1208.21094 L677.268398,1206.6875 C677.971527,1205.7207 678.323086,1205.11035 678.323086,1204.85645 C678.323086,1204.65137 678.240079,1204.47803 678.074062,1204.33643 C677.908046,1204.19482 677.639494,1204.12402 677.268398,1204.12402 L677.268398,1203.58203 L681.809414,1203.58203 L681.809414,1204.12402 C681.330896,1204.15332 680.915861,1204.28516 680.564297,1204.51953 C680.085779,1204.85156 679.431488,1205.57421 678.601406,1206.6875 L676.770352,1209.13379 L680.110195,1213.93848 C680.930512,1215.12012 681.516444,1215.83057 681.868008,1216.06982 C682.219572,1216.30908 682.673669,1216.44336 683.230312,1216.47266 L683.230312,1217 L676.902187,1217 L676.902187,1216.47266 C677.341643,1216.47266 677.683436,1216.375 677.927578,1216.17969 C678.113126,1216.04297 678.205898,1215.86231 678.205898,1215.6377 C678.205898,1215.41308 677.893402,1214.84668 677.268398,1213.93848 L675.305508,1211.06738 L673.152187,1213.93848 C672.488122,1214.82715 672.156094,1215.35449 672.156094,1215.52051 C672.156094,1215.75488 672.265956,1215.96728 672.485684,1216.15771 C672.705411,1216.34815 673.034998,1216.45312 673.474453,1216.47266 L673.474453,1217 L669.09457,1217 L669.09457,1216.47266 C669.446135,1216.42383 669.753749,1216.30176 670.017422,1216.10645 C670.388517,1215.82324 671.013511,1215.10059 671.892422,1213.93848 L674.704922,1210.20312 L672.156094,1206.51172 C671.433434,1205.45703 670.874357,1204.79541 670.478848,1204.52686 C670.083338,1204.2583 669.587737,1204.12402 668.992031,1204.12402 L668.992031,1203.58203 Z M433.335938,1237.15527 C433.755861,1237.15527 434.112303,1237.30176 434.405273,1237.59473 C434.698244,1237.8877 434.844727,1238.24414 434.844727,1238.66406 C434.844727,1239.07422 434.698244,1239.42578 434.405273,1239.71875 C434.112303,1240.01172 433.755861,1240.1582 433.335938,1240.1582 C432.925779,1240.1582 432.57422,1240.01172 432.28125,1239.71875 C431.98828,1239.42578 431.841797,1239.07422 431.841797,1238.66406 C431.841797,1238.24414 431.98828,1237.8877 432.28125,1237.59473 C432.57422,1237.30176 432.925779,1237.15527 433.335938,1237.15527 Z M434.595703,1244.18652 L434.595703,1257.69238 C434.595703,1259.98732 434.107427,1261.6914 433.130859,1262.80469 C432.154292,1263.91797 430.884773,1264.47461 429.322266,1264.47461 C428.433589,1264.47461 427.774416,1264.31348 427.344727,1263.99121 C426.915037,1263.66894 426.700195,1263.33692 426.700195,1262.99512 C426.700195,1262.65332 426.819823,1262.36035 427.059082,1262.11621 C427.298341,1261.87207 427.5791,1261.75 427.901367,1261.75 C428.155275,1261.75 428.414061,1261.81348 428.677734,1261.94043 C428.843751,1262.00879 429.163572,1262.25537 429.637207,1262.68018 C430.110842,1263.10498 430.508787,1263.31738 430.831055,1263.31738 C431.065431,1263.31738 431.294921,1263.22705 431.519531,1263.04639 C431.744142,1262.86572 431.910156,1262.56299 432.017578,1262.13818 C432.125001,1261.71338 432.178711,1260.79298 432.178711,1259.37695 L432.178711,1249.82617 C432.178711,1248.35156 432.134766,1247.4043 432.046875,1246.98438 C431.978515,1246.66211 431.871094,1246.43994 431.724609,1246.31787 C431.578124,1246.1958 431.377931,1246.13477 431.124023,1246.13477 C430.850585,1246.13477 430.518557,1246.20801 430.12793,1246.35449 L429.922852,1245.82715 L433.96582,1244.18652 L434.595703,1244.18652 Z M450.155156,1244.58203 L450.155156,1252.71191 C450.155156,1254.26466 450.191777,1255.21435 450.26502,1255.56104 C450.338262,1255.90772 450.455448,1256.14941 450.616582,1256.28613 C450.777716,1256.42285 450.965702,1256.49121 451.180547,1256.49121 C451.483283,1256.49121 451.825076,1256.4082 452.205937,1256.24219 L452.411016,1256.75488 L448.397344,1258.41016 L447.738164,1258.41016 L447.738164,1255.56836 C446.585815,1256.81837 445.706917,1257.60449 445.101445,1257.92676 C444.495974,1258.24903 443.856331,1258.41016 443.1825,1258.41016 C442.430543,1258.41016 441.778694,1258.19287 441.226934,1257.7583 C440.675173,1257.32373 440.291876,1256.76465 440.077031,1256.08105 C439.862186,1255.39746 439.754766,1254.43067 439.754766,1253.18066 L439.754766,1247.18945 C439.754766,1246.55468 439.686407,1246.11524 439.549687,1245.87109 C439.412968,1245.62695 439.210333,1245.43897 438.941777,1245.30713 C438.673221,1245.17529 438.187386,1245.11426 437.484258,1245.12402 L437.484258,1244.58203 L442.186406,1244.58203 L442.186406,1253.56152 C442.186406,1254.81153 442.403689,1255.63183 442.838262,1256.02246 C443.272834,1256.41309 443.797731,1256.6084 444.412969,1256.6084 C444.832893,1256.6084 445.308962,1256.47656 445.841191,1256.21289 C446.373421,1255.94922 447.005739,1255.44629 447.738164,1254.7041 L447.738164,1247.10156 C447.738164,1246.33984 447.599005,1245.82471 447.320684,1245.55615 C447.042362,1245.2876 446.463754,1245.14355 445.584844,1245.12402 L445.584844,1244.58203 L450.155156,1244.58203 Z M457.496836,1247.04297 C458.473403,1246.0664 459.049569,1245.50488 459.225352,1245.3584 C459.664807,1244.9873 460.138435,1244.69922 460.64625,1244.49414 C461.154065,1244.28906 461.65699,1244.18652 462.155039,1244.18652 C462.994887,1244.18652 463.717536,1244.43066 464.323008,1244.91895 C464.92848,1245.40723 465.333749,1246.11523 465.538828,1247.04297 C466.544693,1245.87109 467.394293,1245.10205 468.087656,1244.73584 C468.781019,1244.36963 469.493903,1244.18652 470.226328,1244.18652 C470.939222,1244.18652 471.57154,1244.36963 472.123301,1244.73584 C472.675061,1245.10205 473.112069,1245.70019 473.434336,1246.53027 C473.649181,1247.09668 473.756602,1247.98535 473.756602,1249.19629 L473.756602,1254.96777 C473.756602,1255.80762 473.820077,1256.38379 473.947031,1256.69629 C474.044688,1256.91113 474.22535,1257.09424 474.489023,1257.24561 C474.752697,1257.39697 475.18238,1257.47266 475.778086,1257.47266 L475.778086,1258 L469.156992,1258 L469.156992,1257.47266 L469.435312,1257.47266 C470.011487,1257.47266 470.460702,1257.36035 470.782969,1257.13574 C471.007579,1256.97949 471.16871,1256.73047 471.266367,1256.38867 C471.30543,1256.22266 471.324961,1255.74903 471.324961,1254.96777 L471.324961,1249.19629 C471.324961,1248.10253 471.193126,1247.33106 470.929453,1246.88184 C470.548592,1246.25683 469.938246,1245.94434 469.098398,1245.94434 C468.580818,1245.94434 468.060803,1246.07373 467.53834,1246.33252 C467.015876,1246.59131 466.383558,1247.07226 465.641367,1247.77539 L465.61207,1247.93652 L465.641367,1248.56641 L465.641367,1254.96777 C465.641367,1255.88575 465.692636,1256.45703 465.795176,1256.68164 C465.897715,1256.90625 466.090585,1257.09424 466.373789,1257.24561 C466.656994,1257.39697 467.140387,1257.47266 467.823984,1257.47266 L467.823984,1258 L461.041758,1258 L461.041758,1257.47266 C461.783949,1257.47266 462.294198,1257.38477 462.57252,1257.20898 C462.850841,1257.0332 463.04371,1256.76953 463.151133,1256.41797 C463.199961,1256.25195 463.224375,1255.76856 463.224375,1254.96777 L463.224375,1249.19629 C463.224375,1248.10253 463.063244,1247.31641 462.740977,1246.83789 C462.311287,1246.21289 461.710707,1245.90039 460.939219,1245.90039 C460.411872,1245.90039 459.889417,1246.04199 459.371836,1246.3252 C458.561285,1246.75488 457.936291,1247.23828 457.496836,1247.77539 L457.496836,1254.96777 C457.496836,1255.84668 457.55787,1256.41797 457.679941,1256.68164 C457.802012,1256.94531 457.982675,1257.14307 458.221934,1257.2749 C458.461193,1257.40674 458.947028,1257.47266 459.679453,1257.47266 L459.679453,1258 L453.043711,1258 L453.043711,1257.47266 C453.658948,1257.47266 454.088632,1257.40674 454.332773,1257.2749 C454.576915,1257.14307 454.76246,1256.93311 454.889414,1256.64502 C455.016368,1256.35693 455.079844,1255.79786 455.079844,1254.96777 L455.079844,1249.84082 C455.079844,1248.3662 455.035899,1247.41406 454.948008,1246.98438 C454.879648,1246.66211 454.772227,1246.43994 454.625742,1246.31787 C454.479257,1246.1958 454.279064,1246.13477 454.025156,1246.13477 C453.751717,1246.13477 453.424572,1246.20801 453.043711,1246.35449 L452.823984,1245.82715 L456.866953,1244.18652 L457.496836,1244.18652 L457.496836,1247.04297 Z M476.000625,1245.91504 L480.131484,1244.24512 L480.688125,1244.24512 L480.688125,1247.37988 C481.381488,1246.19824 482.077282,1245.37061 482.775527,1244.89697 C483.473773,1244.42334 484.208629,1244.18652 484.980117,1244.18652 C486.32778,1244.18652 487.450816,1244.71386 488.349258,1245.76855 C489.452779,1247.05762 490.004531,1248.73729 490.004531,1250.80762 C490.004531,1253.12208 489.340475,1255.03613 488.012344,1256.5498 C486.918588,1257.79005 485.541649,1258.41016 483.881484,1258.41016 C483.158825,1258.41016 482.533831,1258.30762 482.006484,1258.10254 C481.615857,1257.95605 481.176409,1257.66309 480.688125,1257.22363 L480.688125,1261.31055 C480.688125,1262.22852 480.744277,1262.81201 480.856582,1263.06104 C480.968887,1263.31006 481.164198,1263.50781 481.44252,1263.6543 C481.720841,1263.80078 482.226207,1263.87402 482.958633,1263.87402 L482.958633,1264.41602 L475.927383,1264.41602 L475.927383,1263.87402 L476.293594,1263.87402 C476.830706,1263.88379 477.289686,1263.78125 477.670547,1263.56641 C477.856095,1263.45898 478.000136,1263.28565 478.102676,1263.04639 C478.205215,1262.80713 478.256484,1262.19922 478.256484,1261.22266 L478.256484,1248.53711 C478.256484,1247.66796 478.217422,1247.11621 478.139297,1246.88184 C478.061171,1246.64746 477.936661,1246.47168 477.765762,1246.35449 C477.594862,1246.2373 477.362931,1246.17871 477.069961,1246.17871 C476.835585,1246.17871 476.537736,1246.24707 476.176406,1246.38379 L476.000625,1245.91504 Z M480.688125,1248.24414 L480.688125,1253.25391 C480.688125,1254.3379 480.73207,1255.05078 480.819961,1255.39258 C480.95668,1255.95899 481.29115,1256.45703 481.823379,1256.88672 C482.355608,1257.31641 483.026988,1257.53125 483.837539,1257.53125 C484.814106,1257.53125 485.605114,1257.15039 486.210586,1256.38867 C487.001606,1255.39257 487.397109,1253.99122 487.397109,1252.18457 C487.397109,1250.13378 486.947895,1248.55665 486.049453,1247.45312 C485.42445,1246.6914 484.68227,1246.31055 483.822891,1246.31055 C483.354138,1246.31055 482.890276,1246.42773 482.431289,1246.66211 C482.079725,1246.83789 481.498676,1247.36523 480.688125,1248.24414 Z M500.759297,1244.18652 L500.759297,1248.75684 L500.275898,1248.75684 C499.904803,1247.32128 499.428733,1246.34473 498.847676,1245.82715 C498.266618,1245.30957 497.526879,1245.05078 496.628437,1245.05078 C495.94484,1245.05078 495.393088,1245.23144 494.973164,1245.59277 C494.55324,1245.9541 494.343281,1246.35449 494.343281,1246.79395 C494.343281,1247.34082 494.49953,1247.80957 494.812031,1248.2002 C495.114767,1248.60059 495.729995,1249.02539 496.657734,1249.47461 L498.796406,1250.51465 C500.778838,1251.48145 501.770039,1252.75585 501.770039,1254.33789 C501.770039,1255.5586 501.308618,1256.54248 500.385762,1257.28955 C499.462906,1258.03662 498.430201,1258.41016 497.287617,1258.41016 C496.467301,1258.41016 495.52981,1258.26367 494.475117,1257.9707 C494.15285,1257.87305 493.889181,1257.82422 493.684102,1257.82422 C493.459491,1257.82422 493.283712,1257.95117 493.156758,1258.20508 L492.673359,1258.20508 L492.673359,1253.41504 L493.156758,1253.41504 C493.430197,1254.78223 493.952652,1255.8125 494.724141,1256.50586 C495.495629,1257.19922 496.359878,1257.5459 497.316914,1257.5459 C497.990746,1257.5459 498.540056,1257.34815 498.964863,1256.95264 C499.38967,1256.55713 499.60207,1256.08106 499.60207,1255.52441 C499.60207,1254.85058 499.365256,1254.28418 498.891621,1253.8252 C498.417986,1253.36621 497.473171,1252.78516 496.057148,1252.08203 C494.641126,1251.3789 493.713401,1250.74414 493.273945,1250.17773 C492.83449,1249.62109 492.614766,1248.91797 492.614766,1248.06836 C492.614766,1246.96484 492.99318,1246.042 493.75002,1245.2998 C494.506859,1244.55761 495.485853,1244.18652 496.687031,1244.18652 C497.214378,1244.18652 497.85402,1244.29883 498.605977,1244.52344 C499.104026,1244.66992 499.436054,1244.74316 499.60207,1244.74316 C499.758321,1244.74316 499.88039,1244.70898 499.968281,1244.64062 C500.056172,1244.57227 500.15871,1244.4209 500.275898,1244.18652 L500.759297,1244.18652 Z M518.064727,1244.18652 C520.095987,1244.18652 521.72683,1244.958 522.957305,1246.50098 C524.002232,1247.81934 524.524687,1249.333 524.524687,1251.04199 C524.524687,1252.24317 524.236604,1253.45898 523.66043,1254.68945 C523.084255,1255.91993 522.290806,1256.84765 521.280059,1257.47266 C520.269311,1258.09766 519.143834,1258.41016 517.903594,1258.41016 C515.882099,1258.41016 514.27567,1257.6045 513.084258,1255.99316 C512.078393,1254.63574 511.575469,1253.11231 511.575469,1251.42285 C511.575469,1250.19238 511.880641,1248.96924 512.490996,1247.75342 C513.101351,1246.53759 513.904565,1245.63916 514.900664,1245.05811 C515.896763,1244.47705 516.95144,1244.18652 518.064727,1244.18652 Z M517.610625,1245.13867 C517.093044,1245.13867 516.57303,1245.29248 516.050566,1245.6001 C515.528103,1245.90772 515.105744,1246.44726 514.783477,1247.21875 C514.461209,1247.99024 514.300078,1248.98144 514.300078,1250.19238 C514.300078,1252.14552 514.688258,1253.83007 515.464629,1255.24609 C516.241,1256.66212 517.263939,1257.37012 518.533477,1257.37012 C519.480747,1257.37012 520.261989,1256.9795 520.877227,1256.19824 C521.492464,1255.41699 521.800078,1254.07423 521.800078,1252.16992 C521.800078,1249.7871 521.287388,1247.91212 520.261992,1246.54492 C519.568629,1245.60742 518.684849,1245.13867 517.610625,1245.13867 Z M525.93375,1244.58203 L532.247227,1244.58203 L532.247227,1245.12402 L531.83707,1245.12402 C531.456209,1245.12402 531.165685,1245.2168 530.965488,1245.40234 C530.765292,1245.58789 530.665195,1245.83691 530.665195,1246.14941 C530.665195,1246.49121 530.767733,1246.89648 530.972812,1247.36523 L534.09293,1254.77734 L537.227695,1247.08691 C537.452306,1246.54004 537.564609,1246.125 537.564609,1245.8418 C537.564609,1245.70508 537.525547,1245.59277 537.447422,1245.50488 C537.339999,1245.3584 537.203282,1245.2583 537.037266,1245.20459 C536.871249,1245.15088 536.534338,1245.12402 536.026523,1245.12402 L536.026523,1244.58203 L540.406406,1244.58203 L540.406406,1245.12402 C539.898591,1245.16309 539.547032,1245.26562 539.351719,1245.43164 C539.00992,1245.72461 538.702306,1246.21289 538.428867,1246.89648 L533.668125,1258.41016 L533.067539,1258.41016 L528.2775,1247.08691 C528.062655,1246.55957 527.857579,1246.18115 527.662266,1245.95166 C527.466952,1245.72217 527.217931,1245.5293 526.915195,1245.37305 C526.749179,1245.28516 526.422034,1245.20215 525.93375,1245.12402 L525.93375,1244.58203 Z M543.998086,1249.63574 C543.98832,1251.62794 544.471714,1253.19042 545.448281,1254.32324 C546.424849,1255.45606 547.572298,1256.02246 548.890664,1256.02246 C549.769575,1256.02246 550.533727,1255.78076 551.183145,1255.29736 C551.832562,1254.81396 552.37699,1253.98633 552.816445,1252.81445 L553.270547,1253.10742 C553.065468,1254.44532 552.469771,1255.66357 551.483437,1256.76221 C550.497104,1257.86085 549.261765,1258.41016 547.777383,1258.41016 C546.166047,1258.41016 544.786666,1257.78272 543.639199,1256.52783 C542.491733,1255.27294 541.918008,1253.58595 541.918008,1251.4668 C541.918008,1249.17186 542.506381,1247.38233 543.683145,1246.09814 C544.859908,1244.81396 546.336944,1244.17188 548.114297,1244.17188 C549.618211,1244.17188 550.85355,1244.66748 551.820352,1245.65869 C552.787153,1246.64991 553.270547,1247.97558 553.270547,1249.63574 L543.998086,1249.63574 Z M543.998086,1248.78613 L550.209023,1248.78613 C550.160195,1247.92675 550.057657,1247.32129 549.901406,1246.96973 C549.657264,1246.42285 549.293498,1245.99317 548.810098,1245.68066 C548.326697,1245.36816 547.821331,1245.21191 547.293984,1245.21191 C546.483433,1245.21191 545.758343,1245.52685 545.118691,1246.15674 C544.47904,1246.78662 544.105508,1247.66308 543.998086,1248.78613 Z M559.103437,1244.18652 L559.103437,1247.2041 C560.22649,1245.19237 561.378822,1244.18652 562.560469,1244.18652 C563.097581,1244.18652 563.541912,1244.3501 563.893477,1244.67725 C564.245041,1245.0044 564.42082,1245.38281 564.42082,1245.8125 C564.42082,1246.19336 564.293868,1246.51562 564.039961,1246.7793 C563.786053,1247.04297 563.483322,1247.1748 563.131758,1247.1748 C562.789959,1247.1748 562.406662,1247.00635 561.981855,1246.66943 C561.557049,1246.33252 561.24211,1246.16406 561.037031,1246.16406 C560.861249,1246.16406 560.670821,1246.26172 560.465742,1246.45703 C560.026287,1246.85742 559.57219,1247.5166 559.103437,1248.43457 L559.103437,1254.86523 C559.103437,1255.60743 559.19621,1256.16894 559.381758,1256.5498 C559.508712,1256.81348 559.733319,1257.0332 560.055586,1257.20898 C560.377853,1257.38477 560.841716,1257.47266 561.447187,1257.47266 L561.447187,1258 L554.57707,1258 L554.57707,1257.47266 C555.260667,1257.47266 555.768475,1257.36524 556.100508,1257.15039 C556.34465,1256.99414 556.515546,1256.74512 556.613203,1256.40332 C556.662031,1256.2373 556.686445,1255.76368 556.686445,1254.98242 L556.686445,1249.78223 C556.686445,1248.21972 556.654707,1247.28955 556.59123,1246.9917 C556.527754,1246.69385 556.410567,1246.47656 556.239668,1246.33984 C556.068769,1246.20312 555.856368,1246.13477 555.602461,1246.13477 C555.299725,1246.13477 554.957932,1246.20801 554.57707,1246.35449 L554.430586,1245.82715 L558.488203,1244.18652 L559.103437,1244.18652 Z M576.804375,1240.17285 L576.804375,1244.58203 L579.939141,1244.58203 L579.939141,1245.60742 L576.804375,1245.60742 L576.804375,1254.30859 C576.804375,1255.17774 576.928885,1255.76367 577.17791,1256.06641 C577.426935,1256.36914 577.746756,1256.52051 578.137383,1256.52051 C578.45965,1256.52051 578.772147,1256.42041 579.074883,1256.22021 C579.377619,1256.02002 579.611991,1255.72461 579.778008,1255.33398 L580.349297,1255.33398 C580.007498,1256.29102 579.524105,1257.01123 578.899102,1257.49463 C578.274098,1257.97803 577.629574,1258.21973 576.965508,1258.21973 C576.516287,1258.21973 576.076838,1258.09522 575.647148,1257.84619 C575.217459,1257.59717 574.900079,1257.24072 574.695,1256.77686 C574.489921,1256.31299 574.387383,1255.59766 574.387383,1254.63086 L574.387383,1245.60742 L572.263359,1245.60742 L572.263359,1245.12402 C572.800471,1244.90918 573.349782,1244.54541 573.911309,1244.03271 C574.472835,1243.52002 574.973318,1242.91211 575.412773,1242.20898 C575.637384,1241.83789 575.949881,1241.15918 576.350273,1240.17285 L576.804375,1240.17285 Z M585.303281,1237.16992 L585.303281,1246.98438 C586.387271,1245.79296 587.246637,1245.02881 587.881406,1244.69189 C588.516175,1244.35498 589.150934,1244.18652 589.785703,1244.18652 C590.547426,1244.18652 591.201716,1244.39648 591.748594,1244.81641 C592.295471,1245.23633 592.700741,1245.8955 592.964414,1246.79395 C593.149962,1247.41895 593.242734,1248.56152 593.242734,1250.22168 L593.242734,1254.96777 C593.242734,1255.81739 593.311093,1256.39844 593.447812,1256.71094 C593.545469,1256.94531 593.711483,1257.13086 593.945859,1257.26758 C594.180236,1257.4043 594.609919,1257.47266 595.234922,1257.47266 L595.234922,1258 L588.643125,1258 L588.643125,1257.47266 L588.950742,1257.47266 C589.575745,1257.47266 590.010311,1257.37744 590.254453,1257.18701 C590.498595,1256.99658 590.669492,1256.71582 590.767148,1256.34473 C590.796445,1256.18848 590.811094,1255.7295 590.811094,1254.96777 L590.811094,1250.22168 C590.811094,1248.75683 590.735411,1247.79492 590.584043,1247.33594 C590.432675,1246.87695 590.190978,1246.53272 589.858945,1246.30322 C589.526912,1246.07373 589.126526,1245.95898 588.657773,1245.95898 C588.179255,1245.95898 587.681213,1246.08594 587.163633,1246.33984 C586.646052,1246.59375 586.025941,1247.10644 585.303281,1247.87793 L585.303281,1254.96777 C585.303281,1255.88575 585.35455,1256.45703 585.45709,1256.68164 C585.559629,1256.90625 585.750057,1257.09424 586.028379,1257.24561 C586.306701,1257.39697 586.787653,1257.47266 587.47125,1257.47266 L587.47125,1258 L580.820859,1258 L580.820859,1257.47266 C581.416565,1257.47266 581.885311,1257.37988 582.227109,1257.19434 C582.422423,1257.09668 582.578671,1256.91113 582.695859,1256.6377 C582.813047,1256.36426 582.871641,1255.80762 582.871641,1254.96777 L582.871641,1242.82422 C582.871641,1241.29101 582.83502,1240.34863 582.761777,1239.99707 C582.688535,1239.64551 582.576231,1239.40625 582.424863,1239.2793 C582.273495,1239.15234 582.070861,1239.08887 581.816953,1239.08887 C581.611874,1239.08887 581.279846,1239.16699 580.820859,1239.32324 L580.615781,1238.81055 L584.629453,1237.16992 L585.303281,1237.16992 Z M598.738711,1249.63574 C598.728945,1251.62794 599.212339,1253.19042 600.188906,1254.32324 C601.165474,1255.45606 602.312923,1256.02246 603.631289,1256.02246 C604.5102,1256.02246 605.274352,1255.78076 605.923769,1255.29736 C606.573187,1254.81396 607.117615,1253.98633 607.55707,1252.81445 L608.011172,1253.10742 C607.806093,1254.44532 607.210396,1255.66357 606.224062,1256.76221 C605.237729,1257.86085 604.00239,1258.41016 602.518008,1258.41016 C600.906672,1258.41016 599.527291,1257.78272 598.379824,1256.52783 C597.232358,1255.27294 596.658633,1253.58595 596.658633,1251.4668 C596.658633,1249.17186 597.247006,1247.38233 598.423769,1246.09814 C599.600533,1244.81396 601.077569,1244.17188 602.854922,1244.17188 C604.358836,1244.17188 605.594175,1244.66748 606.560977,1245.65869 C607.527778,1246.64991 608.011172,1247.97558 608.011172,1249.63574 L598.738711,1249.63574 Z M598.738711,1248.78613 L604.949648,1248.78613 C604.90082,1247.92675 604.798282,1247.32129 604.642031,1246.96973 C604.397889,1246.42285 604.034123,1245.99317 603.550723,1245.68066 C603.067322,1245.36816 602.561956,1245.21191 602.034609,1245.21191 C601.224058,1245.21191 600.498968,1245.52685 599.859316,1246.15674 C599.219665,1246.78662 598.846133,1247.66308 598.738711,1248.78613 Z M622.152539,1237.16992 L622.152539,1254.96777 C622.152539,1255.80762 622.213574,1256.36426 622.335644,1256.6377 C622.457715,1256.91113 622.645702,1257.11865 622.899609,1257.26025 C623.153517,1257.40186 623.627145,1257.47266 624.320508,1257.47266 L624.320508,1258 L617.743359,1258 L617.743359,1257.47266 C618.358597,1257.47266 618.778514,1257.40918 619.003125,1257.28223 C619.227735,1257.15527 619.403515,1256.94531 619.530469,1256.65234 C619.657422,1256.35937 619.720898,1255.79786 619.720898,1254.96777 L619.720898,1242.78027 C619.720898,1241.26659 619.686719,1240.33643 619.618359,1239.98975 C619.55,1239.64306 619.440137,1239.40625 619.288769,1239.2793 C619.137402,1239.15234 618.944532,1239.08887 618.710156,1239.08887 C618.456249,1239.08887 618.133986,1239.16699 617.743359,1239.32324 L617.494336,1238.81055 L621.493359,1237.16992 L622.152539,1237.16992 Z M633.595781,1256.06641 C632.218821,1257.13086 631.354572,1257.74609 631.003008,1257.91211 C630.475661,1258.15625 629.914144,1258.27832 629.318437,1258.27832 C628.390698,1258.27832 627.626546,1257.96094 627.025957,1257.32617 C626.425368,1256.6914 626.125078,1255.85645 626.125078,1254.82129 C626.125078,1254.16699 626.271561,1253.60059 626.564531,1253.12207 C626.964924,1252.458 627.660718,1251.83301 628.651934,1251.24707 C629.643149,1250.66113 631.291082,1249.94825 633.595781,1249.1084 L633.595781,1248.58105 C633.595781,1247.24316 633.383381,1246.3252 632.958574,1245.82715 C632.533767,1245.3291 631.916098,1245.08008 631.105547,1245.08008 C630.490309,1245.08008 630.002033,1245.24609 629.640703,1245.57812 C629.269607,1245.91016 629.084062,1246.29101 629.084062,1246.7207 L629.113359,1247.57031 C629.113359,1248.01953 628.998614,1248.36621 628.769121,1248.61035 C628.539628,1248.85449 628.239338,1248.97656 627.868242,1248.97656 C627.506912,1248.97656 627.211505,1248.84961 626.982012,1248.5957 C626.752518,1248.3418 626.637773,1247.99512 626.637773,1247.55566 C626.637773,1246.71582 627.067457,1245.94434 627.926836,1245.24121 C628.786215,1244.53808 629.992258,1244.18652 631.545,1244.18652 C632.736412,1244.18652 633.712965,1244.38672 634.474687,1244.78711 C635.050862,1245.08985 635.475663,1245.56347 635.749102,1246.20801 C635.924884,1246.62793 636.012773,1247.4873 636.012773,1248.78613 L636.012773,1253.3418 C636.012773,1254.6211 636.037187,1255.40478 636.086016,1255.69287 C636.134844,1255.98096 636.21541,1256.17383 636.327715,1256.27148 C636.44002,1256.36914 636.569413,1256.41797 636.715898,1256.41797 C636.872149,1256.41797 637.008867,1256.38379 637.126055,1256.31543 C637.331134,1256.18848 637.726638,1255.83203 638.312578,1255.24609 L638.312578,1256.06641 C637.218823,1257.53126 636.173911,1258.26367 635.177812,1258.26367 C634.699294,1258.26367 634.318439,1258.09766 634.035234,1257.76562 C633.75203,1257.43359 633.605547,1256.86719 633.595781,1256.06641 Z M633.595781,1255.11426 L633.595781,1250.00195 C632.121164,1250.58789 631.169026,1251.00293 630.739336,1251.24707 C629.967848,1251.67676 629.416095,1252.12597 629.084062,1252.59473 C628.75203,1253.06348 628.586016,1253.57617 628.586016,1254.13281 C628.586016,1254.83594 628.795974,1255.41943 629.215898,1255.8833 C629.635822,1256.34717 630.119216,1256.5791 630.666094,1256.5791 C631.408285,1256.5791 632.384838,1256.09083 633.595781,1255.11426 Z M651.088828,1253.88379 L650.927695,1258 L639.091758,1258 L639.091758,1257.47266 L647.998008,1245.60742 L643.603477,1245.60742 C642.656206,1245.60742 642.036095,1245.66846 641.743125,1245.79053 C641.450155,1245.9126 641.210899,1246.14453 641.025352,1246.48633 C640.761678,1246.97461 640.610313,1247.58007 640.57125,1248.30273 L639.985312,1248.30273 L640.073203,1244.58203 L651.323203,1244.58203 L651.323203,1245.12402 L642.329062,1257.01855 L647.221641,1257.01855 C648.247036,1257.01855 648.94283,1256.93311 649.309043,1256.76221 C649.675256,1256.59131 649.970663,1256.29102 650.195273,1255.86133 C650.351524,1255.54883 650.483359,1254.88965 650.590781,1253.88379 L651.088828,1253.88379 Z M652.102383,1244.58203 L658.357266,1244.58203 L658.357266,1245.12402 L658.049648,1245.12402 C657.610193,1245.12402 657.280607,1245.21924 657.060879,1245.40967 C656.841151,1245.6001 656.731289,1245.83691 656.731289,1246.12012 C656.731289,1246.50098 656.89242,1247.02832 657.214687,1247.70215 L660.481289,1254.46973 L663.484219,1247.05762 C663.650235,1246.65722 663.733242,1246.26172 663.733242,1245.87109 C663.733242,1245.69531 663.699063,1245.56348 663.630703,1245.47559 C663.552578,1245.36816 663.430509,1245.28272 663.264492,1245.21924 C663.098476,1245.15576 662.80551,1245.12402 662.385586,1245.12402 L662.385586,1244.58203 L666.75082,1244.58203 L666.75082,1245.12402 C666.38949,1245.16309 666.111173,1245.24121 665.915859,1245.3584 C665.720546,1245.47559 665.505704,1245.69531 665.271328,1246.01758 C665.183437,1246.1543 665.017423,1246.53027 664.773281,1247.14551 L659.309414,1260.53418 C658.782068,1261.83301 658.091157,1262.81445 657.23666,1263.47852 C656.382164,1264.14258 655.559418,1264.47461 654.768398,1264.47461 C654.192224,1264.47461 653.718596,1264.3086 653.3475,1263.97656 C652.976404,1263.64453 652.790859,1263.26367 652.790859,1262.83398 C652.790859,1262.42383 652.925135,1262.09424 653.193691,1261.84521 C653.462247,1261.59619 653.830896,1261.47168 654.299648,1261.47168 C654.621916,1261.47168 655.061364,1261.5791 655.618008,1261.79395 C656.008635,1261.94043 656.252773,1262.01367 656.35043,1262.01367 C656.6434,1262.01367 656.963221,1261.86231 657.309902,1261.55957 C657.656584,1261.25683 658.005701,1260.6709 658.357266,1259.80176 L659.309414,1257.47266 L654.490078,1247.35059 C654.343593,1247.04785 654.10922,1246.67188 653.786953,1246.22266 C653.542811,1245.88086 653.342618,1245.65137 653.186367,1245.53418 C652.961757,1245.37793 652.600432,1245.24121 652.102383,1245.12402 L652.102383,1244.58203 Z M685.081641,1256.49121 C684.42734,1257.17481 683.787698,1257.66553 683.162695,1257.96338 C682.537692,1258.26123 681.863871,1258.41016 681.141211,1258.41016 C679.67636,1258.41016 678.397076,1257.79737 677.30332,1256.57178 C676.209565,1255.34619 675.662695,1253.77149 675.662695,1251.84766 C675.662695,1249.92382 676.268158,1248.16358 677.479102,1246.56689 C678.690045,1244.97021 680.247647,1244.17188 682.151953,1244.17188 C683.3336,1244.17188 684.310152,1244.54785 685.081641,1245.2998 L685.081641,1242.82422 C685.081641,1241.29101 685.04502,1240.34863 684.971777,1239.99707 C684.898535,1239.64551 684.78379,1239.40625 684.627539,1239.2793 C684.471288,1239.15234 684.275978,1239.08887 684.041602,1239.08887 C683.787694,1239.08887 683.450783,1239.16699 683.030859,1239.32324 L682.84043,1238.81055 L686.839453,1237.16992 L687.498633,1237.16992 L687.498633,1252.68262 C687.498633,1254.25489 687.535253,1255.21435 687.608496,1255.56104 C687.681739,1255.90772 687.798925,1256.14941 687.960059,1256.28613 C688.121192,1256.42285 688.309179,1256.49121 688.524023,1256.49121 C688.787697,1256.49121 689.139256,1256.4082 689.578711,1256.24219 L689.739844,1256.75488 L685.755469,1258.41016 L685.081641,1258.41016 L685.081641,1256.49121 Z M685.081641,1255.46582 L685.081641,1248.55176 C685.023047,1247.88769 684.847267,1247.28223 684.554297,1246.73535 C684.261327,1246.18847 683.873147,1245.77588 683.389746,1245.49756 C682.906345,1245.21924 682.435158,1245.08008 681.976172,1245.08008 C681.116793,1245.08008 680.350199,1245.46582 679.676367,1246.2373 C678.787691,1247.25293 678.343359,1248.73729 678.343359,1250.69043 C678.343359,1252.6631 678.773043,1254.17431 679.632422,1255.22412 C680.491801,1256.27393 681.448823,1256.79883 682.503516,1256.79883 C683.392192,1256.79883 684.251558,1256.3545 685.081641,1255.46582 Z M697.286602,1244.18652 C699.317862,1244.18652 700.948705,1244.958 702.17918,1246.50098 C703.224107,1247.81934 703.746562,1249.333 703.746562,1251.04199 C703.746562,1252.24317 703.458479,1253.45898 702.882305,1254.68945 C702.30613,1255.91993 701.512681,1256.84765 700.501934,1257.47266 C699.491186,1258.09766 698.365709,1258.41016 697.125469,1258.41016 C695.103974,1258.41016 693.497545,1257.6045 692.306133,1255.99316 C691.300268,1254.63574 690.797344,1253.11231 690.797344,1251.42285 C690.797344,1250.19238 691.102516,1248.96924 691.712871,1247.75342 C692.323226,1246.53759 693.12644,1245.63916 694.122539,1245.05811 C695.118638,1244.47705 696.173315,1244.18652 697.286602,1244.18652 Z M696.8325,1245.13867 C696.314919,1245.13867 695.794905,1245.29248 695.272441,1245.6001 C694.749978,1245.90772 694.327619,1246.44726 694.005352,1247.21875 C693.683084,1247.99024 693.521953,1248.98144 693.521953,1250.19238 C693.521953,1252.14552 693.910133,1253.83007 694.686504,1255.24609 C695.462875,1256.66212 696.485814,1257.37012 697.755352,1257.37012 C698.702622,1257.37012 699.483864,1256.9795 700.099102,1256.19824 C700.714339,1255.41699 701.021953,1254.07423 701.021953,1252.16992 C701.021953,1249.7871 700.509263,1247.91212 699.483867,1246.54492 C698.790504,1245.60742 697.906724,1245.13867 696.8325,1245.13867 Z M709.432969,1253.10742 C708.612652,1252.70703 707.982776,1252.14795 707.54332,1251.43018 C707.103865,1250.7124 706.884141,1249.91895 706.884141,1249.0498 C706.884141,1247.72167 707.384624,1246.57911 708.385605,1245.62207 C709.386587,1244.66503 710.668312,1244.18652 712.23082,1244.18652 C713.510124,1244.18652 714.618511,1244.49902 715.556016,1245.12402 L718.397812,1245.12402 C718.817736,1245.12402 719.061875,1245.13623 719.130234,1245.16064 C719.198594,1245.18506 719.247422,1245.22656 719.276719,1245.28516 C719.335313,1245.37305 719.364609,1245.5293 719.364609,1245.75391 C719.364609,1246.00781 719.340195,1246.18359 719.291367,1246.28125 C719.26207,1246.33008 719.210801,1246.36914 719.137559,1246.39844 C719.064316,1246.42773 718.817736,1246.44238 718.397812,1246.44238 L716.654648,1246.44238 C717.201526,1247.14551 717.474961,1248.04394 717.474961,1249.1377 C717.474961,1250.3877 716.99645,1251.45703 716.039414,1252.3457 C715.082378,1253.23438 713.798211,1253.67871 712.186875,1253.67871 C711.522809,1253.67871 710.844105,1253.58106 710.150742,1253.38574 C709.721052,1253.75684 709.430528,1254.08154 709.27916,1254.35986 C709.127792,1254.63818 709.052109,1254.875 709.052109,1255.07031 C709.052109,1255.23633 709.132675,1255.39746 709.293809,1255.55371 C709.454942,1255.70996 709.76988,1255.82227 710.238633,1255.89062 C710.512072,1255.92969 711.195659,1255.96387 712.289414,1255.99316 C714.301143,1256.04199 715.604841,1256.11035 716.200547,1256.19824 C717.108754,1256.3252 717.833845,1256.66211 718.37584,1257.20898 C718.917835,1257.75586 719.188828,1258.42968 719.188828,1259.23047 C719.188828,1260.33399 718.671255,1261.36914 717.636094,1262.33594 C716.112649,1263.76173 714.125364,1264.47461 711.67418,1264.47461 C709.789405,1264.47461 708.197624,1264.04981 706.898789,1263.2002 C706.166363,1262.71191 705.800156,1262.2041 705.800156,1261.67676 C705.800156,1261.44238 705.853867,1261.20801 705.961289,1260.97363 C706.127305,1260.6123 706.469099,1260.10938 706.98668,1259.46484 C707.055039,1259.37695 707.553081,1258.84961 708.48082,1257.88281 C707.973005,1257.58008 707.614122,1257.30908 707.40416,1257.06982 C707.194198,1256.83057 707.089219,1256.55957 707.089219,1256.25684 C707.089219,1255.91504 707.228377,1255.51465 707.506699,1255.05566 C707.785021,1254.59668 708.427104,1253.94727 709.432969,1253.10742 Z M711.981797,1244.88965 C711.259137,1244.88965 710.653674,1245.17773 710.165391,1245.75391 C709.677107,1246.33008 709.432969,1247.21386 709.432969,1248.40527 C709.432969,1249.94825 709.764997,1251.14453 710.429062,1251.99414 C710.936877,1252.63868 711.581402,1252.96094 712.362656,1252.96094 C713.104847,1252.96094 713.715193,1252.68262 714.193711,1252.12598 C714.672229,1251.56933 714.911484,1250.69532 714.911484,1249.50391 C714.911484,1247.95116 714.574574,1246.73536 713.900742,1245.85645 C713.402693,1245.21191 712.763051,1244.88965 711.981797,1244.88965 Z M709.286484,1258 C708.827498,1258.49805 708.480821,1258.96191 708.246445,1259.3916 C708.012069,1259.82129 707.894883,1260.2168 707.894883,1260.57812 C707.894883,1261.04688 708.178083,1261.45703 708.744492,1261.80859 C709.72106,1262.41407 711.132178,1262.7168 712.977891,1262.7168 C714.735712,1262.7168 716.032086,1262.40674 716.867051,1261.78662 C717.702016,1261.1665 718.119492,1260.50489 718.119492,1259.80176 C718.119492,1259.29394 717.870471,1258.93262 717.372422,1258.71777 C716.864607,1258.50293 715.858757,1258.37598 714.354844,1258.33691 C712.157567,1258.27832 710.468131,1258.16602 709.286484,1258 Z" id="The-quick-brown-fox-Copy-3"></path>
        </g>
    </g>
</svg>