<?xml version="1.0" encoding="UTF-8"?>
<svg width="356px" height="64px" viewBox="0 0 356 64" version="1.1" xmlns="http://www.w3.org/2000/svg" xmlns:xlink="http://www.w3.org/1999/xlink">
    <!-- Generator: Sketch 50.2 (55047) - http://www.bohemiancoding.com/sketch -->
    <title>The quick brown fox</title>
    <desc>Created with Sketch.</desc>
    <defs></defs>
    <g id="Page-1" stroke="none" stroke-width="1" fill="none" fill-rule="evenodd">
        <g id="Desktop-HD-Copy-2" transform="translate(-1009.000000, -587.000000)" fill="#333333">
            <g id="Group-10" transform="translate(1010.000000, 581.000000)">
                <g id="Group-8" transform="translate(2.000000, 0.000000)">
                    <path d="M19.44,12.79 L13.14,12.79 L13.14,28 L7.02,28 L7.02,12.79 L0.66,12.79 L0.66,8.2 L19.44,8.2 L19.44,12.79 Z M35.985,14.05 C36.8550044,14.9500045 37.29,16.2199918 37.29,17.86 L37.29,28 L31.23,28 L31.23,19.48 C31.23,18.6599959 31.1000013,18.0800017 30.84,17.74 C30.5799987,17.3999983 30.2000025,17.23 29.7,17.23 C29.0799969,17.23 28.5850019,17.4699976 28.215,17.95 C27.8449982,18.4300024 27.66,19.1499952 27.66,20.11 L27.66,28 L21.6,28 L21.6,6.82 L27.66,6.82 L27.66,15.91 C28.1000022,14.8499947 28.719996,14.0500027 29.52,13.51 C30.320004,12.9699973 31.2699945,12.7 32.37,12.7 C33.9100077,12.7 35.1149956,13.1499955 35.985,14.05 Z M55.26,21.88 L45.39,21.88 C45.5100006,22.7200042 45.7799979,23.3099983 46.2,23.65 C46.6200021,23.9900017 47.2099962,24.16 47.97,24.16 C49.1900061,24.16 49.9399986,23.6800048 50.22,22.72 L55.11,24.13 C54.7299981,25.4900068 53.9050063,26.5249965 52.635,27.235 C51.3649936,27.9450035 49.8100092,28.3 47.97,28.3 C45.2499864,28.3 43.1700072,27.6250067 41.73,26.275 C40.2899928,24.9249932 39.57,23.0000125 39.57,20.5 C39.57,18.0199876 40.2749929,16.1000068 41.685,14.74 C43.095007,13.3799932 45.0799872,12.7 47.64,12.7 C50.1400125,12.7 52.0599933,13.3649934 53.4,14.695 C54.7400067,16.0250066 55.41,17.8399885 55.41,20.14 C55.41,20.8600036 55.3600005,21.4399978 55.26,21.88 Z M46.125,17.38 C45.7549981,17.7600019 45.5100006,18.3799957 45.39,19.24 L49.74,19.24 C49.6399995,18.4199959 49.4250016,17.810002 49.095,17.41 C48.7649983,17.009998 48.2900031,16.81 47.67,16.81 C47.0099967,16.81 46.4950018,16.9999981 46.125,17.38 Z M81.6,13 L81.6,34.3 L75.54,34.3 L75.54,25.45 C75.139998,26.3500045 74.5700037,27.0499975 73.83,27.55 C73.0899963,28.0500025 72.2000052,28.3 71.16,28.3 C69.2799906,28.3 67.8150052,27.6100069 66.765,26.23 C65.7149948,24.8499931 65.19,22.9200124 65.19,20.44 C65.19,17.9999878 65.7099948,16.1000068 66.75,14.74 C67.7900052,13.3799932 69.2499906,12.7 71.13,12.7 C72.330006,12.7 73.3549958,13.0249967 74.205,13.675 C75.0550042,14.3250032 75.6899979,15.2099944 76.11,16.33 L76.26,13 L81.6,13 Z M75.54,21.07 L75.54,19.93 C75.4799997,18.9499951 75.2700018,18.2200024 74.91,17.74 C74.5499982,17.2599976 74.070003,17.02 73.47,17.02 C72.7699965,17.02 72.2350019,17.2899973 71.865,17.83 C71.4949982,18.3700027 71.31,19.2599938 71.31,20.5 C71.31,21.7400062 71.4899982,22.6249974 71.85,23.155 C72.2100018,23.6850027 72.7499964,23.95 73.47,23.95 C74.7700065,23.95 75.4599996,22.9900096 75.54,21.07 Z M100.2,13 L100.2,28 L94.74,28 L94.59,25.03 C93.6899955,27.2100109 91.9800126,28.3 89.46,28.3 C86.1399834,28.3 84.48,26.5600174 84.48,23.08 L84.48,13 L90.54,13 L90.54,21.58 C90.54,22.380004 90.6649988,22.9449983 90.915,23.275 C91.1650013,23.6050017 91.5599973,23.77 92.1,23.77 C92.7400032,23.77 93.2399982,23.5300024 93.6,23.05 C93.9600018,22.5699976 94.14,21.8500048 94.14,20.89 L94.14,13 L100.2,13 Z M103.56,11.05 C103.039997,10.6299979 102.78,9.9500047 102.78,9.01 C102.78,8.0499952 103.039997,7.3600021 103.56,6.94 C104.080003,6.5199979 104.949994,6.31 106.17,6.31 C107.390006,6.31 108.259997,6.5199979 108.78,6.94 C109.300003,7.3600021 109.56,8.0499952 109.56,9.01 C109.56,9.9500047 109.300003,10.6299979 108.78,11.05 C108.259997,11.4700021 107.390006,11.68 106.17,11.68 C104.949994,11.68 104.080003,11.4700021 103.56,11.05 Z M109.2,28 L103.14,28 L103.14,13 L109.2,13 L109.2,28 Z M125.205,14.095 C126.395006,15.0250046 127.069999,16.189993 127.23,17.59 L121.62,19.3 C121.56,17.6799919 120.990005,16.87 119.91,16.87 C119.109996,16.87 118.525002,17.1549971 118.155,17.725 C117.784998,18.2950029 117.6,19.2399934 117.6,20.56 C117.6,21.8800066 117.794998,22.8049974 118.185,23.335 C118.575002,23.8650027 119.139996,24.13 119.88,24.13 C120.960005,24.13 121.589999,23.4000073 121.77,21.94 L127.2,23.65 C127.14,24.5100043 126.815003,25.2949964 126.225,26.005 C125.634997,26.7150035 124.805005,27.2749979 123.735,27.685 C122.664995,28.095002 121.390007,28.3 119.91,28.3 C117.189986,28.3 115.110007,27.6250067 113.67,26.275 C112.229993,24.9249932 111.51,23.0000125 111.51,20.5 C111.51,18.0199876 112.219993,16.1000068 113.64,14.74 C115.060007,13.3799932 117.049987,12.7 119.61,12.7 C122.150013,12.7 124.014994,13.1649953 125.205,14.095 Z M137.58,22.33 L135.42,24.85 L135.42,28 L129.36,28 L129.36,6.82 L135.42,6.82 L135.42,18.79 L140.43,13 L147.03,13 L141.6,18.88 L147.36,28 L140.7,28 L137.58,22.33 Z M171.42,14.77 C172.460005,16.1500069 172.98,18.0799876 172.98,20.56 C172.98,23.0200123 172.465005,24.9249932 171.435,26.275 C170.404995,27.6250067 168.950009,28.3 167.07,28.3 C165.869994,28.3 164.840004,27.9750033 163.98,27.325 C163.119996,26.6749967 162.490002,25.7900056 162.09,24.67 L161.91,28 L156.6,28 L156.6,6.82 L162.66,6.82 L162.66,15.52 C163.060002,14.6399956 163.629996,13.9500025 164.37,13.45 C165.110004,12.9499975 165.999995,12.7 167.04,12.7 C168.920009,12.7 170.379995,13.3899931 171.42,14.77 Z M166.335,23.17 C166.705002,22.6299973 166.89,21.7400062 166.89,20.5 C166.89,19.2599938 166.710002,18.3750026 166.35,17.845 C165.989998,17.3149973 165.450004,17.05 164.73,17.05 C163.409993,17.05 162.72,18.0899896 162.66,20.17 L162.66,20.83 C162.72,22.9300105 163.409993,23.98 164.73,23.98 C165.430003,23.98 165.964998,23.7100027 166.335,23.17 Z M187.11,13.06 L186.54,18.07 C186.359999,17.9299993 186.100002,17.8200004 185.76,17.74 C185.419998,17.6599996 185.050002,17.62 184.65,17.62 C183.709995,17.62 182.950003,17.8749975 182.37,18.385 C181.789997,18.8950026 181.5,19.6399951 181.5,20.62 L181.5,28 L175.44,28 L175.44,13 L180.87,13 L181.05,16.51 C181.410002,15.2899939 181.959996,14.3500033 182.7,13.69 C183.440004,13.0299967 184.379994,12.7 185.52,12.7 C186.220004,12.7 186.749998,12.8199988 187.11,13.06 Z M202.095,14.755 C203.525007,16.1250069 204.24,18.0399877 204.24,20.5 C204.24,22.9600123 203.525007,24.8749931 202.095,26.245 C200.664993,27.6150069 198.660013,28.3 196.08,28.3 C193.499987,28.3 191.495007,27.6150069 190.065,26.245 C188.634993,24.8749931 187.92,22.9600123 187.92,20.5 C187.92,18.0399877 188.634993,16.1250069 190.065,14.755 C191.495007,13.3849931 193.499987,12.7 196.08,12.7 C198.660013,12.7 200.664993,13.3849931 202.095,14.755 Z M194.475,17.665 C194.164998,18.1950027 194.01,19.1399932 194.01,20.5 C194.01,21.8600068 194.164998,22.8049974 194.475,23.335 C194.785002,23.8650027 195.319996,24.13 196.08,24.13 C196.840004,24.13 197.374998,23.8650027 197.685,23.335 C197.995002,22.8049974 198.15,21.8600068 198.15,20.5 C198.15,19.1399932 197.995002,18.1950027 197.685,17.665 C197.374998,17.1349974 196.840004,16.87 196.08,16.87 C195.319996,16.87 194.785002,17.1349974 194.475,17.665 Z M232.86,13 L228.57,28 L221.16,28 L218.94,19.48 L216.78,28 L209.37,28 L205.08,13 L211.38,13 L213.45,23.83 L216,13 L221.94,13 L224.49,23.83 L226.56,13 L232.86,13 Z M248.715,14.05 C249.585004,14.9500045 250.02,16.2199918 250.02,17.86 L250.02,28 L243.96,28 L243.96,19.48 C243.96,18.6599959 243.830001,18.0800017 243.57,17.74 C243.309999,17.3999983 242.930002,17.23 242.43,17.23 C241.789997,17.23 241.290002,17.4649977 240.93,17.935 C240.569998,18.4050024 240.39,19.1299951 240.39,20.11 L240.39,28 L234.33,28 L234.33,13 L239.79,13 L239.94,16.09 C240.380002,14.9899945 241.039996,14.1500029 241.92,13.57 C242.800004,12.9899971 243.859994,12.7 245.1,12.7 C246.640008,12.7 247.844996,13.1499955 248.715,14.05 Z M267.6,13 L271.98,13 L271.98,17.17 L267.99,17.17 L267.99,28 L261.93,28 L261.93,17.17 L259.71,17.17 L259.71,13 L261.93,13 L261.93,12.04 C261.93,10.0799902 262.539994,8.63500465 263.76,7.705 C264.980006,6.77499535 266.529991,6.31 268.41,6.31 C269.250004,6.31 269.994997,6.3899992 270.645,6.55 C271.295003,6.7100008 271.799998,6.9399985 272.16,7.24 L271.68,10.87 C271.279998,10.5499984 270.710004,10.39 269.97,10.39 C269.189996,10.39 268.600002,10.5449985 268.2,10.855 C267.799998,11.1650015 267.6,11.6699965 267.6,12.37 L267.6,13 Z M287.175,14.755 C288.605007,16.1250069 289.32,18.0399877 289.32,20.5 C289.32,22.9600123 288.605007,24.8749931 287.175,26.245 C285.744993,27.6150069 283.740013,28.3 281.16,28.3 C278.579987,28.3 276.575007,27.6150069 275.145,26.245 C273.714993,24.8749931 273,22.9600123 273,20.5 C273,18.0399877 273.714993,16.1250069 275.145,14.755 C276.575007,13.3849931 278.579987,12.7 281.16,12.7 C283.740013,12.7 285.744993,13.3849931 287.175,14.755 Z M279.555,17.665 C279.244998,18.1950027 279.09,19.1399932 279.09,20.5 C279.09,21.8600068 279.244998,22.8049974 279.555,23.335 C279.865002,23.8650027 280.399996,24.13 281.16,24.13 C281.920004,24.13 282.454998,23.8650027 282.765,23.335 C283.075002,22.8049974 283.23,21.8600068 283.23,20.5 C283.23,19.1399932 283.075002,18.1950027 282.765,17.665 C282.454998,17.1349974 281.920004,16.87 281.16,16.87 C280.399996,16.87 279.865002,17.1349974 279.555,17.665 Z M301.77,28 L299.22,23.08 L296.7,28 L290.04,28 L295.35,20.38 L290.22,13 L296.97,13 L299.34,17.68 L301.77,13 L308.4,13 L303.27,20.47 L308.52,28 L301.77,28 Z M7.095,41.94 C7.62500265,42.3600021 7.89,43.0499952 7.89,44.01 C7.89,44.9500047 7.62500265,45.6299979 7.095,46.05 C6.56499735,46.4700021 5.6900061,46.68 4.47,46.68 C3.269994,46.68 2.4100026,46.4700021 1.89,46.05 C1.3699974,45.6299979 1.11,44.9500047 1.11,44.01 C1.11,43.0499952 1.3699974,42.3600021 1.89,41.94 C2.4100026,41.5199979 3.269994,41.31 4.47,41.31 C5.6900061,41.31 6.56499735,41.5199979 7.095,41.94 Z M7.53,63.6 C7.53,65.6600103 7.0200051,67.1499954 6,68.07 C4.9799949,68.9900046 3.4100106,69.45 1.29,69.45 C-0.4500087,69.45 -1.8699945,69.1400031 -2.97,68.52 L-2.19,64.83 C-2.0099991,64.9900008 -1.76500155,65.1149995 -1.455,65.205 C-1.14499845,65.2950005 -0.8300016,65.34 -0.51,65.34 C0.1500033,65.34 0.64499835,65.1600018 0.975,64.8 C1.30500165,64.4399982 1.47,63.860004 1.47,63.06 L1.47,48 L7.53,48 L7.53,63.6 Z M26.1,48 L26.1,63 L20.64,63 L20.49,60.03 C19.5899955,62.2100109 17.8800126,63.3 15.36,63.3 C12.0399834,63.3 10.38,61.5600174 10.38,58.08 L10.38,48 L16.44,48 L16.44,56.58 C16.44,57.380004 16.5649987,57.9449984 16.815,58.275 C17.0650012,58.6050016 17.4599973,58.77 18,58.77 C18.6400032,58.77 19.1399982,58.5300024 19.5,58.05 C19.8600018,57.5699976 20.04,56.8500048 20.04,55.89 L20.04,48 L26.1,48 Z M52.92,49.05 C53.8000044,49.9500045 54.24,51.2199918 54.24,52.86 L54.24,63 L48.18,63 L48.18,54.36 C48.18,53.5999962 48.0550012,53.0550016 47.805,52.725 C47.5549988,52.3949984 47.1800025,52.23 46.68,52.23 C46.0399968,52.23 45.5450018,52.4699976 45.195,52.95 C44.8449983,53.4300024 44.67,54.1399953 44.67,55.08 L44.67,63 L38.61,63 L38.61,54.36 C38.61,53.5999962 38.4850013,53.0550016 38.235,52.725 C37.9849988,52.3949984 37.6100025,52.23 37.11,52.23 C36.4899969,52.23 36.0000018,52.4699976 35.64,52.95 C35.2799982,53.4300024 35.1,54.1499952 35.1,55.11 L35.1,63 L29.04,63 L29.04,48 L34.5,48 L34.65,51.09 C35.1100023,49.9899945 35.7749957,49.1500029 36.645,48.57 C37.5150044,47.9899971 38.5599939,47.7 39.78,47.7 C40.9200057,47.7 41.8849961,47.9599974 42.675,48.48 C43.465004,49.0000026 44.0299983,49.7499951 44.37,50.73 C44.8300023,49.7499951 45.4899957,49.0000026 46.35,48.48 C47.2100043,47.9599974 48.2099943,47.7 49.35,47.7 C50.8500075,47.7 52.0399956,48.1499955 52.92,49.05 Z M71.985,49.725 C73.0150051,51.0750068 73.53,52.9799877 73.53,55.44 C73.53,57.9200124 73.0100052,59.8499931 71.97,61.23 C70.9299948,62.6100069 69.4700094,63.3 67.59,63.3 C66.5499948,63.3 65.6600037,63.0500025 64.92,62.55 C64.1799963,62.0499975 63.610002,61.3600044 63.21,60.48 L63.21,69.3 L57.15,69.3 L57.15,48 L62.46,48 L62.64,51.33 C63.040002,50.2099944 63.6699957,49.3250032 64.53,48.675 C65.3900043,48.0249967 66.419994,47.7 67.62,47.7 C69.5000094,47.7 70.9549948,48.3749933 71.985,49.725 Z M66.9,58.155 C67.2600018,57.6249974 67.44,56.7400062 67.44,55.5 C67.44,54.2599938 67.2550018,53.3700027 66.885,52.83 C66.5149981,52.2899973 65.9800035,52.02 65.28,52.02 C63.9599934,52.02 63.2700003,53.0699895 63.21,55.17 L63.21,55.83 C63.2700003,57.9100104 63.9599934,58.95 65.28,58.95 C66.0000036,58.95 66.5399982,58.6850027 66.9,58.155 Z M78.045,62.73 C76.7949938,62.3499981 75.7600041,61.7300043 74.94,60.87 L77.79,57.57 C78.3100026,58.1900031 78.9499962,58.6649984 79.71,58.995 C80.4700038,59.3250017 81.3099954,59.49 82.23,59.49 C82.7500026,59.49 83.1699984,59.4300006 83.49,59.31 C83.8100016,59.1899994 83.97,59.0100012 83.97,58.77 C83.97,58.5499989 83.7900018,58.3550009 83.43,58.185 C83.0699982,58.0149992 82.4300046,57.830001 81.51,57.63 C79.309989,57.2099979 77.7250048,56.6100039 76.755,55.83 C75.7849951,55.0499961 75.3,54.0400062 75.3,52.8 C75.3,51.9399957 75.5849971,51.1200039 76.155,50.34 C76.7250028,49.5599961 77.5849942,48.9250025 78.735,48.435 C79.8850057,47.9449976 81.3099915,47.7 83.01,47.7 C86.2700163,47.7 88.6199928,48.5299917 90.06,50.19 L87.33,53.16 C86.3899953,52.0599945 85.0300089,51.51 83.25,51.51 C82.6299969,51.51 82.1600016,51.5849992 81.84,51.735 C81.5199984,51.8850008 81.36,52.0799988 81.36,52.32 C81.36,52.520001 81.5349983,52.6949993 81.885,52.845 C82.2350017,52.9950008 82.8199959,53.1399993 83.64,53.28 C85.9000113,53.6200017 87.5349949,54.1749961 88.545,54.945 C89.5550051,55.7150039 90.06,56.7799932 90.06,58.14 C90.06,59.6400075 89.4300063,60.8749952 88.17,61.845 C86.9099937,62.8150049 85.0500123,63.3 82.59,63.3 C80.8099911,63.3 79.2950063,63.1100019 78.045,62.73 Z M113.595,49.755 C115.025007,51.1250069 115.74,53.0399877 115.74,55.5 C115.74,57.9600123 115.025007,59.8749932 113.595,61.245 C112.164993,62.6150069 110.160013,63.3 107.58,63.3 C104.999987,63.3 102.995007,62.6150069 101.565,61.245 C100.134993,59.8749932 99.42,57.9600123 99.42,55.5 C99.42,53.0399877 100.134993,51.1250069 101.565,49.755 C102.995007,48.3849931 104.999987,47.7 107.58,47.7 C110.160013,47.7 112.164993,48.3849931 113.595,49.755 Z M105.975,52.665 C105.664998,53.1950026 105.51,54.1399932 105.51,55.5 C105.51,56.8600068 105.664998,57.8049974 105.975,58.335 C106.285002,58.8650027 106.819996,59.13 107.58,59.13 C108.340004,59.13 108.874998,58.8650027 109.185,58.335 C109.495002,57.8049974 109.65,56.8600068 109.65,55.5 C109.65,54.1399932 109.495002,53.1950026 109.185,52.665 C108.874998,52.1349973 108.340004,51.87 107.58,51.87 C106.819996,51.87 106.285002,52.1349973 105.975,52.665 Z M134.01,48 L128.91,63 L121.5,63 L116.4,48 L122.73,48 L125.22,59.25 L127.74,48 L134.01,48 Z M150.36,56.88 L140.49,56.88 C140.610001,57.7200042 140.879998,58.3099983 141.3,58.65 C141.720002,58.9900017 142.309996,59.16 143.07,59.16 C144.290006,59.16 145.039999,58.6800048 145.32,57.72 L150.21,59.13 C149.829998,60.4900068 149.005006,61.5249965 147.735,62.235 C146.464994,62.9450036 144.910009,63.3 143.07,63.3 C140.349986,63.3 138.270007,62.6250067 136.83,61.275 C135.389993,59.9249932 134.67,58.0000125 134.67,55.5 C134.67,53.0199876 135.374993,51.1000068 136.785,49.74 C138.195007,48.3799932 140.179987,47.7 142.74,47.7 C145.240012,47.7 147.159993,48.3649934 148.5,49.695 C149.840007,51.0250067 150.51,52.8399885 150.51,55.14 C150.51,55.8600036 150.46,56.4399978 150.36,56.88 Z M141.225,52.38 C140.854998,52.7600019 140.610001,53.3799957 140.49,54.24 L144.84,54.24 C144.739999,53.4199959 144.525002,52.810002 144.195,52.41 C143.864998,52.009998 143.390003,51.81 142.77,51.81 C142.109997,51.81 141.595002,51.9999981 141.225,52.38 Z M164.46,48.06 L163.89,53.07 C163.709999,52.9299993 163.450002,52.8200004 163.11,52.74 C162.769998,52.6599996 162.400002,52.62 162,52.62 C161.059995,52.62 160.300003,52.8749975 159.72,53.385 C159.139997,53.8950026 158.85,54.6399951 158.85,55.62 L158.85,63 L152.79,63 L152.79,48 L158.22,48 L158.4,51.51 C158.760002,50.2899939 159.309996,49.3500033 160.05,48.69 C160.790004,48.0299967 161.729994,47.7 162.87,47.7 C163.570003,47.7 164.099998,47.8199988 164.46,48.06 Z M185.43,62.22 C184.949998,62.5400016 184.300004,62.799999 183.48,63 C182.659996,63.200001 181.860004,63.3 181.08,63.3 C179.07999,63.3 177.580005,62.900004 176.58,62.1 C175.579995,61.299996 175.08,60.000009 175.08,58.2 L175.08,52.17 L172.65,52.17 L172.65,48 L175.08,48 L175.08,44.73 L181.14,43.05 L181.14,48 L185.25,48 L185.25,52.17 L181.14,52.17 L181.14,57.24 C181.14,57.9400035 181.294998,58.4399985 181.605,58.74 C181.915002,59.0400015 182.389997,59.19 183.03,59.19 C183.790004,59.19 184.459997,59.0200017 185.04,58.68 L185.43,62.22 Z M201.495,49.05 C202.365004,49.9500045 202.8,51.2199918 202.8,52.86 L202.8,63 L196.74,63 L196.74,54.48 C196.74,53.6599959 196.610001,53.0800017 196.35,52.74 C196.089999,52.3999983 195.710002,52.23 195.21,52.23 C194.589997,52.23 194.095002,52.4699976 193.725,52.95 C193.354998,53.4300024 193.17,54.1499952 193.17,55.11 L193.17,63 L187.11,63 L187.11,41.82 L193.17,41.82 L193.17,50.91 C193.610002,49.8499947 194.229996,49.0500027 195.03,48.51 C195.830004,47.9699973 196.779994,47.7 197.88,47.7 C199.420008,47.7 200.624996,48.1499955 201.495,49.05 Z M220.77,56.88 L210.9,56.88 C211.020001,57.7200042 211.289998,58.3099983 211.71,58.65 C212.130002,58.9900017 212.719996,59.16 213.48,59.16 C214.700006,59.16 215.449999,58.6800048 215.73,57.72 L220.62,59.13 C220.239998,60.4900068 219.415006,61.5249965 218.145,62.235 C216.874994,62.9450036 215.320009,63.3 213.48,63.3 C210.759986,63.3 208.680007,62.6250067 207.24,61.275 C205.799993,59.9249932 205.08,58.0000125 205.08,55.5 C205.08,53.0199876 205.784993,51.1000068 207.195,49.74 C208.605007,48.3799932 210.589987,47.7 213.15,47.7 C215.650012,47.7 217.569993,48.3649934 218.91,49.695 C220.250007,51.0250067 220.92,52.8399885 220.92,55.14 C220.92,55.8600036 220.87,56.4399978 220.77,56.88 Z M211.635,52.38 C211.264998,52.7600019 211.020001,53.3799957 210.9,54.24 L215.25,54.24 C215.149999,53.4199959 214.935002,52.810002 214.605,52.41 C214.274998,52.009998 213.800003,51.81 213.18,51.81 C212.519997,51.81 212.005002,51.9999981 211.635,52.38 Z M237.24,57.39 C237.24,58.0300032 237.339999,58.4899986 237.54,58.77 C237.740001,59.0500014 238.079998,59.19 238.56,59.19 C239.000002,59.19 239.429998,59.1200007 239.85,58.98 L239.52,62.43 C239.159998,62.6900013 238.655003,62.8999992 238.005,63.06 C237.354997,63.2200008 236.710003,63.3 236.07,63.3 C234.329991,63.3 233.080004,62.9100039 232.32,62.13 C231.559996,61.3499961 231.18,60.0700089 231.18,58.29 L231.18,41.82 L237.24,41.82 L237.24,57.39 Z M257.37,59.55 L256.89,62.76 C256.229997,63.1200018 255.520004,63.3 254.76,63.3 C253.619994,63.3 252.675004,63.095002 251.925,62.685 C251.174996,62.2749979 250.680001,61.670004 250.44,60.87 C249.999998,61.6300038 249.335004,62.2249979 248.445,62.655 C247.554996,63.0850022 246.440007,63.3 245.1,63.3 C243.579992,63.3 242.425004,62.9850031 241.635,62.355 C240.844996,61.7249968 240.45,60.8200059 240.45,59.64 C240.45,58.3799937 240.899995,57.3600039 241.8,56.58 C242.700004,55.7999961 244.199989,55.2000021 246.3,54.78 L249.48,54.12 L249.48,53.55 C249.48,52.9699971 249.330001,52.5200016 249.03,52.2 C248.729998,51.8799984 248.310003,51.72 247.77,51.72 C247.169997,51.72 246.680002,51.8749984 246.3,52.185 C245.919998,52.4950015 245.69,53.0299962 245.61,53.79 L240.63,52.74 C240.850001,51.139992 241.574994,49.9000044 242.805,49.02 C244.035006,48.1399956 245.759989,47.7 247.98,47.7 C252.980025,47.7 255.48,49.6899801 255.48,53.67 L255.48,58.47 C255.48,59.270004 255.829997,59.67 256.53,59.67 C256.870002,59.67 257.149999,59.6300004 257.37,59.55 Z M248.895,59.295 C249.285002,58.9849984 249.48,58.5500028 249.48,57.99 L249.48,56.61 L247.83,57.03 C246.789995,57.2900013 246.27,57.8099961 246.27,58.59 C246.27,58.9700019 246.384999,59.259999 246.615,59.46 C246.845001,59.660001 247.149998,59.76 247.53,59.76 C248.050003,59.76 248.504998,59.6050015 248.895,59.295 Z M258.18,59.43 L263.43,53.52 L264.93,52.05 L262.65,52.11 L258.18,52.11 L258.18,48 L271.65,48 L271.65,51.57 L266.43,57.42 L264.9,58.95 L267.45,58.89 L271.92,58.89 L271.92,63 L258.18,63 L258.18,59.43 Z M285.3,62.1 C284.679997,63.9200091 284.000004,65.3599947 283.26,66.42 C282.519996,67.4800053 281.640005,68.2499976 280.62,68.73 C279.599995,69.2100024 278.360007,69.45 276.9,69.45 C275.099991,69.45 273.640006,69.1000035 272.52,68.4 L273.69,64.5 C274.010002,64.7200011 274.364998,64.8799995 274.755,64.98 C275.145002,65.0800005 275.669997,65.13 276.33,65.13 C276.950003,65.13 277.429998,65.0500008 277.77,64.89 C278.110002,64.7299992 278.359999,64.4400021 278.52,64.02 L278.73,63.45 L276.9,59.19 L272.52,48 L279.18,48 L280.98,56.13 L281.61,59.46 L282.33,56.04 L284.22,48 L290.19,48 L285.3,62.1 Z M315.39,41.82 L315.39,63 L309.96,63 L309.75,60.09 C309.309998,61.0700049 308.680004,61.8499971 307.86,62.43 C307.039996,63.0100029 306.070006,63.3 304.95,63.3 C303.069991,63.3 301.610005,62.6200068 300.57,61.26 C299.529995,59.8999932 299.01,58.0000122 299.01,55.56 C299.01,53.0799876 299.534995,51.1500069 300.585,49.77 C301.635005,48.3899931 303.099991,47.7 304.98,47.7 C306.020005,47.7 306.904996,47.9499975 307.635,48.45 C308.365004,48.9500025 308.929998,49.6499955 309.33,50.55 L309.33,41.82 L315.39,41.82 Z M309.33,55.62 L309.33,55.38 C309.33,53.1599889 308.640007,52.05 307.26,52.05 C306.559997,52.05 306.030002,52.3149973 305.67,52.845 C305.309998,53.3750026 305.13,54.2599938 305.13,55.5 C305.13,56.7400062 305.309998,57.6299973 305.67,58.17 C306.030002,58.7100027 306.559997,58.98 307.26,58.98 C308.640007,58.98 309.33,57.8600112 309.33,55.62 Z M331.905,49.755 C333.335007,51.1250069 334.05,53.0399877 334.05,55.5 C334.05,57.9600123 333.335007,59.8749932 331.905,61.245 C330.474993,62.6150069 328.470013,63.3 325.89,63.3 C323.309987,63.3 321.305007,62.6150069 319.875,61.245 C318.444993,59.8749932 317.73,57.9600123 317.73,55.5 C317.73,53.0399877 318.444993,51.1250069 319.875,49.755 C321.305007,48.3849931 323.309987,47.7 325.89,47.7 C328.470013,47.7 330.474993,48.3849931 331.905,49.755 Z M324.285,52.665 C323.974998,53.1950026 323.82,54.1399932 323.82,55.5 C323.82,56.8600068 323.974998,57.8049974 324.285,58.335 C324.595002,58.8650027 325.129996,59.13 325.89,59.13 C326.650004,59.13 327.184998,58.8650027 327.495,58.335 C327.805002,57.8049974 327.96,56.8600068 327.96,55.5 C327.96,54.1399932 327.805002,53.1950026 327.495,52.665 C327.184998,52.1349973 326.650004,51.87 325.89,51.87 C325.129996,51.87 324.595002,52.1349973 324.285,52.665 Z M350.595,60.39 C351.585005,61.190004 352.08,62.389992 352.08,63.99 C352.08,65.790009 351.310008,67.1499954 349.77,68.07 C348.229992,68.9900046 346.070014,69.45 343.29,69.45 C337.989973,69.45 335.34,68.3300112 335.34,66.09 C335.34,65.4299967 335.569998,64.8550025 336.03,64.365 C336.490002,63.8749976 337.219995,63.5200011 338.22,63.3 C336.579992,62.6399967 335.76,61.5500076 335.76,60.03 C335.76,59.3299965 335.984998,58.7100027 336.435,58.17 C336.885002,57.6299973 337.489996,57.2100015 338.25,56.91 C336.589992,56.0699958 335.76,54.7100094 335.76,52.83 C335.76,51.1499916 336.419993,49.8750043 337.74,49.005 C339.060007,48.1349957 340.979987,47.7 343.5,47.7 C344.560005,47.7 345.549995,47.7799992 346.47,47.94 C346.630001,46.6799937 347.064996,45.6250043 347.775,44.775 C348.485004,43.9249958 349.489993,43.5 350.79,43.5 C351.050001,43.5 351.249999,43.5099999 351.39,43.53 L351.96,47.4 C351.599998,47.3399997 351.270001,47.31 350.97,47.31 C350.369997,47.31 349.855002,47.4299988 349.425,47.67 C348.994998,47.9100012 348.680001,48.2099982 348.48,48.57 C350.320009,49.4300043 351.24,50.8499901 351.24,52.83 C351.24,54.4900083 350.580007,55.7499957 349.26,56.61 C347.939993,57.4700043 346.020013,57.9 343.5,57.9 C342.319994,57.9 341.270005,57.8100009 340.35,57.63 C339.929998,57.7500006 339.72,57.9899982 339.72,58.35 C339.72,58.9100028 340.189995,59.19 341.13,59.19 L346.29,59.19 C348.170009,59.19 349.604995,59.589996 350.595,60.39 Z M342.255,51.465 C341.944998,51.7950017 341.79,52.2399972 341.79,52.8 C341.79,53.3600028 341.944998,53.8049983 342.255,54.135 C342.565002,54.4650017 342.979997,54.63 343.5,54.63 C344.020003,54.63 344.434998,54.4650017 344.745,54.135 C345.055002,53.8049983 345.21,53.3600028 345.21,52.8 C345.21,52.2399972 345.055002,51.7950017 344.745,51.465 C344.434998,51.1349984 344.020003,50.97 343.5,50.97 C342.979997,50.97 342.565002,51.1349984 342.255,51.465 Z M347.43,64.59 C347.43,64.1299977 346.950005,63.9 345.99,63.9 L341.85,63.9 C341.089996,63.9 340.560001,63.9599994 340.26,64.08 C339.959998,64.2000006 339.81,64.3999986 339.81,64.68 C339.81,65.0200017 340.114997,65.2699992 340.725,65.43 C341.335003,65.5900008 342.319993,65.67 343.68,65.67 C346.180012,65.67 347.43,65.3100036 347.43,64.59 Z" id="The-quick-brown-fox"></path>
                </g>
            </g>
        </g>
    </g>
</svg>