<?xml version="1.0" encoding="UTF-8"?>
<svg width="320px" height="70px" viewBox="0 0 320 70" version="1.1" xmlns="http://www.w3.org/2000/svg" xmlns:xlink="http://www.w3.org/1999/xlink">
    <!-- Generator: Sketch 50.2 (55047) - http://www.bohemiancoding.com/sketch -->
    <title>The quick brown fox Copy</title>
    <desc>Created with Sketch.</desc>
    <defs></defs>
    <g id="Page-1" stroke="none" stroke-width="1" fill="none" fill-rule="evenodd">
        <g id="Desktop-HD-Copy-2" transform="translate(-1011.000000, -739.000000)" fill="#333333">
            <g id="Group-10" transform="translate(1010.000000, 581.000000)">
                <g id="Group-9" transform="translate(0.000000, 151.000000)">
                    <path d="M19.0800781,11.9423828 L12.2246094,11.9423828 L12.2246094,31 L9.33886719,31 L9.33886719,11.9423828 L2.49804688,11.9423828 L2.49804688,9.671875 L19.0800781,9.671875 L19.0800781,11.9423828 Z M24.5585938,17.2744141 C25.1054715,16.5126915 25.7768515,15.9194357 26.5727539,15.4946289 C27.3686563,15.0698221 28.2499952,14.8574219 29.2167969,14.8574219 C30.9062584,14.8574219 32.2221633,15.3652293 33.1645508,16.3808594 C34.1069383,17.3964895 34.578125,18.9589738 34.578125,21.0683594 L34.578125,31 L31.6923828,31 L31.6923828,21.0390625 C31.6923828,19.7304622 31.4116239,18.763675 30.8500977,18.1386719 C30.2885714,17.5136687 29.4511774,17.2011719 28.3378906,17.2011719 C27.5371054,17.2011719 26.812015,17.3891583 26.1625977,17.7651367 C25.5131803,18.1411152 24.9785177,18.651364 24.5585938,19.2958984 L24.5585938,31 L21.6728516,31 L21.6728516,8.1484375 L24.5585938,8.1484375 L24.5585938,17.2744141 Z M45.3007812,31.3076172 C43.093739,31.3076172 41.3383854,30.5727613 40.034668,29.1030273 C38.7309505,27.6332934 38.0791016,25.7265742 38.0791016,23.3828125 L38.0791016,22.7382812 C38.0791016,20.4824106 38.7504816,18.604988 40.0932617,17.105957 C41.4360419,15.6069261 43.0253814,14.8574219 44.8613281,14.8574219 C47.0000107,14.8574219 48.6162055,15.5019467 49.7099609,16.7910156 C50.8037164,18.0800846 51.3505859,19.7988174 51.3505859,21.9472656 L51.3505859,23.7490234 L41.0673828,23.7490234 L41.0234375,23.8222656 C41.0527345,25.3457107 41.4384729,26.5981396 42.1806641,27.5795898 C42.9228553,28.5610401 43.9628839,29.0517578 45.3007812,29.0517578 C46.2773486,29.0517578 47.1342737,28.912599 47.871582,28.6342773 C48.6088904,28.3559556 49.2460911,27.9726587 49.7832031,27.484375 L50.9111328,29.359375 C50.3447237,29.9160184 49.5976609,30.379881 48.6699219,30.7509766 C47.7421829,31.1220722 46.6191472,31.3076172 45.3007812,31.3076172 Z M44.8613281,17.1279297 C43.8945264,17.1279297 43.0693394,17.5356405 42.3857422,18.3510742 C41.702145,19.166508 41.2822273,20.189447 41.1259766,21.4199219 L41.1552734,21.4931641 L48.4648438,21.4931641 L48.4648438,21.1123047 C48.4648438,19.9794865 48.1621124,19.0322304 47.5566406,18.2705078 C46.9511688,17.5087853 46.0527403,17.1279297 44.8613281,17.1279297 Z M61.3847656,23.3681641 C61.3847656,20.8193232 61.9291938,18.7636797 63.0180664,17.2011719 C64.106939,15.6386641 65.6328027,14.8574219 67.5957031,14.8574219 C68.5625048,14.8574219 69.4121057,15.0405255 70.1445312,15.4067383 C70.8769568,15.772951 71.4970678,16.3076137 72.0048828,17.0107422 L72.4296875,15.1503906 L74.6269531,15.1503906 L74.6269531,37.09375 L71.7412109,37.09375 L71.7412109,29.5058594 C71.2333959,30.1015655 70.632816,30.5507797 69.9394531,30.8535156 C69.2460903,31.1562515 68.4550826,31.3076172 67.5664062,31.3076172 C65.6328028,31.3076172 64.1191461,30.6069406 63.0253906,29.2055664 C61.9316352,27.8041922 61.3847656,25.9609489 61.3847656,23.6757812 L61.3847656,23.3681641 Z M64.2705078,23.6757812 C64.2705078,25.2773518 64.6000944,26.5737255 65.2592773,27.5649414 C65.9184603,28.5561573 66.9316338,29.0517578 68.2988281,29.0517578 C69.0898477,29.0517578 69.7661105,28.8759783 70.3276367,28.5244141 C70.889163,28.1728498 71.3603497,27.6796907 71.7412109,27.0449219 L71.7412109,19.046875 C71.3603497,18.4511689 70.889163,17.9824236 70.3276367,17.640625 C69.7661105,17.2988264 69.0996132,17.1279297 68.328125,17.1279297 C66.951165,17.1279297 65.9306674,17.7114199 65.2666016,18.878418 C64.6025357,20.045416 64.2705078,21.5419831 64.2705078,23.3681641 L64.2705078,23.6757812 Z M89.1582031,28.65625 C88.6601538,29.5058636 88.0205117,30.160154 87.2392578,30.6191406 C86.4580039,31.0781273 85.5546926,31.3076172 84.5292969,31.3076172 C82.8007726,31.3076172 81.4531298,30.7558649 80.4863281,29.6523438 C79.5195264,28.5488226 79.0361328,26.8300898 79.0361328,24.4960938 L79.0361328,15.1503906 L81.921875,15.1503906 L81.921875,24.5253906 C81.921875,26.2148522 82.1708959,27.37695 82.6689453,28.0117188 C83.1669947,28.6464875 83.9433541,28.9638672 84.9980469,28.9638672 C86.0234426,28.9638672 86.8706021,28.7563497 87.5395508,28.3413086 C88.2084994,27.9262675 88.7138655,27.3378944 89.0556641,26.5761719 L89.0556641,15.1503906 L91.9414062,15.1503906 L91.9414062,31 L89.3486328,31 L89.1582031,28.65625 Z M99.265625,31 L96.3798828,31 L96.3798828,15.1503906 L99.265625,15.1503906 L99.265625,31 Z M99.265625,11.0927734 L96.3798828,11.0927734 L96.3798828,8.1484375 L99.265625,8.1484375 L99.265625,11.0927734 Z M110.149414,29.0517578 C111.10645,29.0517578 111.948727,28.7563506 112.67627,28.1655273 C113.403812,27.5747041 113.767578,26.8496137 113.767578,25.9902344 L116.360352,25.9902344 L116.389648,26.078125 C116.438477,27.4453193 115.830573,28.6586861 114.565918,29.7182617 C113.301263,30.7778373 111.82911,31.3076172 110.149414,31.3076172 C107.844715,31.3076172 106.082037,30.5556716 104.861328,29.0517578 C103.640619,27.547844 103.030273,25.6582145 103.030273,23.3828125 L103.030273,22.7675781 C103.030273,20.5117075 103.64306,18.6294021 104.868652,17.1206055 C106.094244,15.6118089 107.854481,14.8574219 110.149414,14.8574219 C112.004892,14.8574219 113.52099,15.4042914 114.697754,16.4980469 C115.874518,17.5918023 116.44336,18.9345624 116.404297,20.5263672 L116.375,20.6142578 L113.767578,20.6142578 C113.767578,19.6474561 113.425785,18.8247104 112.742188,18.1459961 C112.05859,17.4672818 111.194341,17.1279297 110.149414,17.1279297 C108.635735,17.1279297 107.554202,17.6723578 106.904785,18.7612305 C106.255368,19.8501031 105.930664,21.185539 105.930664,22.7675781 L105.930664,23.3828125 C105.930664,25.0039144 106.252926,26.3539985 106.897461,27.4331055 C107.541995,28.5122124 108.625969,29.0517578 110.149414,29.0517578 Z M124.402344,23.6904297 L122.527344,23.6904297 L122.527344,31 L119.641602,31 L119.641602,8.1484375 L122.527344,8.1484375 L122.527344,21.390625 L124.373047,21.390625 L128.708984,15.1503906 L132.166016,15.1503906 L126.746094,22.3574219 L132.942383,31 L129.543945,31 L124.402344,23.6904297 Z M155.999023,23.6757812 C155.999023,25.9609489 155.449713,27.8041922 154.351074,29.2055664 C153.252436,30.6069406 151.741221,31.3076172 149.817383,31.3076172 C148.772456,31.3076172 147.864262,31.1049825 147.092773,30.699707 C146.321285,30.2944316 145.681643,29.696293 145.173828,28.9052734 L144.822266,31 L142.463867,31 L142.463867,8.1484375 L145.349609,8.1484375 L145.349609,17.0253906 C145.847659,16.3222621 146.465328,15.7851581 147.202637,15.4140625 C147.939945,15.0429669 148.801753,14.8574219 149.788086,14.8574219 C151.741221,14.8574219 153.264643,15.6386641 154.358398,17.2011719 C155.452154,18.7636797 155.999023,20.8193232 155.999023,23.3681641 L155.999023,23.6757812 Z M153.113281,23.3681641 C153.113281,21.5517487 152.778812,20.06983 152.109863,18.9223633 C151.440915,17.7748966 150.422858,17.2011719 149.055664,17.2011719 C148.166988,17.2011719 147.417484,17.4184549 146.807129,17.8530273 C146.196774,18.2875998 145.710939,18.8710901 145.349609,19.6035156 L145.349609,26.4736328 C145.720705,27.2548867 146.20654,27.8652322 146.807129,28.3046875 C147.407718,28.7441428 148.166988,28.9638672 149.084961,28.9638672 C150.44239,28.9638672 151.453122,28.4804736 152.117188,27.5136719 C152.781253,26.5468702 153.113281,25.2675861 153.113281,23.6757812 L153.113281,23.3681641 Z M167.014648,17.6992188 L165.535156,17.6113281 C164.773434,17.6113281 164.13135,17.7919904 163.608887,18.1533203 C163.086423,18.5146502 162.683595,19.0224577 162.400391,19.6767578 L162.400391,31 L159.514648,31 L159.514648,15.1503906 L162.092773,15.1503906 L162.371094,17.4648438 C162.820315,16.6445271 163.374508,16.0048851 164.033691,15.5458984 C164.692874,15.0869118 165.452144,14.8574219 166.311523,14.8574219 C166.526368,14.8574219 166.731444,14.8745115 166.926758,14.9086914 C167.122071,14.9428713 167.283202,14.979492 167.410156,15.0185547 L167.014648,17.6992188 Z M169.124023,22.9287109 C169.124023,20.5849492 169.758783,18.6538162 171.02832,17.1352539 C172.297858,15.6166916 174.021473,14.8574219 176.199219,14.8574219 C178.396495,14.8574219 180.132318,15.6142502 181.406738,17.1279297 C182.681159,18.6416091 183.318359,20.5751835 183.318359,22.9287109 L183.318359,23.2509766 C183.318359,25.6142696 182.6836,27.547844 181.414062,29.0517578 C180.144525,30.5556716 178.416027,31.3076172 176.228516,31.3076172 C174.041005,31.3076172 172.310065,30.5532302 171.035645,29.0444336 C169.761224,27.535637 169.124023,25.604504 169.124023,23.2509766 L169.124023,22.9287109 Z M172.009766,23.2509766 C172.009766,24.9306725 172.363766,26.3173773 173.071777,27.4111328 C173.779789,28.5048883 174.832024,29.0517578 176.228516,29.0517578 C177.605476,29.0517578 178.650387,28.5048883 179.363281,27.4111328 C180.076175,26.3173773 180.432617,24.9306725 180.432617,23.2509766 L180.432617,22.9287109 C180.432617,21.2685464 180.073734,19.8867243 179.355957,18.7832031 C178.63818,17.679682 177.585944,17.1279297 176.199219,17.1279297 C174.822259,17.1279297 173.779789,17.679682 173.071777,18.7832031 C172.363766,19.8867243 172.009766,21.2685464 172.009766,22.9287109 L172.009766,23.2509766 Z M190.90625,25.2285156 L191.243164,27.1474609 L191.331055,27.1474609 L191.741211,25.2285156 L194.905273,15.1503906 L197.219727,15.1503906 L200.398438,25.2285156 L200.852539,27.3671875 L200.94043,27.3671875 L201.365234,25.2285156 L203.855469,15.1503906 L206.726562,15.1503906 L202.126953,31 L199.797852,31 L196.736328,21.3466797 L196.077148,18.6513672 L195.989258,18.6660156 L195.359375,21.3466797 L192.341797,31 L190.012695,31 L185.413086,15.1503906 L188.28418,15.1503906 L190.90625,25.2285156 Z M212.131836,15.1503906 L212.336914,17.5087891 C212.86426,16.6689411 213.525875,16.0170922 214.321777,15.5532227 C215.11768,15.0893531 216.023432,14.8574219 217.039062,14.8574219 C218.748055,14.8574219 220.071284,15.3579052 221.008789,16.3588867 C221.946294,17.3598683 222.415039,18.905263 222.415039,20.9951172 L222.415039,31 L219.529297,31 L219.529297,21.0537109 C219.529297,19.6572196 219.253421,18.6660186 218.70166,18.0800781 C218.1499,17.4941377 217.307623,17.2011719 216.174805,17.2011719 C215.344722,17.2011719 214.609866,17.4013652 213.970215,17.8017578 C213.330563,18.2021504 212.820314,18.74902 212.439453,19.4423828 L212.439453,31 L209.553711,31 L209.553711,15.1503906 L212.131836,15.1503906 Z M235.261719,31 L235.261719,17.2890625 L232.786133,17.2890625 L232.786133,15.1503906 L235.261719,15.1503906 L235.261719,13.1435547 C235.261719,11.4540931 235.703609,10.1479538 236.587402,9.22509766 C237.471196,8.30224148 238.704094,7.84082031 240.286133,7.84082031 C240.618166,7.84082031 240.952635,7.86767551 241.289551,7.92138672 C241.626467,7.97509792 241.999998,8.05078076 242.410156,8.1484375 L242.058594,10.3457031 C241.882812,10.3066404 241.670411,10.2724611 241.421387,10.2431641 C241.172362,10.213867 240.911134,10.1992188 240.637695,10.1992188 C239.797847,10.1992188 239.172854,10.4506811 238.762695,10.9536133 C238.352537,11.4565455 238.147461,12.1865187 238.147461,13.1435547 L238.147461,15.1503906 L241.443359,15.1503906 L241.443359,17.2890625 L238.147461,17.2890625 L238.147461,31 L235.261719,31 Z M243.743164,22.9287109 C243.743164,20.5849492 244.377923,18.6538162 245.647461,17.1352539 C246.916999,15.6166916 248.640614,14.8574219 250.818359,14.8574219 C253.015636,14.8574219 254.751458,15.6142502 256.025879,17.1279297 C257.300299,18.6416091 257.9375,20.5751835 257.9375,22.9287109 L257.9375,23.2509766 C257.9375,25.6142696 257.302741,27.547844 256.033203,29.0517578 C254.763666,30.5556716 253.035167,31.3076172 250.847656,31.3076172 C248.660145,31.3076172 246.929206,30.5532302 245.654785,29.0444336 C244.380365,27.535637 243.743164,25.604504 243.743164,23.2509766 L243.743164,22.9287109 Z M246.628906,23.2509766 C246.628906,24.9306725 246.982907,26.3173773 247.690918,27.4111328 C248.398929,28.5048883 249.451165,29.0517578 250.847656,29.0517578 C252.224616,29.0517578 253.269528,28.5048883 253.982422,27.4111328 C254.695316,26.3173773 255.051758,24.9306725 255.051758,23.2509766 L255.051758,22.9287109 C255.051758,21.2685464 254.692875,19.8867243 253.975098,18.7832031 C253.257321,17.679682 252.205085,17.1279297 250.818359,17.1279297 C249.441399,17.1279297 248.398929,17.679682 247.690918,18.7832031 C246.982907,19.8867243 246.628906,21.2685464 246.628906,22.9287109 L246.628906,23.2509766 Z M266.84375,20.9951172 L270.212891,15.1503906 L273.582031,15.1503906 L268.44043,22.9873047 L273.728516,31 L270.417969,31 L266.902344,25.0087891 L263.386719,31 L260.046875,31 L265.334961,22.9873047 L260.193359,15.1503906 L263.518555,15.1503906 L266.84375,20.9951172 Z M7.41992188,54.1503906 L7.41992188,71.3037109 C7.41992188,72.9345785 7.0000042,74.1918901 6.16015625,75.0756836 C5.3203083,75.9594771 4.15332778,76.4013672 2.65917969,76.4013672 C2.3564438,76.4013672 2.08056765,76.3793948 1.83154297,76.3354492 C1.58251829,76.2915037 1.31640767,76.2255864 1.03320312,76.1376953 L1.23828125,73.8671875 C1.37500068,73.9160159 1.57031123,73.9575194 1.82421875,73.9916992 C2.07812627,74.0258791 2.28808511,74.0429688 2.45410156,74.0429688 C3.08887036,74.0429688 3.5942364,73.8281271 3.97021484,73.3984375 C4.34619329,72.9687479 4.53417969,72.2705126 4.53417969,71.3037109 L4.53417969,54.1503906 L7.41992188,54.1503906 Z M7.33203125,50.0341797 L4.44628906,50.0341797 L4.44628906,47.1484375 L7.33203125,47.1484375 L7.33203125,50.0341797 Z M21.921875,67.65625 C21.4238256,68.5058636 20.7841836,69.160154 20.0029297,69.6191406 C19.2216758,70.0781273 18.3183645,70.3076172 17.2929688,70.3076172 C15.5644445,70.3076172 14.2168017,69.7558649 13.25,68.6523438 C12.2831983,67.5488226 11.7998047,65.8300898 11.7998047,63.4960938 L11.7998047,54.1503906 L14.6855469,54.1503906 L14.6855469,63.5253906 C14.6855469,65.2148522 14.9345678,66.37695 15.4326172,67.0117188 C15.9306666,67.6464875 16.707026,67.9638672 17.7617188,67.9638672 C18.7871145,67.9638672 19.634274,67.7563497 20.3032227,67.3413086 C20.9721713,66.9262675 21.4775374,66.3378944 21.8193359,65.5761719 L21.8193359,54.1503906 L24.7050781,54.1503906 L24.7050781,70 L22.1123047,70 L21.921875,67.65625 Z M31.4873047,54.1503906 L31.6923828,56.2304688 C32.2099635,55.4785119 32.8666952,54.8950216 33.6625977,54.4799805 C34.4585001,54.0649393 35.3837838,53.8574219 36.4384766,53.8574219 C37.4931693,53.8574219 38.398922,54.1015601 39.1557617,54.5898438 C39.9126014,55.0781274 40.4814434,55.810542 40.8623047,56.7871094 C41.3603541,55.8886674 42.0195271,55.1757839 42.8398438,54.6484375 C43.6601604,54.1210911 44.617182,53.8574219 45.7109375,53.8574219 C47.3222737,53.8574219 48.596675,54.4116156 49.5341797,55.5200195 C50.4716844,56.6284235 50.9404297,58.2958873 50.9404297,60.5224609 L50.9404297,70 L48.0546875,70 L48.0546875,60.4931641 C48.0546875,58.9306562 47.7861355,57.8247103 47.2490234,57.175293 C46.7119114,56.5258757 45.9111381,56.2011719 44.8466797,56.2011719 C43.8603466,56.2011719 43.0620148,56.5429653 42.4516602,57.2265625 C41.8413055,57.9101597 41.4824224,58.7744088 41.375,59.8193359 L41.375,70 L38.4746094,70 L38.4746094,60.4931641 C38.4746094,59.0087816 38.1987332,57.9223667 37.6469727,57.2338867 C37.0952121,56.5454067 36.301763,56.2011719 35.2666016,56.2011719 C34.3876909,56.2011719 33.6650419,56.3818341 33.0986328,56.7431641 C32.5322237,57.104494 32.0976578,57.6123014 31.7949219,58.2666016 L31.7949219,70 L28.9091797,70 L28.9091797,54.1503906 L31.4873047,54.1503906 Z M68.6357422,62.6757812 C68.6357422,64.9609489 68.0888727,66.8041922 66.9951172,68.2055664 C65.9013617,69.6069406 64.3925877,70.3076172 62.46875,70.3076172 C61.4921826,70.3076172 60.6352576,70.1440446 59.8979492,69.8168945 C59.1606408,69.4897445 58.5332057,68.9990267 58.015625,68.3447266 L58.015625,76.09375 L55.1298828,76.09375 L55.1298828,54.1503906 L57.3417969,54.1503906 L57.7958984,56.2011719 C58.3134792,55.4394493 58.958004,54.8584004 59.7294922,54.4580078 C60.5009804,54.0576152 61.3994089,53.8574219 62.4248047,53.8574219 C64.3877051,53.8574219 65.9135688,54.6362227 67.0024414,56.1938477 C68.091314,57.7514726 68.6357422,59.8095575 68.6357422,62.3681641 L68.6357422,62.6757812 Z M65.75,62.3681641 C65.75,60.5712801 65.3959996,59.0942441 64.6879883,57.9370117 C63.9799769,56.7797794 62.9375069,56.2011719 61.5605469,56.2011719 C60.7304646,56.2011719 60.0224639,56.3891583 59.4365234,56.7651367 C58.850583,57.1411152 58.3769549,57.6562467 58.015625,58.3105469 L58.015625,65.9716797 C58.3769549,66.6259798 58.850583,67.1362286 59.4365234,67.5024414 C60.0224639,67.8686542 60.7402301,68.0517578 61.5898438,68.0517578 C62.9570381,68.0517578 63.992184,67.5512745 64.6953125,66.550293 C65.398441,65.5493114 65.75,64.2578204 65.75,62.6757812 L65.75,62.3681641 Z M81.3945313,65.7958984 C81.3945313,65.1611296 81.1528344,64.6386739 80.6694336,64.2285156 C80.1860327,63.8183573 79.2705146,63.4619156 77.9228516,63.1591797 C75.9990138,62.7392557 74.5512744,62.1704137 73.5795898,61.4526367 C72.6079053,60.7348597 72.1220703,59.7558656 72.1220703,58.515625 C72.1220703,57.2265561 72.6689398,56.1279342 73.7626953,55.2197266 C74.8564508,54.3115189 76.2822178,53.8574219 78.0400391,53.8574219 C79.8857514,53.8574219 81.3530219,54.33105 82.4418945,55.2783203 C83.5307672,56.2255907 84.0507815,57.3779229 84.0019531,58.7353516 L83.9726563,58.8232422 L81.21875,58.8232422 C81.21875,58.1298793 80.9282256,57.507327 80.347168,56.9555664 C79.7661104,56.4038058 78.9970751,56.1279297 78.0400391,56.1279297 C77.0146433,56.1279297 76.2529322,56.3525368 75.7548828,56.8017578 C75.2568334,57.2509788 75.0078125,57.7929656 75.0078125,58.4277344 C75.0078125,59.0527375 75.2275369,59.5458966 75.6669922,59.9072266 C76.1064475,60.2685565 76.9999933,60.5908189 78.3476563,60.8740234 C80.3496194,61.3037131 81.8388623,61.8872033 82.8154297,62.6245117 C83.7919971,63.3618201 84.2802734,64.3505797 84.2802734,65.5908203 C84.2802734,66.9970773 83.7114315,68.1347613 82.5737305,69.0039062 C81.4360295,69.8730512 79.9492279,70.3076172 78.1132813,70.3076172 C76.0917868,70.3076172 74.5000058,69.794927 73.3378906,68.7695312 C72.1757754,67.7441355 71.6240231,66.5478584 71.6826172,65.1806641 L71.7119141,65.0927734 L74.4658203,65.0927734 C74.5146487,66.1181692 74.8955042,66.8676734 75.6083984,67.3413086 C76.3212926,67.8149438 77.1562452,68.0517578 78.1132813,68.0517578 C79.138677,68.0517578 79.9418916,67.8442404 80.5229492,67.4291992 C81.1040068,67.0141581 81.3945313,66.4697299 81.3945313,65.7958984 Z M94.6513672,61.9287109 C94.6513672,59.5849492 95.2861265,57.6538162 96.5556641,56.1352539 C97.8252017,54.6166916 99.5488172,53.8574219 101.726562,53.8574219 C103.923839,53.8574219 105.659662,54.6142502 106.934082,56.1279297 C108.208502,57.6416091 108.845703,59.5751835 108.845703,61.9287109 L108.845703,62.2509766 C108.845703,64.6142696 108.210944,66.547844 106.941406,68.0517578 C105.671869,69.5556716 103.94337,70.3076172 101.755859,70.3076172 C99.5683484,70.3076172 97.8374087,69.5532302 96.5629883,68.0444336 C95.2885678,66.535637 94.6513672,64.604504 94.6513672,62.2509766 L94.6513672,61.9287109 Z M97.5371094,62.2509766 C97.5371094,63.9306725 97.8911097,65.3173773 98.5991211,66.4111328 C99.3071324,67.5048883 100.359368,68.0517578 101.755859,68.0517578 C103.132819,68.0517578 104.177731,67.5048883 104.890625,66.4111328 C105.603519,65.3173773 105.959961,63.9306725 105.959961,62.2509766 L105.959961,61.9287109 C105.959961,60.2685464 105.601078,58.8867243 104.883301,57.7832031 C104.165524,56.679682 103.113288,56.1279297 101.726562,56.1279297 C100.349602,56.1279297 99.3071324,56.679682 98.5991211,57.7832031 C97.8911097,58.8867243 97.5371094,60.2685464 97.5371094,61.9287109 L97.5371094,62.2509766 Z M117.664062,65.3271484 L117.913086,66.4404297 L118.000977,66.4404297 L118.279297,65.3271484 L121.926758,54.1503906 L124.871094,54.1503906 L119.041016,70 L116.858398,70 L110.955078,54.1503906 L113.914062,54.1503906 L117.664062,65.3271484 Z M134.041016,70.3076172 C131.833973,70.3076172 130.07862,69.5727613 128.774902,68.1030273 C127.471185,66.6332934 126.819336,64.7265742 126.819336,62.3828125 L126.819336,61.7382812 C126.819336,59.4824106 127.490716,57.604988 128.833496,56.105957 C130.176276,54.6069261 131.765616,53.8574219 133.601562,53.8574219 C135.740245,53.8574219 137.35644,54.5019467 138.450195,55.7910156 C139.543951,57.0800846 140.09082,58.7988174 140.09082,60.9472656 L140.09082,62.7490234 L129.807617,62.7490234 L129.763672,62.8222656 C129.792969,64.3457107 130.178707,65.5981396 130.920898,66.5795898 C131.66309,67.5610401 132.703118,68.0517578 134.041016,68.0517578 C135.017583,68.0517578 135.874508,67.912599 136.611816,67.6342773 C137.349125,67.3559556 137.986325,66.9726587 138.523438,66.484375 L139.651367,68.359375 C139.084958,68.9160184 138.337895,69.379881 137.410156,69.7509766 C136.482417,70.1220722 135.359382,70.3076172 134.041016,70.3076172 Z M133.601562,56.1279297 C132.634761,56.1279297 131.809574,56.5356405 131.125977,57.3510742 C130.442379,58.166508 130.022462,59.189447 129.866211,60.4199219 L129.895508,60.4931641 L137.205078,60.4931641 L137.205078,60.1123047 C137.205078,58.9794865 136.902347,58.0322304 136.296875,57.2705078 C135.691403,56.5087853 134.792975,56.1279297 133.601562,56.1279297 Z M150.828125,56.6992188 L149.348633,56.6113281 C148.58691,56.6113281 147.944827,56.7919904 147.422363,57.1533203 C146.8999,57.5146502 146.497072,58.0224577 146.213867,58.6767578 L146.213867,70 L143.328125,70 L143.328125,54.1503906 L145.90625,54.1503906 L146.18457,56.4648438 C146.633791,55.6445271 147.187985,55.0048851 147.847168,54.5458984 C148.506351,54.0869118 149.265621,53.8574219 150.125,53.8574219 C150.339845,53.8574219 150.544921,53.8745115 150.740234,53.9086914 C150.935548,53.9428713 151.096679,53.979492 151.223633,54.0185547 L150.828125,56.6992188 Z M164.875977,50.3271484 L164.875977,54.1503906 L167.878906,54.1503906 L167.878906,56.2890625 L164.875977,56.2890625 L164.875977,65.9130859 C164.875977,66.6552771 165.029784,67.1777329 165.337402,67.4804688 C165.645021,67.7832046 166.052732,67.9345703 166.560547,67.9345703 C166.726563,67.9345703 166.909667,67.9150393 167.109863,67.8759766 C167.31006,67.8369139 167.48828,67.7880862 167.644531,67.7294922 L168.025391,69.7070312 C167.810546,69.8828134 167.495608,70.0268549 167.080566,70.1391602 C166.665525,70.2514654 166.248049,70.3076172 165.828125,70.3076172 C164.656244,70.3076172 163.723636,69.9536168 163.030273,69.2456055 C162.336911,68.5375941 161.990234,67.4267654 161.990234,65.9130859 L161.990234,56.2890625 L159.470703,56.2890625 L159.470703,54.1503906 L161.990234,54.1503906 L161.990234,50.3271484 L164.875977,50.3271484 Z M174.324219,56.2744141 C174.871096,55.5126915 175.542476,54.9194357 176.338379,54.4946289 C177.134281,54.0698221 178.01562,53.8574219 178.982422,53.8574219 C180.671883,53.8574219 181.987788,54.3652293 182.930176,55.3808594 C183.872563,56.3964895 184.34375,57.9589738 184.34375,60.0683594 L184.34375,70 L181.458008,70 L181.458008,60.0390625 C181.458008,58.7304622 181.177249,57.763675 180.615723,57.1386719 C180.054196,56.5136688 179.216802,56.2011719 178.103516,56.2011719 C177.30273,56.2011719 176.57764,56.3891583 175.928223,56.7651367 C175.278805,57.1411152 174.744143,57.651364 174.324219,58.2958984 L174.324219,70 L171.438477,70 L171.438477,47.1484375 L174.324219,47.1484375 L174.324219,56.2744141 Z M195.066406,70.3076172 C192.859364,70.3076172 191.10401,69.5727613 189.800293,68.1030273 C188.496576,66.6332934 187.844727,64.7265742 187.844727,62.3828125 L187.844727,61.7382812 C187.844727,59.4824106 188.516107,57.604988 189.858887,56.105957 C191.201667,54.6069261 192.791006,53.8574219 194.626953,53.8574219 C196.765636,53.8574219 198.38183,54.5019467 199.475586,55.7910156 C200.569341,57.0800846 201.116211,58.7988174 201.116211,60.9472656 L201.116211,62.7490234 L190.833008,62.7490234 L190.789062,62.8222656 C190.81836,64.3457107 191.204098,65.5981396 191.946289,66.5795898 C192.68848,67.5610401 193.728509,68.0517578 195.066406,68.0517578 C196.042974,68.0517578 196.899899,67.912599 197.637207,67.6342773 C198.374515,67.3559556 199.011716,66.9726587 199.548828,66.484375 L200.676758,68.359375 C200.110349,68.9160184 199.363286,69.379881 198.435547,69.7509766 C197.507808,70.1220722 196.384772,70.3076172 195.066406,70.3076172 Z M194.626953,56.1279297 C193.660151,56.1279297 192.834964,56.5356405 192.151367,57.3510742 C191.46777,58.166508 191.047852,59.189447 190.891602,60.4199219 L190.920898,60.4931641 L198.230469,60.4931641 L198.230469,60.1123047 C198.230469,58.9794865 197.927737,58.0322304 197.322266,57.2705078 C196.716794,56.5087853 195.818365,56.1279297 194.626953,56.1279297 Z M214.929688,70 L212.043945,70 L212.043945,47.1484375 L214.929688,47.1484375 L214.929688,70 Z M229.109375,70 C229.011718,69.521482 228.936035,69.0991229 228.882324,68.7329102 C228.828613,68.3666974 228.796875,67.9980487 228.787109,67.6269531 C228.249997,68.3886757 227.549321,69.0258763 226.685059,69.5385742 C225.820796,70.0512721 224.89063,70.3076172 223.894531,70.3076172 C222.244132,70.3076172 220.986821,69.8852581 220.122559,69.0405273 C219.258296,68.1957966 218.826172,67.0312574 218.826172,65.546875 C218.826172,64.0331956 219.438959,62.8491254 220.664551,61.9946289 C221.890143,61.1401324 223.552724,60.7128906 225.652344,60.7128906 L228.787109,60.7128906 L228.787109,59.1455078 C228.787109,58.2177688 228.503909,57.4829129 227.9375,56.940918 C227.371091,56.3989231 226.570318,56.1279297 225.535156,56.1279297 C224.607417,56.1279297 223.85303,56.3647437 223.271973,56.8383789 C222.690915,57.3120141 222.400391,57.8808561 222.400391,58.5449219 L219.646484,58.5449219 L219.617188,58.4570312 C219.558593,57.3046817 220.103022,56.2500048 221.250488,55.2929688 C222.397955,54.3359327 223.879874,53.8574219 225.696289,53.8574219 C227.493173,53.8574219 228.938471,54.3139603 230.032227,55.2270508 C231.125982,56.1401413 231.672852,57.4560461 231.672852,59.1748047 L231.672852,66.8066406 C231.672852,67.3730497 231.702148,67.9199192 231.760742,68.4472656 C231.819336,68.974612 231.926757,69.492185 232.083008,70 L229.109375,70 Z M224.319336,67.890625 C225.364263,67.890625 226.306636,67.622073 227.146484,67.0849609 C227.986332,66.5478489 228.533202,65.9326207 228.787109,65.2392578 L228.787109,62.6611328 L225.549805,62.6611328 C224.38769,62.6611328 223.457523,62.9540986 222.759277,63.5400391 C222.061032,64.1259795 221.711914,64.8144492 221.711914,65.6054688 C221.711914,66.3085973 221.931638,66.8652323 222.371094,67.2753906 C222.810549,67.6855489 223.459957,67.890625 224.319336,67.890625 Z M238.586914,67.7441406 L247.742188,67.7441406 L247.742188,70 L235.144531,70 L235.144531,67.9785156 L243.713867,56.4355469 L235.24707,56.4355469 L235.24707,54.1503906 L247.244141,54.1503906 L247.244141,56.1132812 L238.586914,67.7441406 Z M255.798828,64.1259766 L256.311523,66.1181641 L256.399414,66.1181641 L260.295898,54.1503906 L263.503906,54.1503906 L256.838867,72.4316406 C256.438475,73.4960991 255.86475,74.4238242 255.117676,75.2148438 C254.370602,76.0058633 253.362311,76.4013672 252.092773,76.4013672 C251.858397,76.4013672 251.560549,76.374512 251.199219,76.3208008 C250.837889,76.2670896 250.559571,76.2158206 250.364258,76.1669922 L250.657227,73.8964844 C250.598633,73.8867187 250.771971,73.8964842 251.177246,73.9257812 C251.582522,73.9550783 251.838867,73.9697266 251.946289,73.9697266 C252.561527,73.9697266 253.064451,73.6962918 253.455078,73.1494141 C253.845705,72.6025363 254.17285,71.9970736 254.436523,71.3330078 L255.125,69.6777344 L249.236328,54.1503906 L252.458984,54.1503906 L255.798828,64.1259766 Z M272.834961,62.3681641 C272.834961,59.8193232 273.379389,57.7636797 274.468262,56.2011719 C275.557134,54.6386641 277.082998,53.8574219 279.045898,53.8574219 C279.973637,53.8574219 280.796383,54.0283186 281.51416,54.3701172 C282.231937,54.7119158 282.844724,55.2099577 283.352539,55.8642578 L283.352539,47.1484375 L286.238281,47.1484375 L286.238281,70 L283.879883,70 L283.542969,68.0517578 C283.025388,68.793949 282.390629,69.3554668 281.638672,69.7363281 C280.886715,70.1171894 280.0127,70.3076172 279.016602,70.3076172 C277.082998,70.3076172 275.569341,69.6069406 274.475586,68.2055664 C273.38183,66.8041922 272.834961,64.9609489 272.834961,62.6757812 L272.834961,62.3681641 Z M275.720703,62.6757812 C275.720703,64.2773518 276.047848,65.5590772 276.702148,66.5209961 C277.356449,67.482915 278.372063,67.9638672 279.749023,67.9638672 C280.608403,67.9638672 281.331052,67.7685566 281.916992,67.3779297 C282.502933,66.9873027 282.981443,66.4404332 283.352539,65.7373047 L283.352539,58.3398438 C282.981443,57.6855436 282.500491,57.1655293 281.909668,56.7797852 C281.318845,56.394041 280.608403,56.2011719 279.77832,56.2011719 C278.391595,56.2011719 277.368656,56.7724552 276.709473,57.9150391 C276.05029,59.0576229 275.720703,60.5419831 275.720703,62.3681641 L275.720703,62.6757812 Z M289.871094,61.9287109 C289.871094,59.5849492 290.505853,57.6538162 291.775391,56.1352539 C293.044928,54.6166916 294.768544,53.8574219 296.946289,53.8574219 C299.143566,53.8574219 300.879388,54.6142502 302.153809,56.1279297 C303.428229,57.6416091 304.06543,59.5751835 304.06543,61.9287109 L304.06543,62.2509766 C304.06543,64.6142696 303.43067,66.547844 302.161133,68.0517578 C300.891595,69.5556716 299.163097,70.3076172 296.975586,70.3076172 C294.788075,70.3076172 293.057135,69.5532302 291.782715,68.0444336 C290.508294,66.535637 289.871094,64.604504 289.871094,62.2509766 L289.871094,61.9287109 Z M292.756836,62.2509766 C292.756836,63.9306725 293.110836,65.3173773 293.818848,66.4111328 C294.526859,67.5048883 295.579095,68.0517578 296.975586,68.0517578 C298.352546,68.0517578 299.397457,67.5048883 300.110352,66.4111328 C300.823246,65.3173773 301.179688,63.9306725 301.179688,62.2509766 L301.179688,61.9287109 C301.179688,60.2685464 300.820804,58.8867243 300.103027,57.7832031 C299.38525,56.679682 298.333015,56.1279297 296.946289,56.1279297 C295.569329,56.1279297 294.526859,56.679682 293.818848,57.7832031 C293.110836,58.8867243 292.756836,60.2685464 292.756836,61.9287109 L292.756836,62.2509766 Z M306.96582,62.3681641 C306.96582,59.8193232 307.522455,57.7636797 308.635742,56.2011719 C309.749029,54.6386641 311.2871,53.8574219 313.25,53.8574219 C314.255864,53.8574219 315.139645,54.0600566 315.901367,54.465332 C316.66309,54.8706075 317.297849,55.4540978 317.805664,56.2158203 L318.157227,54.1503906 L320.457031,54.1503906 L320.457031,70.0878906 C320.457031,72.1191508 319.866217,73.6791938 318.68457,74.7680664 C317.502924,75.856939 315.798839,76.4013672 313.572266,76.4013672 C312.810543,76.4013672 311.987797,76.2963878 311.104004,76.0864258 C310.22021,75.8764638 309.44141,75.5908221 308.767578,75.2294922 L309.5,72.9882812 C310.017581,73.2812515 310.642574,73.5180655 311.375,73.6987305 C312.107426,73.8793954 312.830075,73.9697266 313.542969,73.9697266 C314.949226,73.9697266 315.972165,73.6499055 316.611816,73.0102539 C317.251468,72.3706023 317.571289,71.3964909 317.571289,70.0878906 L317.571289,68.3007812 C317.053708,68.9648471 316.433597,69.4653303 315.710938,69.8022461 C314.988278,70.1391618 314.158208,70.3076172 313.220703,70.3076172 C311.277334,70.3076172 309.749029,69.6044992 308.635742,68.1982422 C307.522455,66.7919852 306.96582,64.9511833 306.96582,62.6757812 L306.96582,62.3681641 Z M309.851562,62.6757812 C309.851562,64.2675861 310.188473,65.5468702 310.862305,66.5136719 C311.536136,67.4804736 312.561517,67.9638672 313.938477,67.9638672 C314.807622,67.9638672 315.535153,67.7661153 316.121094,67.3706055 C316.707034,66.9750957 317.190428,66.4160192 317.571289,65.6933594 L317.571289,58.3984375 C317.200193,57.724606 316.7168,57.1899434 316.121094,56.7944336 C315.525388,56.3989238 314.807621,56.2011719 313.967773,56.2011719 C312.590813,56.2011719 311.56055,56.777338 310.876953,57.9296875 C310.193356,59.082037 309.851562,60.5615144 309.851562,62.3681641 L309.851562,62.6757812 Z" id="The-quick-brown-fox-Copy"></path>
                </g>
            </g>
        </g>
    </g>
</svg>