<?xml version="1.0" encoding="UTF-8"?>
<svg width="308px" height="70px" viewBox="0 0 308 70" version="1.1" xmlns="http://www.w3.org/2000/svg" xmlns:xlink="http://www.w3.org/1999/xlink">
    <!-- Generator: Sketch 50.2 (55047) - http://www.bohemiancoding.com/sketch -->
    <title>The quick brown fox</title>
    <desc>Created with Sketch.</desc>
    <defs></defs>
    <g id="Page-1" stroke="none" stroke-width="1" fill="none" fill-rule="evenodd">
        <g id="Desktop-Copy" transform="translate(-322.000000, -321.000000)" fill="#333333">
            <path d="M333.180664,344 L330.543945,344 L330.543945,325.235352 L323.732422,325.235352 L323.732422,322.862305 L339.992188,322.862305 L339.992188,325.235352 L333.180664,325.235352 L333.180664,344 Z M342.599609,344 L342.599609,321.939453 L345.148438,321.939453 L345.148438,330.772461 L345.207031,330.772461 C346.188477,328.985352 347.799805,328.0625 350.216797,328.0625 C353.673828,328.0625 355.783203,330.40625 355.783203,333.921875 L355.783203,344 L353.234375,344 L353.234375,334.375977 C353.234375,331.856445 351.959961,330.333008 349.455078,330.333008 C346.789062,330.333008 345.148438,332.149414 345.148438,334.917969 L345.148438,344 L342.599609,344 Z M365.46582,330.303711 C362.990234,330.303711 361.203125,332.105469 361.027344,334.771484 L369.713867,334.771484 C369.655273,332.09082 367.956055,330.303711 365.46582,330.303711 Z M369.655273,339.488281 L372.174805,339.488281 C371.735352,342.198242 368.996094,344.146484 365.626953,344.146484 C361.188477,344.146484 358.390625,341.055664 358.390625,336.163086 C358.390625,331.270508 361.203125,328.0625 365.509766,328.0625 C369.728516,328.0625 372.365234,331.036133 372.365234,335.811523 L372.365234,336.807617 L361.027344,336.807617 L361.027344,336.954102 C361.027344,339.957031 362.873047,341.905273 365.685547,341.905273 C367.663086,341.905273 369.201172,340.967773 369.655273,339.488281 Z M388.185547,328.0625 C390.470703,328.0625 392.316406,329.029297 393.327148,330.772461 L393.371094,330.772461 L393.371094,328.208984 L395.802734,328.208984 L395.802734,349.273438 L393.253906,349.273438 L393.253906,341.436523 L393.195312,341.436523 C392.199219,343.165039 390.353516,344.146484 388.126953,344.146484 C384.157227,344.146484 381.447266,340.923828 381.447266,336.104492 C381.447266,331.270508 384.157227,328.0625 388.185547,328.0625 Z M388.610352,341.875977 C391.364258,341.875977 393.253906,339.532227 393.253906,336.104492 C393.253906,332.691406 391.364258,330.333008 388.610352,330.333008 C385.856445,330.333008 384.054688,332.603516 384.054688,336.104492 C384.054688,339.620117 385.856445,341.875977 388.610352,341.875977 Z M412.135742,328.208984 L412.135742,344 L409.733398,344 L409.733398,341.392578 L409.674805,341.392578 C408.693359,343.208984 407.067383,344.146484 404.650391,344.146484 C401.193359,344.146484 399.186523,341.919922 399.186523,338.331055 L399.186523,328.208984 L401.735352,328.208984 L401.735352,337.891602 C401.735352,340.484375 402.951172,341.875977 405.426758,341.875977 C408.019531,341.875977 409.586914,340.088867 409.586914,337.378906 L409.586914,328.208984 L412.135742,328.208984 Z M415.739258,344 L415.739258,328.208984 L418.288086,328.208984 L418.288086,344 L415.739258,344 Z M417.013672,325.660156 C416.134766,325.660156 415.402344,324.927734 415.402344,324.048828 C415.402344,323.155273 416.134766,322.4375 417.013672,322.4375 C417.907227,322.4375 418.625,323.155273 418.625,324.048828 C418.625,324.927734 417.907227,325.660156 417.013672,325.660156 Z M434.943359,333.350586 L432.438477,333.350586 C432.116211,331.666016 430.709961,330.333008 428.336914,330.333008 C425.583008,330.333008 423.708008,332.618164 423.708008,336.104492 C423.708008,339.693359 425.612305,341.875977 428.366211,341.875977 C430.563477,341.875977 432.02832,340.850586 432.467773,338.946289 L434.972656,338.946289 C434.547852,342.022461 431.955078,344.146484 428.351562,344.146484 C424.015625,344.146484 421.115234,341.070312 421.115234,336.104492 C421.115234,331.255859 424.000977,328.0625 428.322266,328.0625 C432.233398,328.0625 434.621094,330.582031 434.943359,333.350586 Z M440.114258,335.269531 L447.189453,328.208984 L450.294922,328.208984 L443.395508,335.035156 L450.5,344 L447.541016,344 L441.608398,336.602539 L440.114258,338.008789 L440.114258,344 L437.56543,344 L437.56543,321.939453 L440.114258,321.939453 L440.114258,335.269531 Z M467.389648,344.146484 C465.089844,344.146484 463.273438,343.150391 462.248047,341.333984 L462.189453,341.333984 L462.189453,344 L459.772461,344 L459.772461,321.939453 L462.321289,321.939453 L462.321289,330.772461 L462.379883,330.772461 C463.375977,329.043945 465.207031,328.0625 467.448242,328.0625 C471.417969,328.0625 474.12793,331.285156 474.12793,336.104492 C474.12793,340.938477 471.417969,344.146484 467.389648,344.146484 Z M466.935547,330.333008 C464.181641,330.333008 462.306641,332.691406 462.306641,336.104492 C462.306641,339.532227 464.181641,341.875977 466.935547,341.875977 C469.704102,341.875977 471.520508,339.620117 471.520508,336.104492 C471.520508,332.603516 469.704102,330.333008 466.935547,330.333008 Z M476.808594,344 L476.808594,328.208984 L479.210938,328.208984 L479.210938,330.772461 L479.269531,330.772461 C479.738281,329.117188 481.24707,328.0625 483.092773,328.0625 C483.546875,328.0625 483.927734,328.106445 484.147461,328.150391 L484.147461,330.655273 C483.942383,330.582031 483.385742,330.508789 482.755859,330.508789 C480.705078,330.508789 479.357422,332.00293 479.357422,334.229492 L479.357422,344 L476.808594,344 Z M492.819336,344.146484 C488.380859,344.146484 485.539062,340.99707 485.539062,336.104492 C485.539062,331.197266 488.380859,328.0625 492.819336,328.0625 C497.257812,328.0625 500.099609,331.197266 500.099609,336.104492 C500.099609,340.99707 497.257812,344.146484 492.819336,344.146484 Z M492.819336,341.875977 C495.763672,341.875977 497.506836,339.722656 497.506836,336.104492 C497.506836,332.47168 495.763672,330.333008 492.819336,330.333008 C489.875,330.333008 488.131836,332.486328 488.131836,336.104492 C488.131836,339.722656 489.889648,341.875977 492.819336,341.875977 Z M522.760742,328.208984 L518.336914,344 L515.758789,344 L512.155273,331.724609 L512.09668,331.724609 L508.493164,344 L505.915039,344 L501.491211,328.208984 L504.010742,328.208984 L507.21875,341.114258 L507.277344,341.114258 L510.895508,328.208984 L513.356445,328.208984 L516.974609,341.114258 L517.033203,341.114258 L520.241211,328.208984 L522.760742,328.208984 Z M524.928711,344 L524.928711,328.208984 L527.331055,328.208984 L527.331055,330.772461 L527.389648,330.772461 C528.385742,328.985352 529.953125,328.0625 532.399414,328.0625 C535.871094,328.0625 537.87793,330.289062 537.87793,333.87793 L537.87793,344 L535.329102,344 L535.329102,334.317383 C535.329102,331.739258 534.12793,330.333008 531.637695,330.333008 C529.044922,330.333008 527.477539,332.120117 527.477539,334.830078 L527.477539,344 L524.928711,344 Z M549.274414,344 L549.274414,330.318359 L547.077148,330.318359 L547.077148,328.208984 L549.274414,328.208984 L549.274414,326.744141 C549.274414,323.829102 550.548828,322.525391 553.478516,322.525391 C553.976562,322.525391 554.416016,322.569336 554.899414,322.657227 L554.899414,324.766602 C554.5625,324.693359 554.108398,324.649414 553.712891,324.649414 C552.394531,324.649414 551.837891,325.264648 551.823242,326.744141 L551.823242,328.208984 L554.899414,328.208984 L554.899414,330.318359 L551.823242,330.318359 L551.823242,344 L549.274414,344 Z M564.157227,344.146484 C559.71875,344.146484 556.876953,340.99707 556.876953,336.104492 C556.876953,331.197266 559.71875,328.0625 564.157227,328.0625 C568.595703,328.0625 571.4375,331.197266 571.4375,336.104492 C571.4375,340.99707 568.595703,344.146484 564.157227,344.146484 Z M564.157227,341.875977 C567.101562,341.875977 568.844727,339.722656 568.844727,336.104492 C568.844727,332.47168 567.101562,330.333008 564.157227,330.333008 C561.212891,330.333008 559.469727,332.486328 559.469727,336.104492 C559.469727,339.722656 561.227539,341.875977 564.157227,341.875977 Z M579.655273,337.950195 L579.59668,337.950195 L575.744141,344 L572.902344,344 L578.307617,336.104492 L572.990234,328.208984 L575.832031,328.208984 L579.68457,334.170898 L579.743164,334.170898 L583.551758,328.208984 L586.393555,328.208984 L581.046875,336.001953 L586.320312,344 L583.478516,344 L579.655273,337.950195 Z M327.423828,369.208984 L327.423828,385.776367 C327.423828,388.984375 325.929688,390.419922 322.575195,390.419922 L322.121094,390.419922 L322.121094,388.266602 L322.516602,388.266602 C324.245117,388.266602 324.875,387.607422 324.875,385.820312 L324.875,369.208984 L327.423828,369.208984 Z M326.149414,366.660156 C325.270508,366.660156 324.538086,365.927734 324.538086,365.048828 C324.538086,364.155273 325.270508,363.4375 326.149414,363.4375 C327.042969,363.4375 327.760742,364.155273 327.760742,365.048828 C327.760742,365.927734 327.042969,366.660156 326.149414,366.660156 Z M343.90332,369.208984 L343.90332,385 L341.500977,385 L341.500977,382.392578 L341.442383,382.392578 C340.460938,384.208984 338.834961,385.146484 336.417969,385.146484 C332.960938,385.146484 330.954102,382.919922 330.954102,379.331055 L330.954102,369.208984 L333.50293,369.208984 L333.50293,378.891602 C333.50293,381.484375 334.71875,382.875977 337.194336,382.875977 C339.787109,382.875977 341.354492,381.088867 341.354492,378.378906 L341.354492,369.208984 L343.90332,369.208984 Z M347.360352,385 L347.360352,369.208984 L349.762695,369.208984 L349.762695,371.772461 L349.821289,371.772461 C350.568359,370.087891 352.25293,369.0625 354.303711,369.0625 C356.442383,369.0625 358.039062,370.146484 358.727539,372.050781 L358.786133,372.050781 C359.679688,370.175781 361.540039,369.0625 363.751953,369.0625 C366.87207,369.0625 368.893555,371.083984 368.893555,374.21875 L368.893555,385 L366.344727,385 L366.344727,374.804688 C366.344727,372.62207 365.128906,371.333008 363.019531,371.333008 C360.910156,371.333008 359.401367,372.900391 359.401367,375.068359 L359.401367,385 L356.852539,385 L356.852539,374.49707 C356.852539,372.592773 355.548828,371.333008 353.571289,371.333008 C351.461914,371.333008 349.90918,372.988281 349.90918,375.200195 L349.90918,385 L347.360352,385 Z M379.865234,369.0625 C383.893555,369.0625 386.632812,372.285156 386.632812,377.104492 C386.632812,381.923828 383.908203,385.146484 379.923828,385.146484 C377.682617,385.146484 375.880859,384.165039 374.884766,382.436523 L374.826172,382.436523 L374.826172,390.273438 L372.277344,390.273438 L372.277344,369.208984 L374.694336,369.208984 L374.694336,371.772461 L374.75293,371.772461 C375.675781,370.131836 377.682617,369.0625 379.865234,369.0625 Z M379.396484,382.875977 C382.179688,382.875977 384.025391,380.605469 384.025391,377.104492 C384.025391,373.618164 382.179688,371.333008 379.396484,371.333008 C376.671875,371.333008 374.811523,373.676758 374.811523,377.104492 C374.811523,380.546875 376.671875,382.875977 379.396484,382.875977 Z M389.049805,373.618164 C389.049805,370.952148 391.466797,369.077148 394.894531,369.077148 C398.102539,369.077148 400.53418,370.996094 400.636719,373.588867 L398.19043,373.588867 C398.029297,372.109375 396.740234,371.186523 394.806641,371.186523 C392.858398,371.186523 391.554688,372.109375 391.554688,373.486328 C391.554688,374.555664 392.404297,375.273438 394.220703,375.727539 L396.623047,376.328125 C399.816406,377.133789 400.958984,378.24707 400.958984,380.546875 C400.958984,383.242188 398.366211,385.146484 394.71875,385.146484 C391.320312,385.146484 388.859375,383.300781 388.610352,380.561523 L391.173828,380.561523 C391.4375,382.172852 392.741211,383.037109 394.894531,383.037109 C397.047852,383.037109 398.395508,382.143555 398.395508,380.722656 C398.395508,379.609375 397.736328,379.023438 395.93457,378.554688 L393.166016,377.836914 C390.397461,377.119141 389.049805,375.727539 389.049805,373.618164 Z M417.40918,385.146484 C412.970703,385.146484 410.128906,381.99707 410.128906,377.104492 C410.128906,372.197266 412.970703,369.0625 417.40918,369.0625 C421.847656,369.0625 424.689453,372.197266 424.689453,377.104492 C424.689453,381.99707 421.847656,385.146484 417.40918,385.146484 Z M417.40918,382.875977 C420.353516,382.875977 422.09668,380.722656 422.09668,377.104492 C422.09668,373.47168 420.353516,371.333008 417.40918,371.333008 C414.464844,371.333008 412.72168,373.486328 412.72168,377.104492 C412.72168,380.722656 414.479492,382.875977 417.40918,382.875977 Z M440.246094,369.208984 L434.416016,385 L431.837891,385 L426.007812,369.208984 L428.673828,369.208984 L433.097656,382.246094 L433.15625,382.246094 L437.594727,369.208984 L440.246094,369.208984 Z M448.639648,371.303711 C446.164062,371.303711 444.376953,373.105469 444.201172,375.771484 L452.887695,375.771484 C452.829102,373.09082 451.129883,371.303711 448.639648,371.303711 Z M452.829102,380.488281 L455.348633,380.488281 C454.90918,383.198242 452.169922,385.146484 448.800781,385.146484 C444.362305,385.146484 441.564453,382.055664 441.564453,377.163086 C441.564453,372.270508 444.376953,369.0625 448.683594,369.0625 C452.902344,369.0625 455.539062,372.036133 455.539062,376.811523 L455.539062,377.807617 L444.201172,377.807617 L444.201172,377.954102 C444.201172,380.957031 446.046875,382.905273 448.859375,382.905273 C450.836914,382.905273 452.375,381.967773 452.829102,380.488281 Z M458.219727,385 L458.219727,369.208984 L460.62207,369.208984 L460.62207,371.772461 L460.680664,371.772461 C461.149414,370.117188 462.658203,369.0625 464.503906,369.0625 C464.958008,369.0625 465.338867,369.106445 465.558594,369.150391 L465.558594,371.655273 C465.353516,371.582031 464.796875,371.508789 464.166992,371.508789 C462.116211,371.508789 460.768555,373.00293 460.768555,375.229492 L460.768555,385 L458.219727,385 Z M475.739258,365.649414 L478.288086,365.649414 L478.288086,369.208984 L481.364258,369.208984 L481.364258,371.318359 L478.288086,371.318359 L478.288086,380.795898 C478.288086,382.246094 478.90332,382.905273 480.250977,382.905273 C480.558594,382.905273 481.173828,382.861328 481.349609,382.832031 L481.349609,384.985352 C481.041992,385.058594 480.30957,385.117188 479.708984,385.117188 C476.852539,385.117188 475.739258,383.930664 475.739258,380.898438 L475.739258,371.318359 L473.541992,371.318359 L473.541992,369.208984 L475.739258,369.208984 L475.739258,365.649414 Z M484.337891,385 L484.337891,362.939453 L486.886719,362.939453 L486.886719,371.772461 L486.945312,371.772461 C487.926758,369.985352 489.538086,369.0625 491.955078,369.0625 C495.412109,369.0625 497.521484,371.40625 497.521484,374.921875 L497.521484,385 L494.972656,385 L494.972656,375.375977 C494.972656,372.856445 493.698242,371.333008 491.193359,371.333008 C488.527344,371.333008 486.886719,373.149414 486.886719,375.917969 L486.886719,385 L484.337891,385 Z M507.204102,371.303711 C504.728516,371.303711 502.941406,373.105469 502.765625,375.771484 L511.452148,375.771484 C511.393555,373.09082 509.694336,371.303711 507.204102,371.303711 Z M511.393555,380.488281 L513.913086,380.488281 C513.473633,383.198242 510.734375,385.146484 507.365234,385.146484 C502.926758,385.146484 500.128906,382.055664 500.128906,377.163086 C500.128906,372.270508 502.941406,369.0625 507.248047,369.0625 C511.466797,369.0625 514.103516,372.036133 514.103516,376.811523 L514.103516,377.807617 L502.765625,377.807617 L502.765625,377.954102 C502.765625,380.957031 504.611328,382.905273 507.423828,382.905273 C509.401367,382.905273 510.939453,381.967773 511.393555,380.488281 Z M524.108398,385 L524.108398,362.939453 L526.657227,362.939453 L526.657227,385 L524.108398,385 Z M535.416992,382.93457 C537.995117,382.93457 539.884766,381.264648 539.884766,378.994141 L539.884766,377.719727 L535.753906,377.983398 C533.380859,378.129883 532.150391,378.994141 532.150391,380.517578 C532.150391,381.982422 533.424805,382.93457 535.416992,382.93457 Z M534.875,385.146484 C531.666992,385.146484 529.542969,383.300781 529.542969,380.50293 C529.542969,377.792969 531.623047,376.196289 535.460938,375.961914 L539.884766,375.698242 L539.884766,374.379883 C539.884766,372.416992 538.595703,371.333008 536.266602,371.333008 C534.435547,371.333008 533.073242,372.270508 532.765625,373.764648 L530.319336,373.764648 C530.392578,371.098633 532.985352,369.0625 536.295898,369.0625 C540.03125,369.0625 542.433594,371.054688 542.433594,374.160156 L542.433594,385 L540.016602,385 L540.016602,382.260742 L539.958008,382.260742 C539.064453,384.018555 537.086914,385.146484 534.875,385.146484 Z M545.480469,385 L545.480469,383.154297 L554.28418,371.362305 L554.28418,371.318359 L545.495117,371.318359 L545.495117,369.208984 L557.155273,369.208984 L557.155273,371.098633 L548.410156,382.84668 L548.410156,382.890625 L557.199219,382.890625 L557.199219,385 L545.480469,385 Z M561.666992,390.727539 C561.344727,390.727539 560.861328,390.683594 560.553711,390.625 L560.553711,388.47168 C560.84668,388.530273 561.256836,388.55957 561.59375,388.55957 C563.058594,388.55957 563.849609,387.856445 564.494141,385.952148 L564.801758,385.014648 L558.957031,369.208984 L561.666992,369.208984 L566.09082,382.407227 L566.149414,382.407227 L570.573242,369.208984 L573.253906,369.208984 L567.072266,385.966797 C565.724609,389.628906 564.464844,390.727539 561.666992,390.727539 Z M588.517578,385.146484 C584.547852,385.146484 581.75,381.923828 581.75,377.104492 C581.75,372.285156 584.533203,369.0625 588.458984,369.0625 C590.714844,369.0625 592.53125,370.043945 593.498047,371.772461 L593.556641,371.772461 L593.556641,362.939453 L596.105469,362.939453 L596.105469,385 L593.673828,385 L593.673828,382.333984 L593.629883,382.333984 C592.604492,384.150391 590.802734,385.146484 588.517578,385.146484 Z M588.97168,371.333008 C586.203125,371.333008 584.357422,373.618164 584.357422,377.104492 C584.357422,380.605469 586.203125,382.875977 588.97168,382.875977 C591.710938,382.875977 593.571289,380.546875 593.571289,377.104492 C593.571289,373.676758 591.710938,371.333008 588.97168,371.333008 Z M606.212891,385.146484 C601.774414,385.146484 598.932617,381.99707 598.932617,377.104492 C598.932617,372.197266 601.774414,369.0625 606.212891,369.0625 C610.651367,369.0625 613.493164,372.197266 613.493164,377.104492 C613.493164,381.99707 610.651367,385.146484 606.212891,385.146484 Z M606.212891,382.875977 C609.157227,382.875977 610.900391,380.722656 610.900391,377.104492 C610.900391,373.47168 609.157227,371.333008 606.212891,371.333008 C603.268555,371.333008 601.525391,373.486328 601.525391,377.104492 C601.525391,380.722656 603.283203,382.875977 606.212891,382.875977 Z M622.560547,382.729492 C625.329102,382.729492 627.204102,380.429688 627.204102,377.045898 C627.204102,373.647461 625.329102,371.333008 622.560547,371.333008 C619.806641,371.333008 618.004883,373.588867 618.004883,377.045898 C618.004883,380.488281 619.806641,382.729492 622.560547,382.729492 Z M622.648438,390.947266 C619.220703,390.947266 616.466797,388.999023 616.027344,386.318359 L618.664062,386.318359 C619.176758,387.783203 620.773438,388.75 622.765625,388.75 C625.519531,388.75 627.204102,387.15332 627.204102,384.765625 L627.204102,382.290039 L627.145508,382.290039 C626.149414,384.003906 624.289062,385 622.077148,385 C618.078125,385 615.397461,381.821289 615.397461,377.045898 C615.397461,372.226562 618.078125,369.0625 622.135742,369.0625 C624.362305,369.0625 626.222656,370.043945 627.277344,371.772461 L627.321289,371.772461 L627.321289,369.208984 L629.75293,369.208984 L629.75293,384.677734 C629.75293,388.442383 626.984375,390.947266 622.648438,390.947266 Z" id="The-quick-brown-fox"></path>
        </g>
    </g>
</svg>